<?xml version="1.0" encoding="UTF-8" standalone="no"?>
<!-- Created with Inkscape (http://www.inkscape.org/) -->

<svg
   width="270.93332mm"
   height="270.93332mm"
   viewBox="0 0 270.93332 270.93332"
   version="1.1"
   id="svg1"
   xml:space="preserve"
   sodipodi:docname="Carlota.svg"
   inkscape:version="1.4.2 (f4327f4, 2025-05-13)"
   xmlns:inkscape="http://www.inkscape.org/namespaces/inkscape"
   xmlns:sodipodi="http://sodipodi.sourceforge.net/DTD/sodipodi-0.dtd"
   xmlns="http://www.w3.org/2000/svg"
   xmlns:svg="http://www.w3.org/2000/svg"><sodipodi:namedview
     id="namedview1"
     pagecolor="#ffffff"
     bordercolor="#000000"
     borderopacity="0.25"
     inkscape:showpageshadow="2"
     inkscape:pageopacity="0.0"
     inkscape:pagecheckerboard="0"
     inkscape:deskcolor="#d1d1d1"
     inkscape:document-units="mm"
     inkscape:zoom="0.76410288"
     inkscape:cx="111.24156"
     inkscape:cy="157.70128"
     inkscape:window-width="2560"
     inkscape:window-height="1494"
     inkscape:window-x="-11"
     inkscape:window-y="-11"
     inkscape:window-maximized="1"
     inkscape:current-layer="g73"
     showguides="true" /><defs
     id="defs1" /><g
     inkscape:label="Capa 1"
     inkscape:groupmode="layer"
     id="layer1"
     transform="translate(1.2279242,78.991989)"><path
       id="path3"
       style="display:inline;fill:#d00000;fill-opacity:1;stroke-width:1.30872"
       d="M 425.57227,93.525392 C 404.69522,92.9426 388.24294,96.145231 382.9336,99.404298 l -13.77539,8.455082 10.66601,5.75976 c 20.95641,11.31723 24.02456,24.95933 22.8418,45.39063 0.0107,18.63705 -0.83206,18.61042 -4.37305,27.07617 -9.95805,23.80754 -28.6566,34.09648 -60.15625,32.02734 -12.46969,-1.03126 -22.32151,-7.94432 -31.76953,-16.36523 -13.81659,5.21541 -31.34948,15.65206 -42.27539,25.83984 -4.68445,6.79135 -34.66322,82.27176 48.21289,80.89649 13.45291,-0.22324 22.93037,-1.43423 26.08789,-0.58399 33.46732,9.01175 54.14142,35.96271 98.06641,28.57227 l 75.25195,-12.66211 53.98438,1.62305 c -18.52528,6.14816 -34.85166,15.86748 -49.89258,27.67773 -30.20943,23.72069 -50.23413,35.23476 -81.92383,36.53907 -18.66625,0.76829 -25.32646,-1.05357 -42.25976,-9.81641 l -10.97852,-5.68164 -9.63477,6.00195 c -4.53362,1.57208 -8.8164,8.61556 -8.8164,9.61133 5.82826,16.24308 52.03524,31.39761 67.39844,30.07227 54.18504,-1.53677 101.26541,-31.20714 152.30273,-45.90625 31.69096,-9.41653 73.40914,-33.35387 84.89258,-72.92579 1.85754,-6.40105 2.35617,-10.10876 2.44922,-11.82812 0.0471,0.33562 0.11965,0.73647 0.23047,1.19531 7.43936,30.80091 -20.76023,66.90057 -58.78516,80.38477 l -115.89258,41.09765 c -14.0148,4.96985 -17.38091,8.2676 -33.32812,19.72071 -94.98433,68.21665 -147.74865,115.02682 -169.0918,169.22266 -8.80305,22.35325 -18.66048,51.33266 -18.70508,75.38867 -0.0466,25.09638 2.93335,40.5884 11.99609,59.05078 8.57906,17.47704 18.94712,24.99643 29.0918,29.92188 33.89365,16.45605 121.1207,30.51063 166.3711,36.44531 45.25041,5.93468 61.24434,6.74192 104.01758,3.42187 108.67457,-8.43533 194.33186,-40.58001 232.44336,-78.60156 5.19994,-5.18767 13.5143,-19.00202 15.73828,-23.53125 3.52443,-7.17756 3.50844,-13.67568 3.46484,-29.07422 -0.0446,-15.7322 -1.61321,-17.94667 -6.10937,-28.79101 -2.57142,-6.20203 -14.922,-23.07572 -17.54883,-27.03321 -6.2759,-9.45503 -28.96495,-19.28652 -40.72266,-27.07812 -27.52494,-18.24021 -68.55449,-37.17295 -113.02929,-37.09375 l -102.04493,0.18164 c -32.16044,31.61205 -78.2453,69.04157 -86.14453,116.10742 55.25562,0.038 112.55856,-2.35856 166.69922,11.91602 30.12514,-8.92664 47.84147,-22.78884 63.66211,-39.08008 10.46776,-10.77915 -4.56425,7.74481 -12.33008,15.54687 -21.65991,21.76099 -23.39045,22.10788 -33.77929,27.06055 -30.32443,14.45657 -67.35262,22.635 -108.22462,22.7168 -33.81101,0.0677 -50.33079,-2.06166 -66.5,-14.26954 -28.24952,-21.32859 -20.05778,-55.56887 20.52735,-99.41992 19.36529,-20.92363 36.3385,-34.32218 89.32422,-79.39258 26.1161,-22.21472 64.69174,-55.43893 76.89648,-70.8789 23.30748,-29.48579 33.82628,-57.64581 41.60938,-88.42383 4.95301,-19.58649 0.58119,-85.39334 -0.0449,-87.70508 -6.65828,-24.58348 -18.53218,-50.57069 -35.76368,-67.41602 -6.03211,-5.89692 -12.9309,-12.89696 -16.62695,-14.9707 -1.10141,-4.56647 -3.06183,-9.23829 -6.61523,-13.04492 -11.79208,-12.6324 -11.50919,-19.73295 -19.71875,-30.13672 -11.89396,-15.0729 -38.4852,-31.99081 -56.91407,-36.83204 -11.3689,-2.98659 -31.81931,-2.04408 -44.66015,1.31055 -45.20079,13.54213 -87.92074,50.94492 -33.9668,3.26563 -23.00639,-11.882793 -48.3085,-16.251196 -69.18555,-16.833988 z m 131.79297,37.232418 c 7.10602,-0.0343 11.37361,2.73842 16.57813,7.27539 34.72977,30.27527 41.74204,79.73 11.45507,117.54102 -12.52774,24.54904 -99.94776,10.88558 -100.38672,-12.59765 -3.18709,-52.07415 -4.10458,-96.55652 64.16212,-111.21094 3.13946,-0.67393 5.82273,-0.99637 8.1914,-1.00782 z m 272.07813,267.79688 c -1.53957,0.0601 -2.95319,0.27358 -4.15625,0.64453 -37.2884,11.49769 -75.58061,60.1914 -78.49024,85.74415 -1.84985,16.2455 -0.31681,31.22111 4.66602,46.24804 7.83191,23.61896 16.23783,37.99231 49.80274,68.32032 19.9807,18.05384 34.22487,31.23001 41.02539,45.28711 6.25073,12.92064 10.17123,21.15667 9.59179,35.44726 -1.79286,44.21765 -57.48466,76.37798 -77.92773,86.39063 -115.73607,56.68542 -266.04152,49.12412 -310.66602,44.4043 -70.21374,-7.42629 -133.18773,-20.77806 -170.20313,-46.15821 L 253.14258,737.4961 c -9.18744,-6.2995 -0.99335,-27.04094 7.33008,-7.10156 10.33548,17.21143 5.38778,-31.7803 5.05664,-35.33984 -2.96848,-43.68023 2.40879,-77.71722 24.44336,-115.39063 -0.62528,-0.62528 -43.33641,9.91294 -53.79102,13.48047 -34.18693,11.66599 -69.01471,36.58092 -88.34179,59.32617 -27.18709,31.99537 -40.61447,68.73211 -37.14258,109.88086 2.61097,30.94522 12.43241,55.12078 37.61133,80.12305 13.06279,12.97113 25.5821,26.63386 44.59961,36.76563 62.29849,33.19019 164.55332,58.3687 265.7168,63.84961 28.02567,1.51839 101.19183,-0.68655 128.31054,-3.01563 95.50193,-8.20216 170.04995,-21.6307 230.59376,-52.37109 51.31749,-26.05584 87.74691,-60.1652 110.83398,-100.67774 18.85626,-33.08845 29.16088,-81.48934 19.69532,-117.83008 -8.667,-33.27482 -30.13554,-66.1904 -76.4004,-100.88867 -29.66237,-22.24653 -38.47856,-27.41192 -46.35547,-43.30469 -14.52465,-29.50601 -10.75797,-57.47178 8.52735,-81.60742 4.27623,-5.92835 15.494,-21.05261 17.29492,-24.98633 6.03489,-13.18195 -10.90464,-20.27447 -21.68164,-19.85352 z"
       sodipodi:nodetypes="sccccscccsccccssccccccsccccsssssssssssssscccssssssssssscsssccsssccssscssssssscccccsssssssssssccssc"
       inkscape:label="Inside"
       transform="matrix(0.26458333,0,0,0.26458333,-1.2279242,-78.991989)" /><g
       id="g45"
       inkscape:label="Jupa"
       transform="translate(1.3850665)"><g
         id="g73"
         inkscape:label="Ojos"
         transform="translate(-1.3850665)"><path
           id="path44"
           style="fill:#ffffff;fill-opacity:1;stroke-width:0.264583"
           inkscape:label="Ojos"
           d="m 96.244162,-47.127267 c -0.386097,0.0041 -0.783647,0.04148 -1.190625,0.113171 -5.965236,1.050756 -11.033829,8.025986 -12.403894,17.069759 -0.173637,1.146172 -0.240899,2.480952 -0.149861,2.966227 0.201535,1.074274 1.46707,2.397395 2.60966,2.727999 0.973284,0.281616 3.972691,0.146882 4.877738,0.12454 9.500235,-0.673036 12.39198,-2.705765 13.1346,-10.911995 0.34434,-1.200628 -0.19861,-5.644953 -0.92759,-7.593335 -1.09306,-2.921444 -3.247346,-4.525273 -5.950028,-4.496366 z m 47.394528,5.151106 c -2.31697,0.01013 -4.67706,0.591836 -6.64146,1.743047 -2.75479,1.614417 -6.03394,5.576113 -7.66103,9.255249 -1.64066,3.709824 -2.17562,8.936643 -1.28519,12.558406 1.20783,4.912819 4.94728,8.7050476 9.79526,9.9337607 2.31025,0.5855275 6.3501,0.370348 8.61033,-0.45837 4.84999,-1.7782587 7.92023,-5.2982767 9.51777,-10.9135457 0.79633,-2.799038 0.87823,-8.84255 0.15606,-11.509375 -1.05572,-3.898515 -3.26236,-7.121779 -6.10815,-8.92297 -1.7929,-1.13478 -4.06663,-1.696334 -6.38359,-1.686202 z"
           sodipodi:nodetypes="sssssccssssssssssss" /><path
           d="m 140.18869,-14.627309 c -5.63551,-2.424529 -5.68932,-12.864219 -0.0907,-17.598504 2.05622,-1.738783 3.80086,-2.04391 5.80363,-1.015026 4.7677,2.449325 5.40738,11.774461 1.14278,16.659809 -1.84379,2.11218 -4.63711,2.908212 -6.85571,1.953721 z m 4.66616,-10.827606 c 2.69807,-1.226974 1.00236,-5.991997 -1.78256,-5.009062 -3.08708,1.089572 -1.40393,6.458139 1.78256,5.009062 z"
           style="display:inline;fill:#000000"
           id="path1-1"
           inkscape:label="Pupila 2"
           sodipodi:nodetypes="ssssssss" /><path
           d="m 92.28521,-22.563113 c -6.273887,-2.121176 -6.826961,-12.235906 -0.932323,-17.050709 2.164943,-1.768356 4.057224,-2.134754 6.294773,-1.218849 5.32663,2.180375 6.46722,11.191269 2.03771,16.0984 -1.91509,2.121599 -4.930244,3.006225 -7.40016,2.171158 z m 4.58705,-10.68194 c 2.89065,-1.298382 0.81179,-5.847356 -2.185323,-4.781946 -3.313696,1.177939 -1.236966,6.319122 2.185323,4.781946 z"
           style="display:inline;fill:#000000;stroke-width:1.03007"
           id="path73"
           inkscape:label="Pupila 1"
           sodipodi:nodetypes="ssssssss" /></g><path
         id="path43"
         style="fill:#2f2f2f;fill-opacity:1;stroke-width:0.264583"
         inkscape:label="Cabeza"
         d="m 109.81426,-53.678805 c -2.22044,0.05398 -4.36037,-0.198756 -5.94407,0.135153 -2.73234,0.576089 -8.599223,2.628376 -8.599223,2.975751 0,0.100344 0.636225,1.080421 1.255363,1.173266 2.534033,0.380001 4.96962,1.899203 6.24634,4.786094 1.95643,4.423841 1.79312,11.487138 -0.22552,15.443985 -0.29257,0.5735 -2.912965,9.701042 -16.265308,8.3809 -2.637725,0 -4.436207,-0.593945 -6.709152,-2.215885 l -1.669665,-1.191659 -2.126485,0.73639 c -2.546985,0.88194 -5.47924,2.76892 -6.950997,4.472595 -1.378308,1.5955 -2.785881,4.390126 -3.188953,6.331396 -0.181779,0.875481 -0.262597,2.559155 -0.189652,3.9542808 0.108399,2.0731925 0.261848,2.7139449 1.046964,4.3671753 1.115026,2.3479289 2.809739,4.11697144 4.984709,5.20381677 2.389935,1.19426473 4.105301,1.46603873 7.664648,1.21336263 4.894663,-0.3474694 7.395814,-0.2904985 8.863542,0.2025716 1.284043,0.4313629 5.932248,2.6229924 8.83977,4.1677043 2.919215,1.5509222 8.149319,2.4542366 14.178979,2.4489461 6.58417,-0.00578 15.46337,-1.2455723 22.04362,-3.5909953 14.21643,-4.82450374 11.07899,-6.4543806 16.7917,-9.5286452 -0.57119,3.0454166 -4.24252,5.525958 -4.31033,7.6650058 1.92321,0.9271145 12.32382,0.5408095 12.32382,0.5408095 -9.01288,4.5151437 -13.08835,1.0952155 -26.77355,13.4859117 -6.52363,5.801037 -18.72439,8.837783 -25.63151,6.699333 -1.82013,-0.563513 -5.02821,-2.084361 -6.639387,-3.147095 l -0.818555,-0.539502 -1.829345,1.284676 c -2.650961,1.861697 -2.733797,1.998466 -1.799374,2.980697 4.322008,4.543127 11.795891,6.874049 19.466511,6.071464 7.26781,-0.760439 14.01906,-2.69612 22.44411,-6.435266 5.29472,-2.349865 8.50452,-3.504663 14.59084,-5.248775 6.39241,-1.831828 9.43266,-2.526377 12.22362,-4.348333 5.57062,-3.636537 9.20764,-9.4601688 10.88505,-16.0958976 l 0.47232,-1.8686198 -0.015,-0.2273763 c -2.60993,-8.4682183 -1.52085,-10.8502993 -3.28197,-21.9697183 -0.82108,-1.257008 -1.92147,-3.07697 -2.39003,-4.017326 -0.36256,-0.727604 -1.23854,-2.751667 -1.94717,-4.497917 -1.59348,-3.926802 -3.64882,-7.049542 -6.36964,-9.677445 -7.33104,-7.080676 -16.38847,-9.16582 -25.58345,-5.89008 -4.41582,1.573148 -10.38725,5.161152 -14.25287,8.563818 l -1.5782,1.389063 0.59066,-1.161686 c 1.36504,-2.684204 3.7058,-5.548261 6.29781,-7.707023 0.63315,-0.527313 1.08195,-1.07079 0.99735,-1.207679 -0.49262,-0.797083 -7.58114,-3.224991 -11.12439,-3.810103 -1.93816,-0.494192 -4.57773,-2.614657 -5.99393,-0.297139 z m -17.384473,6.978902 c -0.129464,0.04138 -0.25612,0.09467 -0.384473,0.141593 0.128264,-0.04689 0.2551,-0.100238 0.384473,-0.141593 z m -1.212846,0.481107 c -0.146413,0.06832 -0.290997,0.142099 -0.435632,0.217558 0.144517,-0.07539 0.28934,-0.149295 0.435632,-0.217558 z m 52.039649,1.105349 c 5.88729,0 10.77178,4.500189 13.29267,10.79582 1.25005,3.121857 2.02152,4.892338 1.84327,8.771471 -0.18359,3.995569 -0.7612,6.323267 -2.37615,9.570725 -3.3077,6.6513626 -8.82018,10.0482446 -15.61174,10.0351995 -5.11743,-0.00983 -8.30645,-1.208514 -11.6017,-4.4960195 -4.006,-3.996612 -4.78576,-9.146448 -4.76476,-13.087289 0.0615,-11.507619 9.01661,-21.589907 19.21841,-21.589907 z m -53.234408,-0.453192 c -0.1364,0.08477 -0.272717,0.167814 -0.40721,0.258899 0.134313,-0.09095 0.270995,-0.174248 0.40721,-0.258899 z m -1.221631,0.86248 c -0.09918,0.07891 -0.200765,0.150178 -0.29869,0.232544 0.0979,-0.08234 0.19954,-0.15366 0.29869,-0.232544 z m -1.337903,1.193725 c -0.5436,0.551698 -1.055096,1.172511 -1.546675,1.829346 0.491402,-0.656517 1.003292,-1.277877 1.546675,-1.829346 z m -1.842265,2.229838 c -0.419847,0.591765 -0.825507,1.207231 -1.198893,1.87017 l -5.17e-4,10e-4 -0.02325,0.08061 c 0.383613,-0.686195 0.789496,-1.341265 1.222664,-1.951819 z m -8.735384,26.06766 c 0.85754,-0.03058 1.891297,0.788354 2.541447,2.234489 1.587293,3.5306298 0.314303,6.6704027 -1.974556,4.8699866 -1.539476,-1.2109523 -2.497002,-4.7975636 -1.688786,-6.3251956 0.272029,-0.51417 0.672708,-0.76326 1.121895,-0.77928 z m 27.986921,6.070947 c 0.83333,0 2.05259,1.0298265 2.05259,1.7337443 0,0.8558034 -0.88331,2.2729545 -1.97404,3.1667318 -2.1974,1.8006031 -4.53355,2.2627633 -5.325774,1.0536824 -0.60473,-0.9229393 -0.308448,-2.1858894 0.822174,-3.5067627 1.03203,-1.2056928 3.27733,-2.4473958 4.42505,-2.4473958 z m 69.98591,11.915035 c -0.12271,0.7013755 -0.29498,1.4075924 -0.5147,2.1135661 L 174.94,4.0112133 Z m -39.75985,6.5246663 c -0.34555,-0.00694 -1.37019,0.2773588 -3.24889,0.8790157 -5.44966,1.745259 -10.95364,2.764037 -16.98708,3.144511 l -3.57188,0.22531 -5.37176,2.68149 c -3.03755,1.516529 -5.29955,2.797939 -5.2064,2.948657 0.28552,0.461981 2.82746,1.654139 4.88962,2.2934 2.73395,0.847511 6.96476,0.723058 10.45104,-0.307475 4.8083,-1.421315 10.68726,-4.770895 15.96544,-9.096602 1.35944,-1.114126 2.66063,-2.1734643 2.89129,-2.3538617 0.34368,-0.2687779 0.42505,-0.4096964 0.18862,-0.414445 z M 99.520827,11.976619 c -0.772591,0.0281 -1.585107,0.254139 -2.431376,0.629935 h -5.17e-4 l -1.862935,5.67924 c 0.124487,-0.08803 0.242385,-0.169429 0.352433,-0.242362 2.390332,-1.584182 7.972668,-4.695838 8.424288,-4.695838 0.15186,0 0.27596,-0.10166 0.27596,-0.225826 0,-0.124166 -1.07075,-0.432371 -2.37919,-0.685229 z"
         sodipodi:nodetypes="csssssccccssssssssscccccsccssssssscccsssscccsssccccscscsssscsccccccccccscccssssssscsssccscsscccssssssccccssscccc" /><path
         style="fill:#ffffff;fill-opacity:1;stroke-width:0.264583"
         d="m 162.08535,-45.080613 c 7.67189,34.360263 13.87469,33.340065 0.61212,62.313684 4.16241,-4.284831 6.85573,-8.3248144 11.01814,-12.6096454 2.15383,-9.9486082 -0.0576,-26.5612276 -2.73407,-31.9426306 -2.55888,-5.144979 0.0491,-2.224037 -2.16289,-10.171135 -2.24443,-2.530091 -4.48887,-5.060182 -6.7333,-7.590273 z"
         id="path46"
         sodipodi:nodetypes="cccscc"
         inkscape:label="Collar" /><path
         style="fill:#ffffff;fill-opacity:1;stroke-width:0.264583"
         d="m 71.614203,1.4404087 18.485984,4.039985 C 118.20563,11.987992 80.884784,24.633619 92.058964,18.212462 l 3.917561,10.895713 c 2.335017,4.3054 36.368735,3.850058 56.192495,-9.18178 -2.82407,6.627121 5.24575,-6.617981 1.5594,-12.6393033 -1.20307,-1.9651158 -3.6583,-3.160823 -8.15301,-2.6452449 -5.06544,0.5810448 4.31087,-6.7882179 2.18636,-6.7517274 -17.0754,0.2932863 -16.30823,-2.4885015 -31.5633,-13.8370294 -6.00629,-4.468186 -12.84591,2.253965 -19.977229,2.444446 -1.377401,-9.97069 -10.22987,-9.115891 -16.527071,-12.357622 -18.479524,5.889412 -15.74527,20.7518179 -8.079967,27.3004947 z"
         id="path45"
         sodipodi:nodetypes="cccccssssccc"
         inkscape:label="Ocico" /></g><path
       style="fill:#bc5382;fill-opacity:1;stroke-width:0.264583"
       d="m 110.3565,10.691068 29.51923,-4.2417655 -1.5582,5.3671335 -15.92827,9.695466 -14.97603,1.991032 -7.790998,-4.155199 8.050698,-6.405933 z"
       id="path42"
       inkscape:label="Boca" /><path
       style="fill:#4b4b4b;fill-opacity:1;stroke-width:0.264583"
       d="m 109.8371,12.768669 -12.032767,7.011897 -9.002932,7.877567 -4.414901,8.743233 -3.289533,8.223832 -5.4537,6.752201 -7.098466,4.761164 H 67.07317 l 4.155199,-8.483532 2.683565,-8.5701 1.0388,-2.943264 -7.2716,5.193998 -10.474565,2.423866 -5.799966,-1.125365 -1.471634,-2.597002 8.483534,-0.605965 8.310399,-6.925333 L 77.028334,20.386534 90.532734,8.7000362 94.5148,7.1418361 Z"
       id="path41"
       inkscape:label="Lengua" /><g
       id="g47"
       inkscape:label="Manchas"
       transform="translate(-0.52916668,0.18290003)"><g
         id="g68"
         inkscape:label="Raya Cola"><path
           style="fill:#2f2f2f;fill-opacity:1;stroke-width:0.264583"
           d="m 223.78691,25.802734 1.95878,7.345424 c -18.29834,20.244731 -8.82775,21.135367 -7.10057,27.422918 -9.16689,-1.974779 -13.6336,3.884097 -19.09811,8.079967 -9.54321,-25.37085 4.57287,-34.518722 10.52844,-40.889529 z"
           id="path62"
           sodipodi:nodetypes="cccccc" /><path
           style="fill:#ffffff;fill-opacity:1;stroke-width:0.264583"
           d="m 206.79175,30.6014 c 13.41784,7.617865 11.1671,11.773064 11.1671,11.773064 0,0 1.2985,0.952236 -0.95223,2.077601 -2.25073,1.125366 -14.88947,-9.089498 -14.88947,-9.089498 z"
           id="path63" /><path
           style="fill:#ffffff;fill-opacity:1;stroke-width:0.264583"
           d="m 195.45768,48.698927 c 8.65666,-4.934299 19.99074,0.169838 19.99074,0.169838 l 1.12537,2.681765 c -4.76879,4.86134 -16.071,1.551364 -20.72713,2.18231 z"
           id="path64"
           sodipodi:nodetypes="ccccc" /></g><g
         id="g67"
         inkscape:label="Raya 8"><path
           style="fill:#2f2f2f;fill-opacity:1;stroke-width:0.264583"
           d="m 211.41702,81.225886 c 2.24581,-6.419529 7.46093,-10.772948 19.46537,-10.686723 l 17.7801,17.349807 c -12.36831,-1.265964 -21.51842,1.462346 -26.71193,9.654076 z"
           id="path65"
           sodipodi:nodetypes="ccccc" /><path
           style="fill:#ffffff;fill-opacity:1;stroke-width:0.264583"
           d="m 214.92902,84.272727 c 3.09163,-5.944753 7.68865,-10.057963 18.61183,-10.474566 l 9.8686,8.396967 c -8.85646,0.429054 -16.35987,1.609571 -22.50733,9.262631 z"
           id="path66"
           sodipodi:nodetypes="ccccc" /></g><g
         id="g69"
         inkscape:label="Raya 7"><path
           style="fill:#2f2f2f;fill-opacity:1;stroke-width:0.264583"
           d="m 194.40522,127.78172 c -2.51724,18.35267 40.039,11.98076 14.07873,32.80955 l 31.34047,-20.93445 11.43972,-24.07143 c -1.22213,-17.927144 -17.13633,0.0585 -30.20895,-7.22555 l -10.12277,11.21948 z"
           id="path59"
           sodipodi:nodetypes="ccccccc"
           transform="translate(0.17313333,-0.34626646)" /><path
           style="fill:#ffffff;fill-opacity:1;stroke-width:0.264583"
           d="m 215.59567,113.69902 c 15.73084,6.29816 32.82728,-9.56789 31.86035,9.12768 -0.0844,1.63081 -10.36594,19.70539 -10.36594,19.70539 l -8.17461,5.7482 c 4.51598,-15.01344 -25.00902,-13.36587 -26.80597,-25.55202 l 10.48222,-5.90648 z"
           id="path60"
           sodipodi:nodetypes="csccccc" /></g><g
         id="g70"
         inkscape:label="Raya 6"><path
           style="fill:#2f2f2f;fill-opacity:1;stroke-width:0.264583"
           d="m 95.207331,129.80679 c -16.538462,17.11996 15.415719,29.52388 -10.387996,37.22366 l 65.963795,4.84774 c 17.28338,-15.73605 -3.08048,-22.53218 0,-36.01174 z"
           id="path57"
           sodipodi:nodetypes="ccccc" /><path
           style="fill:#ffffff;fill-opacity:1;stroke-width:0.264583"
           d="m 107.54557,131.02594 c -13.981421,18.02445 16.20046,23.70743 -7.34543,38.31863 l 33.60533,2.20363 c 20.76796,-14.49916 3.26235,-21.23408 6.05998,-36.35985 z"
           id="path58"
           sodipodi:nodetypes="ccccc" /></g><g
         id="g72"
         inkscape:label="Raya 5"><path
           style="fill:#2f2f2f;fill-opacity:1;stroke-width:0.264583"
           d="m 51.985524,80.325463 c -8.819262,15.292891 18.622627,9.671197 19.156279,20.048667 l -2.117093,10.30156 1.424557,9.43563 c -11.236013,1.31959 -19.244257,26.50511 -40.946028,15.40889 -6.509699,-13.79295 -3.07404,-23.60383 1.644766,-37.396789 z"
           id="path53"
           sodipodi:nodetypes="ccccccc" /><path
           style="fill:#ffffff;fill-opacity:1;stroke-width:0.264583"
           d="m 42.213302,88.205533 c 3.448652,18.638457 33.852381,9.694468 27.209578,20.447307 l -1.996776,3.84113 2.092042,1.18906 C 60.54209,110.78305 48.707645,132.2062 27.841562,126.77366 l -0.28145,-14.57264 c 2.927352,-6.79624 9.821179,-19.159926 14.65319,-23.995487 z"
           id="path54"
           sodipodi:nodetypes="ccccccc" /></g><g
         id="g66"
         inkscape:label="Raya 4"><path
           style="fill:#2f2f2f;fill-opacity:1;stroke-width:0.264583"
           d="m 167.49049,102.36516 c 7.17171,-13.250768 -15.85548,-19.130031 3.84044,-35.722327 l -43.53125,-2.972969 c -6.95556,8.619686 17.47095,24.263908 3.67908,34.193828 z"
           id="path51"
           sodipodi:nodetypes="ccccc" /><path
           style="fill:#ffffff;fill-opacity:1;stroke-width:0.264583"
           d="m 163.07559,66.439995 c -18.35426,20.004356 6.94823,28.00432 -3.54923,34.583375 L 139.4429,98.383092 c 8.59144,-10.040888 -11.78597,-25.050621 -2.07761,-35.319195 z"
           id="path52"
           sodipodi:nodetypes="ccccc" /></g><g
         id="g71"
         inkscape:label="Raya 3"><path
           style="fill:#2f2f2f;fill-opacity:1;stroke-width:0.264583"
           d="m 164.20073,105.24414 c 20.92587,7.52595 12.11188,29.34684 35.88567,20.59205 9.99025,-6.6787 2.90459,-3.05008 13.89039,-10.39947 l 7.791,-17.659594 -2.91168,-2.866275 C 216.65049,108.10382 189.36877,84.606262 186.33996,90.2889 l -8.72117,6.449427 z"
           id="path55"
           sodipodi:nodetypes="cccccccc" /><path
           style="fill:#ffffff;fill-opacity:1;stroke-width:0.264583"
           d="m 168.37052,103.18218 c 29.62404,-2.38848 19.23633,37.3575 47.08121,11.33277 l 3.73634,-4.65421 2.09689,-5.77303 c -18.76882,6.29093 -27.35856,-10.434198 -40.68647,-8.387701 z"
           id="path56"
           sodipodi:nodetypes="cccccc" /></g><g
         id="g50"
         inkscape:label="Raya 2"
         transform="rotate(56.921845,79.92654,107.59473)"><path
           style="fill:#2f2f2f;fill-opacity:1;stroke-width:0.264583"
           d="m 109.49279,61.168478 c 13.34658,0.09997 2.05095,22.225989 12.96143,30.253152 -10.21486,9.8686 -23.497228,36.40326 -53.857028,20.0012 -9.33021,-9.77344 31.748248,-42.778686 25.806166,-44.973549 10.428832,-2.237112 8.839302,2.015747 15.089432,-5.280803 z"
           id="path49"
           sodipodi:nodetypes="ccccc"
           inkscape:label="Negro" /><path
           style="fill:#ffffff;fill-opacity:1;stroke-width:0.264583"
           d="m 104.32672,63.888709 c 15.01574,2.095859 -4.02732,30.537389 9.38459,36.766131 -2.48103,2.1299 -6.87608,7.3442 -13.6029,12.24495 -6.33184,4.61298 -14.827093,9.1791 -22.698955,3.43307 -9.382027,-5.94637 21.578907,-34.943688 20.857372,-48.75294 4.212913,-3.924355 1.846983,0.233144 6.059893,-3.691211 z"
           id="path50"
           sodipodi:nodetypes="ccsccc"
           inkscape:label="Blanco" /></g><g
         id="g48"
         inkscape:label="Raya 1"><path
           style="fill:#2f2f2f;fill-opacity:1;stroke-width:0.264583"
           d="m 112.46485,38.99731 c 13.72804,11.010767 56.60724,-12.056098 59.06997,1.970029 -10.21486,9.868598 -29.29134,29.846603 -39.5062,39.715201 C 128.47016,70.081004 86.948704,79.101164 82.463578,66.562419 Z"
           id="path47"
           sodipodi:nodetypes="ccccc"
           inkscape:label="Negro" /><path
           style="fill:#ffffff;fill-opacity:1;stroke-width:0.264583"
           d="m 106.7258,45.715763 c 5.15697,9.943438 72.59278,-6.101202 55.34399,7.04266 0,0 -22.90673,18.962139 -21.39502,17.156543 6.5875,-7.868163 -62.431026,-1.188708 -50.234755,-10.245627 4.212912,-3.924355 12.072875,-10.029221 16.285785,-13.953576 z"
           id="path48"
           sodipodi:nodetypes="ccscc"
           inkscape:label="Blanco" /></g></g><path
       style="display:inline;fill:#000000"
       d="M 122.99394,173.39913 C 95.560128,172.06354 73.348366,167.41502 54.863739,159.14071 41.813,153.29878 32.536366,145.39024 28.009134,136.24654 25.476938,131.13224 24.381127,126.06513 24.37575,119.4455 24.360162,100.25552 36.925044,84.085615 58.392577,75.668806 63.346782,73.726403 69.35795,72.133042 75.898113,71.028668 l 1.852084,-0.312744 1.450872,-2.027398 C 83.129026,63.199738 90.995643,54.78536 97.461654,49.156438 101.25853,45.851102 107.86146,40.563754 112.01376,37.503724 l 3.15899,-2.328011 -3.63003,-0.178623 C 103.72681,34.612492 98.492453,32.593765 93.956428,28.214603 l -1.798222,-1.736038 -0.791767,0.908991 c -0.435471,0.499945 -1.493038,1.954477 -2.350147,3.232293 -1.477076,2.202089 -2.180481,3.65181 -4.778028,9.847531 -3.78857,9.036572 -9.468619,15.055549 -15.985412,16.939255 -2.761839,0.798322 -4.922446,0.245816 -4.922446,-1.258758 0,-0.26963 1.000263,-1.545703 2.222808,-2.835718 1.222544,-1.290014 2.714418,-3.172984 3.315275,-4.184376 1.251518,-2.106617 2.801346,-5.789991 3.08082,-7.321982 l 0.190238,-1.042829 -0.898841,0.600573 c -1.519287,1.015132 -5.041951,2.591733 -6.851967,3.066663 -0.965542,0.253348 -3.237738,0.513122 -5.180913,0.592319 -4.066975,0.165757 -6.975867,-0.303295 -9.367205,-1.510438 -1.595489,-0.8054 -3.181661,-2.364169 -3.174913,-3.120062 0.01022,-1.145226 0.330116,-1.241074 4.682082,-1.402877 3.335374,-0.124007 4.493779,-0.270047 5.746957,-0.724518 4.120541,-1.494335 7.038974,-4.131923 12.198442,-11.024571 C 76.262664,17.929387 81.543311,12.883222 88.931587,8.473689 89.842602,7.9299694 90.524948,7.3831241 90.447912,7.2584773 90.370876,7.1338304 89.6255,6.7729286 88.791521,6.4564731 87.41009,5.9322856 87.028051,5.9011376 84.497071,6.1063431 82.969103,6.230227 80.585294,6.3175295 79.199719,6.3003488 71.63488,6.2065466 65.651255,1.9784528 63.52388,-4.776368 c -0.47163,-1.4975136 -0.580341,-2.4599171 -0.567853,-5.0270831 0.01334,-2.7426149 0.114032,-3.4632569 0.739363,-5.2916659 2.226525,-6.510152 6.955215,-10.717138 14.120952,-12.563023 1.028515,-0.264944 1.124684,-0.362179 1.126876,-1.139362 0.0013,-0.467334 0.288154,-2.099854 0.637412,-3.627823 2.965023,-12.971673 11.474702,-21.618408 23.96644,-24.35244 8.79657,-1.925281 17.01264,-0.867694 25.89171,3.332828 l 3.14609,1.488354 0.8776,-0.453823 c 2.79057,-1.443062 7.54655,-2.504501 11.22188,-2.504501 11.8836,0 22.65429,7.731963 27.25436,19.565114 l 1.05519,2.714354 2.13886,1.67014 c 2.80384,2.1894 6.54019,6.160684 8.51921,9.054902 6.77056,9.901563 8.9794,22.47478726 6.27629,35.725993 -1.62898,7.985608 -5.31614,15.919754 -10.82522,23.294059 -5.81258,7.780563 -10.85478,12.896195 -22.74562,23.076867 l -4.47193,3.828773 2.61985,0.05813 c 5.24564,0.1164 13.61974,0.620182 16.74931,1.007631 9.13686,1.131164 18.86807,3.651322 25.9344,6.716405 1.37116,0.594754 2.52422,1.081371 2.56236,1.081371 0.0381,0 -0.65046,-1.145265 -1.53024,-2.545035 -2.72118,-4.329569 -4.01704,-7.643982 -4.83731,-12.372434 -2.19315,-12.642347 4.94344,-25.689126 17.50922,-32.009547 7.63757,-3.841601 13.13316,-2.979539 15.14847,2.376258 0.40908,1.087166 0.55043,1.930029 0.46914,2.797485 -0.17636,1.881879 -1.94678,5.240061 -4.78549,9.077233 -3.38999,4.582361 -4.01043,6.1992 -4.01043,10.451041 0,2.541157 0.10339,3.326194 0.62719,4.7625 1.39639,3.829018 4.12725,6.874417 9.93436,11.078613 9.31524,6.743987 12.60089,9.480525 15.63395,13.021116 6.01803,7.025042 9.06632,13.835872 10.17072,22.724578 1.11653,8.98619 -1.5151,20.31071 -6.6945,28.80807 -11.95011,19.60545 -35.42003,32.69053 -70.02407,39.04022 -15.66268,2.87404 -36.84136,4.16349 -54.36848,3.3102 z m 23.03095,-4.22012 c 37.18279,-1.82923 65.62275,-10.33405 84.1253,-25.15722 7.33213,-5.87408 13.71773,-14.09099 16.51958,-21.2572 2.37449,-6.07319 3.3465,-11.62336 3.12184,-17.8258 -0.35039,-9.67353 -3.67805,-17.190259 -10.89348,-24.606823 -3.65107,-3.752849 -6.25454,-5.906471 -12.05523,-9.972214 -7.04833,-4.940223 -10.72512,-9.120509 -12.38067,-14.076098 -0.60696,-1.816817 -0.68854,-2.491954 -0.69625,-5.762109 -0.008,-3.481803 0.0405,-3.842815 0.81214,-6.013792 0.96061,-2.702784 2.36887,-5.163167 4.43279,-7.744541 1.86716,-2.335303 3.33407,-5.091156 3.33407,-6.263673 0,-1.605059 -1.42794,-2.864451 -3.24781,-2.864451 -1.06209,0 -4.0033,0.967097 -6.32695,2.080358 -5.64672,2.705345 -10.77952,7.899375 -13.44181,13.602168 -1.55681,3.33478 -1.88878,4.858018 -2.03133,9.320597 -0.11514,3.604634 -0.0668,4.201148 0.52725,6.50181 1.11604,4.322522 2.67979,7.590592 5.40162,11.28883 1.68025,2.283012 3.71787,4.328252 8.42124,8.45273 6.43303,5.641253 9.09025,8.783979 11.08931,13.115469 1.40161,3.036943 1.83239,4.976542 1.8359,8.266159 0.003,2.66449 -0.069,3.09134 -0.85074,5.05156 -2.17737,5.46012 -7.26681,11.22548 -13.8121,15.64647 -15.43683,10.42674 -47.41669,17.01556 -77.16943,15.89924 -25.28384,-0.94864 -48.860433,-6.91079 -61.8691,-15.6457 -0.873125,-0.58628 -2.551142,-2.02788 -3.728927,-3.20356 -3.446525,-3.44036 -4.735082,-6.74643 -4.223943,-10.83744 0.200444,-1.6043 0.51331,-1.90956 0.79733,-0.77793 0.275442,1.09744 2.043586,4.84757 2.28558,4.84757 0.118676,0 0.292521,-0.4091 0.386323,-0.90911 0.0938,-0.50001 0.585749,-1.39417 1.093214,-1.98703 l 0.922665,-1.07793 -0.327606,-2.39729 c -0.691012,-5.056565 0.08642,-13.186509 1.779422,-18.608196 0.768761,-2.461888 2.595191,-6.765806 3.771374,-8.887111 0.443771,-0.800365 0.809014,-1.526768 0.81165,-1.614231 0.01546,-0.513012 -10.307508,2.240402 -14.402193,3.841453 -16.534836,6.465239 -26.729193,16.818356 -30.37269,30.845695 -0.672312,2.58838 -0.810282,3.69514 -0.923998,7.41213 -0.326937,10.68641 2.31094,17.59829 9.577092,25.09434 4.16626,4.29808 8.616123,7.44592 15.118288,10.69472 16.315542,8.15203 39.35682,13.60454 64.532249,15.27098 8.25374,0.54633 19.99294,0.65393 28.05803,0.25717 z M 124.88238,-23.523604 c 0.0615,-11.507619 9.53605,-22.130887 19.73785,-22.130887 5.88729,0 11.46422,4.175735 13.98511,10.471366 1.25005,3.121857 1.65361,5.757833 1.47536,9.636966 -0.18359,3.995569 -0.78308,6.409834 -2.39803,9.657292 -3.3077,6.6513623 -9.10123,10.4594916 -15.89279,10.4464465 -5.11743,-0.00983 -8.7826,-1.4463856 -12.07785,-4.7338915 -4.006,-3.996612 -4.85065,-9.406451 -4.82965,-13.347292 z m -37.215683,2.739945 c -2.637725,0 -4.436126,-0.593992 -6.709071,-2.215932 l -1.669653,-1.19144 -2.126297,0.736269 c -2.546985,0.88194 -5.479563,2.768729 -6.95132,4.472404 -1.378308,1.5955 -2.785844,4.390038 -3.188916,6.331308 -0.181779,0.875481 -0.262483,2.55922 -0.189538,3.9543458 0.108399,2.0731925 0.262033,2.713925 1.047149,4.3671554 1.115026,2.3479289 2.809895,4.11738169 4.984865,5.20422702 2.389935,1.19426468 4.105018,1.46570948 7.664365,1.21303338 4.894663,-0.3474694 7.395814,-0.2902315 8.863542,0.2028386 1.284043,0.4313629 5.93221,2.6226979 8.839732,4.1674098 2.919215,1.5509222 8.149355,2.4542615 14.179015,2.448971 6.58417,-0.00578 15.46339,-1.245692 22.04364,-3.591115 14.21643,-4.8245038 11.42542,-6.8218598 17.13813,-9.8961244 -0.57119,3.0454166 -4.24277,5.8285519 -4.31058,7.9675997 1.92321,0.9271145 12.2427,0.5461977 12.2427,0.5461977 -9.01288,4.5151437 -13.35343,1.1547346 -27.03863,13.545431 -6.52363,5.801037 -18.72439,8.837859 -25.63151,6.699409 -1.82013,-0.563513 -5.02827,-2.083991 -6.63945,-3.146725 l -0.818618,-0.53996 -1.829411,1.284745 c -2.650961,1.861697 -2.733632,1.998665 -1.799209,2.980896 4.322008,4.543127 11.795838,6.874243 19.466458,6.071658 7.26781,-0.760439 14.01914,-2.696236 22.44419,-6.435382 5.29472,-2.349865 8.50477,-3.504582 14.59109,-5.248694 6.39241,-1.831828 9.28109,-2.981148 12.07205,-4.803104 5.57062,-3.636537 9.35899,-9.0056199 11.0364,-15.6413487 l 0.60149,-2.3794728 0.31721,1.880636 c 0.98111,5.816668 -2.35377,12.8697605 -8.38439,17.7325415 -3.64541,2.939475 -6.3831,4.187985 -15.02031,6.849928 -5.49219,1.692665 -9.3047,3.14127 -15.74271,5.981615 -3.06982,1.354355 -8.23582,3.223058 -10.71562,3.876174 -1.5032,0.395902 -15.55726,10.855155 -23.56423,17.536857 -11.760359,9.813863 -21.515303,21.23687 -26.029084,30.479978 -5.27493,10.801753 -6.147664,22.405919 -2.413387,32.089229 0.990508,2.56847 3.109895,6.17914 4.681754,7.97601 1.018813,1.16465 1.518748,1.4699 4.003934,2.44469 7.015347,2.75168 13.482715,4.63522 21.228303,6.18245 14.21621,2.8398 29.4126,4.00779 43.15444,3.31686 h 4e-5 c 18.67751,-0.93909 35.87447,-4.24774 49.05285,-9.43762 11.35897,-4.47338 19.64174,-10.97851 21.07411,-16.55124 0.51084,-1.98746 0.42588,-7.029063 -0.15717,-9.326257 -0.56242,-2.215897 -2.09668,-5.606964 -3.49448,-7.723587 -2.1718,-3.288647 -6.76042,-7.496524 -11.01367,-10.099799 -7.99099,-4.891026 -19.85155,-8.726904 -31.54421,-10.201856 -6.39115,-0.806201 -17.22061,-1.174008 -22.83434,-0.775534 l -2.41042,0.171096 -2.45887,2.113134 c -3.82512,3.287279 -12.07607,11.729523 -13.83595,14.156731 -3.20597,4.421628 -4.89479,8.251962 -4.89479,11.101623 v 1.464192 l 1.38906,-0.171652 c 3.07219,-0.379641 12.44496,-0.483537 17.13177,-0.189903 6.16027,0.385948 6.9536,0.500161 16.17888,2.32924 l 7.57993,1.502852 1.86934,-0.73341 c 2.62557,-1.030102 5.53037,-2.845747 8.76768,-5.480234 3.98171,-3.240265 6.22234,-4.491578 9.12813,-5.097746 l 0.79375,-0.165582 -0.768,0.592926 c -0.42239,0.32611 -1.34146,1.039282 -2.04237,1.584827 -0.70091,0.545546 -2.35199,2.293885 -3.66907,3.885198 -3.49082,4.217652 -5.16431,5.636801 -8.60181,7.294491 -7.79001,3.75665 -19.88613,6.24891 -30.42708,6.26914 -8.6421,0.0166 -14.47042,-1.73671 -18.32148,-5.51151 -2.04202,-2.00158 -3.00193,-3.949065 -3.18116,-6.454022 -0.63818,-8.919461 7.12474,-18.787893 29.30784,-37.256916 17.23031,-14.345462 25.5053,-23.472988 30.88426,-34.066134 4.1906,-8.252828 5.85029,-15.657317 5.55064,-24.7634295 -0.35197,-10.6964117 -3.8397,-19.1360355 -10.84209,-26.2357155 -2.87984,-2.919852 -3.23432,-2.974279 -2.47378,-0.379831 0.22224,0.758116 0.36486,1.417599 0.31694,1.465519 -0.12681,0.126811 -2.6143,-3.810087 -3.38635,-5.359518 -0.36256,-0.727604 -1.23897,-2.751666 -1.9476,-4.497916 -1.59348,-3.926802 -3.64873,-7.049321 -6.36955,-9.677224 -7.33104,-7.080676 -16.38831,-9.166017 -25.58329,-5.890277 -4.41582,1.573148 -10.38711,5.16093 -14.25273,8.563596 l -1.57819,1.389176 0.59061,-1.161385 c 1.36504,-2.684204 3.7055,-5.548658 6.29751,-7.70742 0.63315,-0.527313 1.08195,-1.070751 0.99735,-1.20764 -0.49262,-0.797083 -7.58084,-3.224633 -11.12409,-3.809745 -3.11864,-0.514994 -8.85737,-0.375479 -12.02477,0.292338 -2.73234,0.576089 -7.971529,2.346804 -7.971529,2.694179 0,0.100344 0.506568,0.258409 1.125706,0.351254 2.534033,0.380001 4.861313,2.37514 6.138033,5.262031 1.95643,4.423841 1.90144,11.833586 -0.1172,15.790433 -0.29257,0.5735 -3.32457,9.5277 -16.676913,8.207558 z m 13.343263,17.5959584 c -0.60473,-0.9229393 -0.30876,-2.185761 0.82186,-3.5066343 1.03203,-1.2056928 3.27734,-2.4476579 4.42506,-2.4476579 0.83333,0 2.05269,1.0300068 2.05269,1.7339246 0,0.8558034 -0.88347,2.2729129 -1.9742,3.1666902 -2.1974,1.8006031 -4.53319,2.2627583 -5.32541,1.0536774 z m -22.173131,-4.920969 c -1.539476,-1.2109523 -2.497124,-4.7973574 -1.688908,-6.3249894 0.791357,-1.495767 2.672795,-0.748426 3.6635,1.455208 1.587293,3.5306304 0.314267,6.6701975 -1.974592,4.8697814 z m -8.320126,122.5952596 -0.704006,-1.7839 -0.08289,1.15372 c -0.06492,0.90364 0.04544,1.29032 0.509142,1.78391 0.958155,1.01991 1.025372,0.7407 0.277751,-1.15373 z m 75.363697,-9.33128 c 4.06276,-0.27473 9.58296,-0.95566 10.42591,-1.28606 0.59066,-0.23151 -5.75917,-0.98412 -11.48424,-1.36116 -2.11005,-0.13896 -6.63443,-0.24419 -10.05417,-0.23384 l -6.21771,0.0188 1.84684,0.87819 c 2.17389,1.03371 5.16159,1.73514 8.47191,1.989 1.30969,0.10043 2.55985,0.19878 2.77813,0.21855 0.21828,0.0198 2.12328,-0.0808 4.23333,-0.22349 z M 71.290398,52.968941 c 4.563839,-2.727523 8.477595,-8.485174 11.735224,-17.264061 2.023216,-5.452306 4.655691,-9.411105 9.08528,-13.66273 1.449035,-1.390819 3.632694,-3.190239 4.852576,-3.99871 2.390332,-1.584182 7.972532,-4.695851 8.424152,-4.695851 0.15186,0 0.27611,-0.10159 0.27611,-0.225756 0,-0.124166 -1.07055,-0.432639 -2.37899,-0.685497 l -2.37898,-0.459741 c -3.751248,0.136415 -8.437483,4.930338 -13.412968,8.953707 2.590107,-1.937983 1.941634,-5.411669 10.755906,-9.675703 0.07729,-0.03739 -0.834647,-0.555198 -1.846588,-1.043145 L 94.562229,9.3242761 91.844754,10.841998 c -7.949371,4.439758 -12.922381,9.024061 -20.226114,18.645174 -5.024552,6.618777 -8.269838,9.503409 -12.641628,11.23674 -1.011919,0.401207 -2.529966,0.792044 -3.373438,0.868527 -0.843471,0.07648 -1.533584,0.256321 -1.533584,0.399639 0,0.411098 7.537031,0.06096 9.392707,-0.436342 0.873125,-0.23399 2.703287,-0.982722 4.067027,-1.663849 3.154524,-1.575544 5.910129,-4.131621 9.174448,-8.510144 1.301946,-1.746337 2.39841,-3.143922 2.436588,-3.105744 0.03818,0.03818 -0.393774,1.07045 -0.959893,2.293939 -1.43618,3.103855 -1.976225,4.816595 -2.928999,9.28924 -1.234316,5.794307 -2.397682,8.782501 -4.780484,12.279044 -0.73283,1.075359 -1.271691,1.955199 -1.197471,1.955199 0.07422,0 0.981639,-0.506016 2.016485,-1.12448 z M 117.43769,21.162713 c 4.8083,-1.421315 10.68729,-4.771024 15.96547,-9.096731 1.35944,-1.114126 2.66044,-2.1732821 2.8911,-2.3536795 0.84596,-0.6616073 0.10385,-0.5490158 -3.06029,0.4643025 -5.44966,1.745259 -10.95346,2.764115 -16.9869,3.144589 l -3.57188,0.225246 -5.37151,2.681788 c -3.03755,1.516529 -5.29995,2.797597 -5.2068,2.948315 0.28552,0.461981 2.82761,1.654417 4.88977,2.293678 2.73395,0.847511 6.96476,0.723025 10.45104,-0.307508 z m 29.01916,-30.1065994 c 4.84999,-1.7782586 7.91978,-5.2984616 9.51732,-10.9137306 0.79633,-2.799038 0.87831,-8.84255 0.15614,-11.509375 -1.05572,-3.898515 -3.2621,-7.121819 -6.10789,-8.92301 -3.58579,-2.26956 -9.09636,-2.245462 -13.02515,0.05696 -2.75479,1.614417 -6.03392,5.575785 -7.66101,9.254921 -1.64066,3.709824 -2.17556,8.937045 -1.28513,12.558808 1.20783,4.912819 4.94697,8.7048842 9.79495,9.9335973 2.31025,0.5855275 6.35054,0.3705473 8.61077,-0.4581707 z M 89.987175,-24.125422 c 9.500235,-0.673036 12.391945,-2.705851 13.134565,-10.912081 0.34434,-1.200628 -0.19857,-5.64526 -0.92755,-7.593642 -1.24921,-3.338793 -3.884733,-4.956541 -7.140556,-4.383039 -5.965236,1.050756 -11.03381,8.02591 -12.403875,17.069683 -0.173637,1.146172 -0.241217,2.480993 -0.150179,2.966268 0.201535,1.074274 1.467474,2.397432 2.610064,2.728036 0.973284,0.281616 3.972484,0.147117 4.877531,0.124775 z"
       id="path1"
       sodipodi:nodetypes="sssssscssscsscsssssssscssssssssssssssssssssscssscssssscsssssssssssssssssssssssssscssssssscsssccssssssssscssssssssssccsssssccsscssssssssscccccssscssssssscsssssssssssssssssssscssscssscssscsssssssssssssssssscsssssssscsssssssssssccsssssssscsssssssssssccssscssssssssssssssssssscssssssssssssscssssss"
       inkscape:label="Outline" /></g></svg>
