<?xml version="1.0" encoding="UTF-8" standalone="no"?>
<!-- Created with Inkscape (http://www.inkscape.org/) -->

<svg
   width="208.87976mm"
   height="41.804169mm"
   viewBox="0 0 208.87976 41.804169"
   version="1.1"
   id="svg1"
   inkscape:version="1.4.2 (f4327f4, 2025-05-13)"
   sodipodi:docname="ESPRESSIDEA_001.svg"
   xmlns:inkscape="http://www.inkscape.org/namespaces/inkscape"
   xmlns:sodipodi="http://sodipodi.sourceforge.net/DTD/sodipodi-0.dtd"
   xmlns="http://www.w3.org/2000/svg"
   xmlns:svg="http://www.w3.org/2000/svg">
  <sodipodi:namedview
     id="namedview1"
     pagecolor="#ffffff"
     bordercolor="#000000"
     borderopacity="0.25"
     inkscape:showpageshadow="2"
     inkscape:pageopacity="0.0"
     inkscape:pagecheckerboard="0"
     inkscape:deskcolor="#d1d1d1"
     inkscape:document-units="mm"
     inkscape:zoom="2.8284271"
     inkscape:cx="558.43758"
     inkscape:cy="73.715882"
     inkscape:window-width="2560"
     inkscape:window-height="1494"
     inkscape:window-x="-11"
     inkscape:window-y="-11"
     inkscape:window-maximized="1"
     inkscape:current-layer="layer2" />
  <defs
     id="defs1">
    <inkscape:path-effect
       effect="fillet_chamfer"
       id="path-effect34"
       is_visible="true"
       lpeversion="1"
       nodesatellites_param="F,0,0,1,0,2.1050187,0,1 @ F,0,0,1,0,0,0,1 @ F,0,0,1,0,0,0,1 @ F,0,0,1,0,0,0,1 @ F,0,0,1,0,0,0,1 @ F,0,0,1,0,0,0,1 @ F,0,0,1,0,0,0,1 @ F,0,0,1,0,2.1050187,0,1 | F,0,0,1,0,0.82348224,0,1 @ F,0,0,1,0,0,0,1 @ F,0,0,1,0,0,0,1"
       radius="0"
       unit="px"
       method="auto"
       mode="F"
       chamfer_steps="1"
       flexible="false"
       use_knot_distance="true"
       apply_no_radius="true"
       apply_with_radius="true"
       only_selected="false"
       hide_knots="false" />
    <inkscape:path-effect
       effect="fillet_chamfer"
       id="path-effect37"
       is_visible="true"
       lpeversion="1"
       nodesatellites_param="F,0,0,1,0,0,0,1 @ F,0,0,1,0,0,0,1 @ F,0,0,1,0,0,0,1 @ F,0,0,1,0,0,0,1 @ F,0,0,1,0,4.5691678,0,1 @ F,0,0,1,0,4.5691678,0,1 | F,0,1,1,0,1.2902453,0,1 @ F,0,0,1,0,0,0,1 @ F,0,0,1,0,0,0,1 @ F,0,0,1,0,0,0,1 @ F,0,0,1,0,0,0,1 @ F,0,0,1,0,1.2902453,0,1"
       radius="0"
       unit="px"
       method="auto"
       mode="F"
       chamfer_steps="1"
       flexible="false"
       use_knot_distance="true"
       apply_no_radius="true"
       apply_with_radius="true"
       only_selected="false"
       hide_knots="false" />
    <inkscape:path-effect
       effect="fillet_chamfer"
       id="path-effect36"
       is_visible="true"
       lpeversion="1"
       nodesatellites_param="F,0,0,1,0,0,0,1 @ F,0,0,1,0,0,0,1 @ F,0,0,1,0,0,0,1 @ F,0,0,1,0,0,0,1 @ F,0,0,1,0,0,0,1 @ F,0,0,1,0,0,0,1 | F,0,0,1,0,0,0,1 @ F,0,0,1,0,0,0,1 @ F,0,0,1,0,0,0,1 @ F,0,0,1,0,0,0,1 @ F,0,0,1,0,0,0,1 @ F,0,0,1,0,0,0,1"
       radius="0"
       unit="px"
       method="auto"
       mode="F"
       chamfer_steps="1"
       flexible="false"
       use_knot_distance="true"
       apply_no_radius="true"
       apply_with_radius="true"
       only_selected="false"
       hide_knots="false" />
  </defs>
  <g
     inkscape:label="Capa 1"
     inkscape:groupmode="layer"
     id="layer1"
     transform="translate(24.870833,-68.050829)">
    <path
       d="m 103.31979,86.439375 h -6.164792 c -0.79375,0 -1.428749,-0.635 -1.428749,-1.42875 v -4.074583 c 0,-0.79375 0.449791,-1.508125 1.269999,-1.508125 h 9.895422 V 75.72375 H 96.33479 c -1.11125,0 -2.354791,0.449792 -3.201458,1.27 -0.846667,0.820208 -1.402292,2.010833 -1.402292,3.518958 v 5.476875 c 0,2.566458 2.090209,4.656667 4.656667,4.656667 h 6.164793 c 0.79375,0 1.42875,0.635 1.42875,1.42875 v 4.894791 c 0,0.79375 -0.44979,1.508125 -1.27,1.508125 H 91.757499 v 3.704164 h 11.615211 c 1.11125,0 2.35479,-0.44979 3.20146,-1.27 0.84666,-0.82021 1.40229,-2.01083 1.40229,-3.518955 v -6.297084 c 0,-2.566458 -2.09021,-4.656666 -4.65667,-4.656666"
       id="path12"
       style="stroke-width:0.264583"
       inkscape:label="S2" />
    <path
       d="m 83.819999,86.439375 h -6.164792 c -0.79375,0 -1.42875,-0.635 -1.42875,-1.42875 v -4.074583 c 0,-0.79375 0.449792,-1.508125 1.27,-1.508125 h 9.895417 V 75.72375 H 76.834999 c -1.11125,0 -2.354792,0.449792 -3.201459,1.27 -0.846666,0.820208 -1.402291,2.010833 -1.402291,3.518958 v 5.476875 c 0,2.566458 2.090208,4.656667 4.656666,4.656667 h 6.164792 c 0.79375,0 1.42875,0.635 1.42875,1.42875 v 4.894791 c 0,0.79375 -0.449792,1.508125 -1.27,1.508125 h -10.95375 v 3.704164 h 11.615208 c 1.11125,0 2.354792,-0.44979 3.201459,-1.27 0.846666,-0.82021 1.402291,-2.01083 1.402291,-3.518955 v -6.297084 c 0,-2.566458 -2.090208,-4.656666 -4.656666,-4.656666"
       id="path11"
       style="stroke-width:0.264583"
       inkscape:label="S1" />
    <path
       d="m 54.848124,76.967292 c -0.846667,0.820208 -1.402292,2.010833 -1.402292,3.518958 v 16.906875 c 0,1.508125 0.555625,2.698745 1.402292,3.518955 0.846667,0.82021 2.06375,1.27 3.201458,1.27 H 68.765207 V 98.477916 H 58.684582 c -0.820208,0 -1.27,-0.714375 -1.27,-1.508125 v -6.82625 h 9.921875 v -3.704166 h -9.921875 v -5.503333 c 0,-0.79375 0.449792,-1.508125 1.27,-1.508125 H 68.765207 V 75.72375 H 58.049582 c -1.11125,0 -2.354791,0.423333 -3.201458,1.243542"
       id="path10"
       style="stroke-width:0.264583"
       inkscape:label="E1" />
    <path
       d="m 47.201666,91.096041 c 0.449791,-0.211666 0.873125,-0.47625 1.217083,-0.820208 0.846667,-0.820208 1.402292,-2.010833 1.402292,-3.518958 v -6.297083 c 0,-1.508125 -0.555625,-2.69875 -1.402292,-3.518959 -0.846667,-0.820208 -2.06375,-1.27 -3.201458,-1.27 l -11.456458,0.05292 v 26.458327 h 3.96875 V 91.545833 h 4.101041 c 1.031875,0.05292 2.963333,0.47625 3.545417,3.122083 l 1.561041,7.514164 4.339167,-0.0265 -1.640417,-7.06437 C 49.133124,92.842291 48.339374,91.678125 47.201666,91.096041 M 37.729583,79.427917 v -0.02646 h 6.826249 c 0.820209,0 1.27,0.714375 1.27,1.508125 v 5.423958 c 0,0.79375 -0.449791,1.508125 -1.27,1.508125 h -6.826249 z"
       id="path6"
       style="stroke-width:0.264583"
       inkscape:label="R" />
    <path
       d="m 25.770416,75.697292 -12.038541,0.02646 v 26.458328 h 3.968749 V 91.889791 h 8.043334 c 1.11125,0 2.354791,-0.449791 3.201458,-1.27 0.846667,-0.820208 1.402292,-2.010833 1.402292,-3.518958 v -6.641041 c 0,-1.508125 -0.555625,-2.69875 -1.402292,-3.518959 -0.820208,-0.820208 -2.06375,-1.243541 -3.175,-1.243541 m 0.635,10.980208 c 0,0.79375 -0.449792,1.508125 -1.27,1.508125 h -7.408333 v -8.757708 -0.02646 h 7.408333 c 0.820208,0 1.27,0.714375 1.27,1.508125 z"
       id="path13"
       style="stroke-width:0.264583"
       inkscape:label="P" />
    <path
       d="m 5.503333,86.439375 h -6.16479161 c -0.79374999,0 -1.42874999,-0.635 -1.42874999,-1.42875 v -4.074583 c 0,-0.79375 0.4497917,-1.508125 1.26999999,-1.508125 H 9.0752079 V 75.72375 H -1.4816669 c -1.11125,0 -2.3547917,0.449792 -3.2014583,1.27 -0.8466667,0.820208 -1.4022917,2.010833 -1.4022917,3.518958 v 5.476875 c 0,2.566458 2.0902083,4.656667 4.6566666,4.656667 h 6.1647916 c 0.79375,0 1.42875,0.635 1.42875,1.42875 v 4.894791 c 0,0.79375 -0.4497917,1.508125 -1.27,1.508125 H -6.0589585 v 3.704164 H 5.5562496 c 1.11125,0 2.3547917,-0.44979 3.2014583,-1.27 C 9.6043746,100.09187 10.16,98.90125 10.16,97.393125 v -6.297084 c 0,-2.566458 -2.0902087,-4.656666 -4.656667,-4.656666"
       id="path9"
       style="stroke-width:0.264583"
       inkscape:label="S0" />
    <path
       d="m -23.468542,76.967292 c -0.846666,0.820208 -1.402291,2.010833 -1.402291,3.518958 v 16.906875 c 0,1.508125 0.555625,2.698745 1.402291,3.518955 0.846667,0.82021 2.06375,1.27 3.201459,1.27 H -9.5514585 V 98.477916 H -19.632083 c -0.820209,0 -1.27,-0.714375 -1.27,-1.508125 v -6.82625 h 9.921875 v -3.704166 h -9.921875 v -5.503333 c 0,-0.79375 0.449791,-1.508125 1.27,-1.508125 H -9.5514585 V 75.72375 H -20.267083 c -1.11125,0 -2.354792,0.423333 -3.201459,1.243542"
       id="path7"
       style="stroke-width:0.264583"
       inkscape:label="E0" />
  </g>
  <g
     inkscape:groupmode="layer"
     id="g45"
     inkscape:label="IDEA copia"
     style="display:none"
     transform="translate(3e-6,7.6200034)">
    <rect
       style="display:inline;fill:#ff0000;fill-opacity:1;stroke-width:0.204214"
       id="rect41"
       width="74.711472"
       height="41.804165"
       x="52.676868"
       y="59.55864"
       inkscape:label="Backdrop" />
    <g
       id="g44"
       transform="translate(-0.56428763,0.52916667)"
       inkscape:label="Letras">
      <path
         id="path41"
         style="font-weight:500;font-size:35.2778px;font-family:'Neo Sans Std';-inkscape-font-specification:'Neo Sans Std, Medium';display:inline;stroke-width:0.264583"
         inkscape:label="A Turbo"
         d="m 162.42973,77.724031 -6.44028,24.457849 h 4.60592 l 1.76681,-7.3024 h 8.16281 l 1.76682,7.3024 h 4.60592 l -6.44029,-24.457849 a 2.7310733,2.7310733 37.623817 0 0 -2.64105,-2.035628 h -2.74561 a 2.7310723,2.7310723 142.37617 0 0 -2.64105,2.035628 z m 4.21253,1.346834 2.93034,11.787155 h -6.25802 l 2.93034,-11.787155 a 0.20472114,0.20472114 0 0 1 0.39734,0 z"
         sodipodi:nodetypes="ccccccccccccc"
         transform="translate(-53.463672,-9.003587)" />
      <path
         id="path42"
         style="display:none;stroke-width:0.264583"
         inkscape:label="A"
         d="m 108.07194,66.742181 c -2.14428,0 -4.60385,1.580355 -4.60385,4.788855 v 21.589892 h 3.96875 V 81.161976 h 11.08615 v 11.958952 h 3.96875 V 71.531036 c 0,-3.21149 -2.46159,-4.788855 -4.60385,-4.788855 z m 0.6351,3.704165 h 8.54626 c 0.82021,0 1.26969,0.71417 1.26969,1.50792 v 5.50354 h -11.08615 v -5.50354 c 0,-0.79375 0.44999,-1.50792 1.2702,-1.50792 z"
         sodipodi:nodetypes="ssccccccssssssccss" />
      <path
         d="m 87.130836,67.945933 c -0.84666,0.820208 -1.40229,2.010833 -1.40229,3.518958 v 16.906874 c 0,1.50813 0.55563,2.698742 1.40229,3.518952 0.84667,0.82021 2.06375,1.27 3.20146,1.27 H 101.04793 V 89.456555 H 90.967296 c -0.82021,0 -1.27,-0.71437 -1.27,-1.50812 v -6.826253 h 9.921887 v -3.704166 h -9.921887 v -5.503333 c 0,-0.79375 0.44979,-1.508125 1.27,-1.508125 H 101.04793 V 66.702391 H 90.332296 c -1.11125,0 -2.35479,0.423333 -3.20146,1.243542"
         id="path43"
         style="display:inline;stroke-width:0.264583"
         inkscape:label="E2" />
      <path
         id="path44"
         style="display:inline;fill:#000000;fill-opacity:1;stroke-width:0.264583"
         inkscape:label="D"
         d="m 90.98101,121.11664 v 0.0263 26.43198 0.0264 h 12.04687 a 4.5691678,4.5691678 135 0 0 4.56917,-4.56917 V 125.6858 a 4.5691651,4.5691651 44.999983 0 0 -4.56917,-4.56917 z m 11.38341,22.75809 -7.387788,0.0225 v -0.0264 -19.02364 -0.0264 l 7.387788,0.0225 a 1.2941764,1.2941764 45.087151 0 1 1.29024,1.29418 v 16.44314 a 1.2941764,1.2941764 134.91285 0 1 -1.29024,1.29418 z"
         sodipodi:nodetypes="cccccccccccccc"
         transform="translate(-24.092176,-54.427422)" />
      <rect
         x="59.876392"
         y="66.715614"
         width="3.96875"
         height="26.431875"
         id="rect44"
         style="display:inline;stroke-width:0.264583"
         inkscape:label="I" />
    </g>
  </g>
  <g
     inkscape:groupmode="layer"
     id="layer2"
     inkscape:label="IDEA"
     style="display:inline"
     transform="translate(3e-6,7.6200034)">
    <path
       id="rect34"
       style="display:inline;fill:#ff0000;fill-opacity:1;stroke-width:0.204214"
       inkscape:label="Backdrop"
       d="M 134.16855,-7.6200037 V 34.184167 h 74.71121 V -7.6200037 Z m 58.36595,7.655346 h 2.74557 a 2.7310733,2.7310733 0 0 1 2.64119,2.035535 l 6.44043,24.4579377 h -4.60592 l -1.76682,-7.302396 h -8.16281 l -1.76681,7.302396 h -4.60592 l 6.43991,-24.4579377 a 2.7310723,2.7310723 0 0 1 2.64118,-2.035535 z m -32.67139,0.0041 a 4.5691651,4.5691651 0 0 1 4.56923,4.56923 V 21.955417 a 4.5691678,4.5691678 0 0 1 -4.56923,4.568714 H 147.8163 v -0.02636 -26.4319787 -0.02584 z m 11.39672,0.01344 h 10.71563 v 3.704167 h -10.08104 c -0.82021,0 -1.26969,0.714168 -1.26969,1.507918 v 5.5035397 h 9.92187 v 3.704167 h -9.92187 v 6.826457 c 0,0.79375 0.44948,1.507918 1.26969,1.507918 h 10.08104 v 3.704167 h -10.71563 c -1.13771,0 -2.3552,-0.449997 -3.20187,-1.270207 -0.84666,-0.82021 -1.40198,-2.010518 -1.40198,-3.518648 V 4.8154123 c 0,-1.508125 0.55532,-2.698957 1.40198,-3.519165 0.84667,-0.820209 2.09062,-1.243335 3.20187,-1.243335 z m -30.45602,0.01344 h 3.96875 V 26.497784 h -3.96875 z m 53.08927,3.196704 a 0.20472114,0.20472114 0 0 0 -0.18449,0.154513 l -2.93005,11.7873937 h 6.25802 L 194.10598,3.4175393 a 0.20472114,0.20472114 0 0 0 -0.2129,-0.154513 z m -42.08116,0.480591 v 0.02687 19.0236447 0.02635 l 7.38766,-0.02274 a 1.2941764,1.2941764 0 0 0 1.29037,-1.293978 V 5.0603583 a 1.2941764,1.2941764 0 0 0 -1.29037,-1.293977 z" />
    <g
       id="g57"
       transform="translate(80.927266,-66.649473)"
       inkscape:label="Letras"
       style="display:inline">
      <path
         id="path54"
         style="font-weight:500;font-size:35.2778px;font-family:'Neo Sans Std';-inkscape-font-specification:'Neo Sans Std, Medium';display:inline;stroke-width:0.264583"
         inkscape:label="A Turbo"
         d="m 162.42973,77.724031 -6.44028,24.457849 h 4.60592 l 1.76681,-7.3024 h 8.16281 l 1.76682,7.3024 h 4.60592 l -6.44029,-24.457849 a 2.7310733,2.7310733 37.623817 0 0 -2.64105,-2.035628 h -2.74561 a 2.7310723,2.7310723 142.37617 0 0 -2.64105,2.035628 z m 4.21253,1.346834 2.93034,11.787155 h -6.25802 l 2.93034,-11.787155 a 0.20472114,0.20472114 0 0 1 0.39734,0 z"
         sodipodi:nodetypes="ccccccccccccc"
         transform="translate(-53.463672,-9.003587)" />
      <path
         id="path55"
         style="display:none;stroke-width:0.264583"
         inkscape:label="A"
         d="m 108.07194,66.742181 c -2.14428,0 -4.60385,1.580355 -4.60385,4.788855 v 21.589892 h 3.96875 V 81.161976 h 11.08615 v 11.958952 h 3.96875 V 71.531036 c 0,-3.21149 -2.46159,-4.788855 -4.60385,-4.788855 z m 0.6351,3.704165 h 8.54626 c 0.82021,0 1.26969,0.71417 1.26969,1.50792 v 5.50354 h -11.08615 v -5.50354 c 0,-0.79375 0.44999,-1.50792 1.2702,-1.50792 z"
         sodipodi:nodetypes="ssccccccssssssccss" />
      <path
         d="m 87.130836,67.945933 c -0.84666,0.820208 -1.40229,2.010833 -1.40229,3.518958 v 16.906874 c 0,1.50813 0.55563,2.698742 1.40229,3.518952 0.84667,0.82021 2.06375,1.27 3.20146,1.27 H 101.04793 V 89.456555 H 90.967296 c -0.82021,0 -1.27,-0.71437 -1.27,-1.50812 v -6.826253 h 9.921887 v -3.704166 h -9.921887 v -5.503333 c 0,-0.79375 0.44979,-1.508125 1.27,-1.508125 H 101.04793 V 66.702391 H 90.332296 c -1.11125,0 -2.35479,0.423333 -3.20146,1.243542"
         id="path56"
         style="display:inline;stroke-width:0.264583"
         inkscape:label="E2" />
      <path
         id="path57"
         style="display:inline;fill:#000000;fill-opacity:1;stroke-width:0.264583"
         inkscape:label="D"
         d="m 90.98101,121.11664 v 0.0263 26.43198 0.0264 h 12.04687 a 4.5691678,4.5691678 135 0 0 4.56917,-4.56917 V 125.6858 a 4.5691651,4.5691651 44.999983 0 0 -4.56917,-4.56917 z m 11.38341,22.75809 -7.387788,0.0225 v -0.0264 -19.02364 -0.0264 l 7.387788,0.0225 a 1.2941764,1.2941764 45.087151 0 1 1.29024,1.29418 v 16.44314 a 1.2941764,1.2941764 134.91285 0 1 -1.29024,1.29418 z"
         sodipodi:nodetypes="cccccccccccccc"
         transform="translate(-24.092176,-54.427422)" />
      <rect
         x="59.876392"
         y="66.715614"
         width="3.96875"
         height="26.431875"
         id="rect57"
         style="display:inline;stroke-width:0.264583"
         inkscape:label="I" />
    </g>
  </g>
  <g
     inkscape:groupmode="layer"
     id="g54"
     inkscape:label="IDEA Chafa"
     style="display:none"
     transform="translate(3e-6,7.6200034)">
    <path
       id="rect50"
       style="display:inline;fill:#ff0000;fill-opacity:1;stroke-width:0.204214"
       inkscape:label="Backdrop"
       d="M 134.16855,-7.6200034 V 34.184167 h 74.71121 V -7.6200034 Z m 25.69456,7.65948007 a 4.5691651,4.5691651 0 0 1 4.56923,4.56922993 V 21.955451 a 4.5691678,4.5691678 0 0 1 -4.56923,4.568714 H 147.8163 v -0.02635 -26.43197833 -0.025838 z m 11.39672,0.013436 h 10.71563 V 3.7570796 h -10.08104 c -0.82021,0 -1.26969,0.714168 -1.26969,1.507918 v 5.5035394 h 9.92187 v 3.704167 h -9.92187 v 6.826457 c 0,0.79375 0.44948,1.507918 1.26969,1.507918 h 10.08104 v 3.704167 h -10.71563 c -1.13771,0 -2.3552,-0.449997 -3.20187,-1.270207 -0.84666,-0.82021 -1.40198,-2.010518 -1.40198,-3.518648 V 4.8154126 c 0,-1.508125 0.55532,-2.698957 1.40198,-3.519165 0.84667,-0.82020893 2.09062,-1.24333493 3.20187,-1.24333493 z m -30.45602,0.013436 h 3.96875 V 26.49781 h -3.96875 z m 48.19551,0.026355 h 9.81594 c 2.14226,0 4.60385,1.57736493 4.60385,4.78885493 V 26.471455 h -3.96875 v -11.95896 h -11.08614 v 11.95896 h -3.96875 V 4.8815586 c 0,-3.2085 2.45957,-4.78885493 4.60385,-4.78885493 z m -37.1874,3.65093993 v 0.026872 19.0236444 0.02636 l 7.38766,-0.02274 a 1.2941764,1.2941764 0 0 0 1.29037,-1.293978 V 5.0603586 a 1.2941764,1.2941764 0 0 0 -1.29037,-1.293977 z m 37.8225,0.053227 c -0.82021,0 -1.2702,0.714168 -1.2702,1.507918 v 5.5035394 h 11.08614 V 5.3047886 c 0,-0.79375 -0.44948,-1.507918 -1.26969,-1.507918 z" />
  </g>
</svg>
