<?xml version="1.0" encoding="UTF-8" standalone="no"?>
<!-- Created with Inkscape (http://www.inkscape.org/) -->

<svg
   width="262.04819mm"
   height="50.218243mm"
   viewBox="0 0 262.04819 50.218244"
   version="1.1"
   id="svg1"
   inkscape:version="1.4.2 (f4327f4, 2025-05-13)"
   sodipodi:docname="ESPRESSIDEA_003.svg"
   inkscape:export-filename="ESPRESSIDEA_003_pals.png"
   inkscape:export-xdpi="96"
   inkscape:export-ydpi="96"
   xmlns:inkscape="http://www.inkscape.org/namespaces/inkscape"
   xmlns:sodipodi="http://sodipodi.sourceforge.net/DTD/sodipodi-0.dtd"
   xmlns="http://www.w3.org/2000/svg"
   xmlns:svg="http://www.w3.org/2000/svg">
  <sodipodi:namedview
     id="namedview1"
     pagecolor="#ffffff"
     bordercolor="#000000"
     borderopacity="0.25"
     inkscape:showpageshadow="2"
     inkscape:pageopacity="0.0"
     inkscape:pagecheckerboard="0"
     inkscape:deskcolor="#d1d1d1"
     inkscape:document-units="mm"
     inkscape:zoom="1"
     inkscape:cx="550.99999"
     inkscape:cy="248.49999"
     inkscape:window-width="2560"
     inkscape:window-height="1494"
     inkscape:window-x="-11"
     inkscape:window-y="-11"
     inkscape:window-maximized="1"
     inkscape:current-layer="g17"
     inkscape:export-bgcolor="#ffffffff" />
  <defs
     id="defs1">
    <inkscape:path-effect
       effect="fillet_chamfer"
       id="path-effect34"
       is_visible="true"
       lpeversion="1"
       nodesatellites_param="F,0,0,1,0,2.1050187,0,1 @ F,0,0,1,0,0,0,1 @ F,0,0,1,0,0,0,1 @ F,0,0,1,0,0,0,1 @ F,0,0,1,0,0,0,1 @ F,0,0,1,0,0,0,1 @ F,0,0,1,0,0,0,1 @ F,0,0,1,0,2.1050187,0,1 | F,0,0,1,0,0.82348224,0,1 @ F,0,0,1,0,0,0,1 @ F,0,0,1,0,0,0,1"
       radius="0"
       unit="px"
       method="auto"
       mode="F"
       chamfer_steps="1"
       flexible="false"
       use_knot_distance="true"
       apply_no_radius="true"
       apply_with_radius="true"
       only_selected="false"
       hide_knots="false" />
    <inkscape:path-effect
       effect="fillet_chamfer"
       id="path-effect37"
       is_visible="true"
       lpeversion="1"
       nodesatellites_param="F,0,0,1,0,0,0,1 @ F,0,0,1,0,0,0,1 @ F,0,0,1,0,0,0,1 @ F,0,0,1,0,0,0,1 @ F,0,0,1,0,4.5691678,0,1 @ F,0,0,1,0,4.5691678,0,1 | F,0,1,1,0,1.2902453,0,1 @ F,0,0,1,0,0,0,1 @ F,0,0,1,0,0,0,1 @ F,0,0,1,0,0,0,1 @ F,0,0,1,0,0,0,1 @ F,0,0,1,0,1.2902453,0,1"
       radius="0"
       unit="px"
       method="auto"
       mode="F"
       chamfer_steps="1"
       flexible="false"
       use_knot_distance="true"
       apply_no_radius="true"
       apply_with_radius="true"
       only_selected="false"
       hide_knots="false" />
    <inkscape:path-effect
       effect="fillet_chamfer"
       id="path-effect36"
       is_visible="true"
       lpeversion="1"
       nodesatellites_param="F,0,0,1,0,0,0,1 @ F,0,0,1,0,0,0,1 @ F,0,0,1,0,0,0,1 @ F,0,0,1,0,0,0,1 @ F,0,0,1,0,0,0,1 @ F,0,0,1,0,0,0,1 | F,0,0,1,0,0,0,1 @ F,0,0,1,0,0,0,1 @ F,0,0,1,0,0,0,1 @ F,0,0,1,0,0,0,1 @ F,0,0,1,0,0,0,1 @ F,0,0,1,0,0,0,1"
       radius="0"
       unit="px"
       method="auto"
       mode="F"
       chamfer_steps="1"
       flexible="false"
       use_knot_distance="true"
       apply_no_radius="true"
       apply_with_radius="true"
       only_selected="false"
       hide_knots="false" />
    <clipPath
       clipPathUnits="userSpaceOnUse"
       id="clipath_lpe_path-effect6">
      <path
         id="lpe_path-effect6"
         style="baseline-shift:baseline;display:inline;overflow:visible;opacity:1;vector-effect:none;fill:#e8362d;stroke-width:1;stroke-linecap:round;stroke-linejoin:round;enable-background:accumulate;stop-color:#000000;stop-opacity:1"
         class="powerclip"
         d="M -41.671059,394.22164 H 187.21763 V 623.11033 H -41.671059 Z m 80.573593,29.47962 c -18.831099,-0.70966 -32.2882208,9.74307 -33.9198925,23.03891 -1.4112808,11.49996 6.4061735,23.25712 21.9195915,29.27729 -3.290916,1.08929 -6.359644,2.56222 -8.94519,4.58007 -6.392904,4.9893 -10.4278747,12.21943 -11.8731765,19.84997 -1.4453021,7.6305 -0.3042153,15.83068 4.1604695,22.62859 2.017562,3.07192 4.816064,5.71516 8.142139,7.89874 -4.602039,2.27817 -9.9230738,5.66142 -16.619141,11.86905 a 5.5005499,5.5005499 0 0 0 -0.046509,0.0449 c -4.0280983,3.82312 -6.2520968,8.66381 -7.8909911,16.2946 -0.9809342,4.56732 -0.3256245,3.06787 -2.3554118,5.98258 -2.2737831,3.26506 -3.5381551,6.60143 -3.5527551,9.64231 -0.0091,1.97583 0.555975,4.45331 1.416451,6.20118 2.5815505,5.24388 7.7626295,8.55027 13.6461958,9.7932 7.8175272,1.65148 16.4534242,-0.0103 25.0666872,-4.11707 11.959783,-5.70249 18.76516,-13.81202 25.726596,-25.99013 l 3.0055,-3.17966 c 5.701046,-4.31506 9.793534,-9.01538 12.310877,-13.93766 1.15901,6.69888 4.577014,12.34469 9.33173,16.11892 5.902243,4.68508 13.476155,6.81434 21.015772,6.38513 7.539614,-0.42918 15.186574,-3.50128 20.861254,-9.58027 3.84658,-4.12065 6.54973,-9.66957 7.88893,-16.24605 2.30411,4.47569 5.95373,9.12405 11.92175,11.11922 6.49271,2.17056 14.53372,0.27805 22.78672,-6.27145 8.253,-6.54949 17.46349,-17.77005 28.40085,-36.14457 a 5.5005499,5.5005499 0 0 0 -8.56485,-6.75203 c -8.79783,8.57441 -15.40674,14.48387 -20.2246,18.20095 -4.2956,3.31415 -6.99172,4.52657 -8.00933,4.85344 -0.4402,-1.01677 -1.05612,-3.41162 -1.72083,-6.48436 0.19269,-30.16289 -16.71625,-54.56174 -39.12733,-70.81996 C 91.096661,431.5928 62.963581,422.91849 38.902534,423.70126 Z m 3.995624,51.13282 2e-6,-9e-4 c 0.03565,0.007 0.06848,0.0152 0.105934,0.0212 0.01272,0.003 0.02399,0 0.03669,0.003 z m 51.27077,95.06807 c -2.792584,0.19043 -5.397627,0.60598 -8.202083,1.27953 -5.399794,1.2968 -9.7477,4.37663 -14.982547,10.16577 -3.133294,3.46509 -1.816066,2.49306 -5.031219,4.00235 -3.601794,1.69079 -6.363539,3.94957 -7.896675,6.57582 -0.99641,1.70688 -1.746125,4.13705 -1.874819,6.08026 -0.386244,5.832 2.447957,11.28453 6.922056,15.30294 5.94451,5.33906 14.254885,8.2164 23.767542,8.96639 2.795217,0.22037 5.265116,-1.89344 7.400065,-5.3847 8.851302,-0.51969 16.088682,-3.65143 25.786542,-9.37564 5.53008,-9.9478 -3.03237,-27.4456 -8.82117,-31.30404 -1.2943,0.91691 -2.74589,-0.24559 -7.11068,-0.67025 0.12885,-3.3941 -0.0781,-5.53302 -0.62993,-5.56815 -3.554495,-0.22622 -6.534494,-0.26067 -9.327082,-0.0703 z" />
    </clipPath>
  </defs>
  <g
     inkscape:label="Capa 1"
     inkscape:groupmode="layer"
     id="layer1"
     transform="translate(79.626767,-59.636755)">
    <path
       d="m 103.31979,86.439375 h -6.164792 c -0.79375,0 -1.428749,-0.635 -1.428749,-1.42875 v -4.074583 c 0,-0.79375 0.449791,-1.508125 1.269999,-1.508125 h 9.895422 V 75.72375 H 96.33479 c -1.11125,0 -2.354791,0.449792 -3.201458,1.27 -0.846667,0.820208 -1.402292,2.010833 -1.402292,3.518958 v 5.476875 c 0,2.566458 2.090209,4.656667 4.656667,4.656667 h 6.164793 c 0.79375,0 1.42875,0.635 1.42875,1.42875 v 4.894791 c 0,0.79375 -0.44979,1.508125 -1.27,1.508125 H 91.757499 v 3.704164 h 11.615211 c 1.11125,0 2.35479,-0.44979 3.20146,-1.27 0.84666,-0.82021 1.40229,-2.01083 1.40229,-3.518955 v -6.297084 c 0,-2.566458 -2.09021,-4.656666 -4.65667,-4.656666"
       id="path12"
       style="stroke-width:0.264583"
       inkscape:label="S2" />
    <path
       d="m 83.819999,86.439375 h -6.164792 c -0.79375,0 -1.42875,-0.635 -1.42875,-1.42875 v -4.074583 c 0,-0.79375 0.449792,-1.508125 1.27,-1.508125 h 9.895417 V 75.72375 H 76.834999 c -1.11125,0 -2.354792,0.449792 -3.201459,1.27 -0.846666,0.820208 -1.402291,2.010833 -1.402291,3.518958 v 5.476875 c 0,2.566458 2.090208,4.656667 4.656666,4.656667 h 6.164792 c 0.79375,0 1.42875,0.635 1.42875,1.42875 v 4.894791 c 0,0.79375 -0.449792,1.508125 -1.27,1.508125 h -10.95375 v 3.704164 h 11.615208 c 1.11125,0 2.354792,-0.44979 3.201459,-1.27 0.846666,-0.82021 1.402291,-2.01083 1.402291,-3.518955 v -6.297084 c 0,-2.566458 -2.090208,-4.656666 -4.656666,-4.656666"
       id="path11"
       style="stroke-width:0.264583"
       inkscape:label="S1" />
    <path
       d="m 54.848124,76.967292 c -0.846667,0.820208 -1.402292,2.010833 -1.402292,3.518958 v 16.906875 c 0,1.508125 0.555625,2.698745 1.402292,3.518955 0.846667,0.82021 2.06375,1.27 3.201458,1.27 H 68.765207 V 98.477916 H 58.684582 c -0.820208,0 -1.27,-0.714375 -1.27,-1.508125 v -6.82625 h 9.921875 v -3.704166 h -9.921875 v -5.503333 c 0,-0.79375 0.449792,-1.508125 1.27,-1.508125 H 68.765207 V 75.72375 H 58.049582 c -1.11125,0 -2.354791,0.423333 -3.201458,1.243542"
       id="path10"
       style="stroke-width:0.264583"
       inkscape:label="E1" />
    <path
       d="m 47.201666,91.096041 c 0.449791,-0.211666 0.873125,-0.47625 1.217083,-0.820208 0.846667,-0.820208 1.402292,-2.010833 1.402292,-3.518958 v -6.297083 c 0,-1.508125 -0.555625,-2.69875 -1.402292,-3.518959 -0.846667,-0.820208 -2.06375,-1.27 -3.201458,-1.27 l -11.456458,0.05292 v 26.458327 h 3.96875 V 91.545833 h 4.101041 c 1.031875,0.05292 2.963333,0.47625 3.545417,3.122083 l 1.561041,7.514164 4.339167,-0.0265 -1.640417,-7.06437 C 49.133124,92.842291 48.339374,91.678125 47.201666,91.096041 M 37.729583,79.427917 v -0.02646 h 6.826249 c 0.820209,0 1.27,0.714375 1.27,1.508125 v 5.423958 c 0,0.79375 -0.449791,1.508125 -1.27,1.508125 h -6.826249 z"
       id="path6"
       style="stroke-width:0.264583"
       inkscape:label="R" />
    <path
       d="m 25.770416,75.697292 -12.038541,0.02646 v 26.458328 h 3.968749 V 91.889791 h 8.043334 c 1.11125,0 2.354791,-0.449791 3.201458,-1.27 0.846667,-0.820208 1.402292,-2.010833 1.402292,-3.518958 v -6.641041 c 0,-1.508125 -0.555625,-2.69875 -1.402292,-3.518959 -0.820208,-0.820208 -2.06375,-1.243541 -3.175,-1.243541 m 0.635,10.980208 c 0,0.79375 -0.449792,1.508125 -1.27,1.508125 h -7.408333 v -8.757708 -0.02646 h 7.408333 c 0.820208,0 1.27,0.714375 1.27,1.508125 z"
       id="path13"
       style="stroke-width:0.264583"
       inkscape:label="P" />
    <path
       d="m 5.503333,86.439375 h -6.16479161 c -0.79374999,0 -1.42874999,-0.635 -1.42874999,-1.42875 v -4.074583 c 0,-0.79375 0.4497917,-1.508125 1.26999999,-1.508125 H 9.0752079 V 75.72375 H -1.4816669 c -1.11125,0 -2.3547917,0.449792 -3.2014583,1.27 -0.8466667,0.820208 -1.4022917,2.010833 -1.4022917,3.518958 v 5.476875 c 0,2.566458 2.0902083,4.656667 4.6566666,4.656667 h 6.1647916 c 0.79375,0 1.42875,0.635 1.42875,1.42875 v 4.894791 c 0,0.79375 -0.4497917,1.508125 -1.27,1.508125 H -6.0589585 v 3.704164 H 5.5562496 c 1.11125,0 2.3547917,-0.44979 3.2014583,-1.27 C 9.6043746,100.09187 10.16,98.90125 10.16,97.393125 v -6.297084 c 0,-2.566458 -2.0902087,-4.656666 -4.656667,-4.656666"
       id="path9"
       style="stroke-width:0.264583"
       inkscape:label="S0" />
    <path
       d="m -23.468542,76.967292 c -0.846666,0.820208 -1.402291,2.010833 -1.402291,3.518958 v 16.906875 c 0,1.508125 0.555625,2.698745 1.402291,3.518955 0.846667,0.82021 2.06375,1.27 3.201459,1.27 H -9.5514585 V 98.477916 H -19.632083 c -0.820209,0 -1.27,-0.714375 -1.27,-1.508125 v -6.82625 h 9.921875 v -3.704166 h -9.921875 v -5.503333 c 0,-0.79375 0.449791,-1.508125 1.27,-1.508125 H -9.5514585 V 75.72375 H -20.267083 c -1.11125,0 -2.354792,0.423333 -3.201459,1.243542"
       id="path7"
       style="stroke-width:0.264583"
       inkscape:label="E0" />
  </g>
  <g
     inkscape:groupmode="layer"
     id="layer2"
     inkscape:label="IDEA"
     style="display:inline"
     transform="translate(54.755937,16.034075)">
    <path
       id="rect34"
       style="display:inline;fill:#e8362d;fill-opacity:1;stroke-width:0.204214"
       inkscape:label="Backdrop"
       d="M 135.75605,-7.6200037 V 34.184167 h 71.53621 V -7.6200037 Z m 56.77845,7.655346 h 2.74557 c 1.24052,-7.711e-5 2.32526,0.8359228 2.64119,2.035535 l 6.44043,24.4579377 h -4.60592 l -1.76682,-7.302396 h -8.16281 l -1.76681,7.302396 h -4.60592 l 6.43991,-24.4579377 c 0.31593,-1.19960881 1.40067,-2.03560792 2.64118,-2.035535 z m -32.67139,0.0041 c 2.52353,-3.584e-5 4.56927,2.0456991 4.56923,4.56923 V 21.955417 c -2.5e-4,2.523329 -2.0459,4.568748 -4.56923,4.568714 H 147.8163 v -0.02636 -26.4319787 -0.02584 z m 11.39672,0.01344 h 10.71563 v 3.704167 h -10.08104 c -0.82021,0 -1.26969,0.714168 -1.26969,1.507918 v 5.5035397 h 9.92187 v 3.704167 h -9.92187 v 6.826457 c 0,0.79375 0.44948,1.507918 1.26969,1.507918 h 10.08104 v 3.704167 h -10.71563 c -1.13771,0 -2.3552,-0.449997 -3.20187,-1.270207 -0.84666,-0.82021 -1.40198,-2.010518 -1.40198,-3.518648 V 4.8154123 c 0,-1.508125 0.55532,-2.698957 1.40198,-3.519165 0.84667,-0.820209 2.09062,-1.243335 3.20187,-1.243335 z m -30.45602,0.01344 h 3.96875 V 26.497784 h -3.96875 z m 53.08927,3.196704 c -0.0885,0.00611 -0.16295,0.068486 -0.18449,0.154513 l -2.93005,11.7873937 h 6.25802 L 194.10598,3.4175393 c -0.0241,-0.096317 -0.11385,-0.161451 -0.2129,-0.154513 z m -42.08116,0.480591 v 0.02687 19.0236447 0.02635 l 7.38766,-0.02274 c 0.71319,-0.0021 1.29026,-0.580785 1.29037,-1.293978 V 5.0603583 c -1.1e-4,-0.7131922 -0.57718,-1.2918794 -1.29037,-1.293977 z"
       sodipodi:nodetypes="ccccccccccccccccccccccccccccssccccssccssssssccccccccccccccccccccc" />
    <g
       id="g57"
       transform="translate(80.927266,-66.649473)"
       inkscape:label="Letras"
       style="display:none">
      <path
         id="path54"
         style="font-weight:500;font-size:35.2778px;font-family:'Neo Sans Std';-inkscape-font-specification:'Neo Sans Std, Medium';display:inline;stroke-width:0.264583"
         inkscape:label="A Turbo"
         d="m 162.42973,77.724031 -6.44028,24.457849 h 4.60592 l 1.76681,-7.3024 h 8.16281 l 1.76682,7.3024 h 4.60592 l -6.44029,-24.457849 a 2.7310733,2.7310733 37.623817 0 0 -2.64105,-2.035628 h -2.74561 a 2.7310723,2.7310723 142.37617 0 0 -2.64105,2.035628 z m 4.21253,1.346834 2.93034,11.787155 h -6.25802 l 2.93034,-11.787155 a 0.20472114,0.20472114 0 0 1 0.39734,0 z"
         sodipodi:nodetypes="ccccccccccccc"
         transform="translate(-53.463672,-9.003587)" />
      <path
         id="path55"
         style="display:none;stroke-width:0.264583"
         inkscape:label="A"
         d="m 108.07194,66.742181 c -2.14428,0 -4.60385,1.580355 -4.60385,4.788855 v 21.589892 h 3.96875 V 81.161976 h 11.08615 v 11.958952 h 3.96875 V 71.531036 c 0,-3.21149 -2.46159,-4.788855 -4.60385,-4.788855 z m 0.6351,3.704165 h 8.54626 c 0.82021,0 1.26969,0.71417 1.26969,1.50792 v 5.50354 h -11.08615 v -5.50354 c 0,-0.79375 0.44999,-1.50792 1.2702,-1.50792 z"
         sodipodi:nodetypes="ssccccccssssssccss" />
      <path
         d="m 87.130836,67.945933 c -0.84666,0.820208 -1.40229,2.010833 -1.40229,3.518958 v 16.906874 c 0,1.50813 0.55563,2.698742 1.40229,3.518952 0.84667,0.82021 2.06375,1.27 3.20146,1.27 H 101.04793 V 89.456555 H 90.967296 c -0.82021,0 -1.27,-0.71437 -1.27,-1.50812 v -6.826253 h 9.921887 v -3.704166 h -9.921887 v -5.503333 c 0,-0.79375 0.44979,-1.508125 1.27,-1.508125 H 101.04793 V 66.702391 H 90.332296 c -1.11125,0 -2.35479,0.423333 -3.20146,1.243542"
         id="path56"
         style="display:inline;stroke-width:0.264583"
         inkscape:label="E2" />
      <path
         id="path57"
         style="display:inline;fill:#000000;fill-opacity:1;stroke-width:0.264583"
         inkscape:label="D"
         d="m 90.98101,121.11664 v 0.0263 26.43198 0.0264 h 12.04687 a 4.5691678,4.5691678 135 0 0 4.56917,-4.56917 V 125.6858 a 4.5691651,4.5691651 44.999983 0 0 -4.56917,-4.56917 z m 11.38341,22.75809 -7.387788,0.0225 v -0.0264 -19.02364 -0.0264 l 7.387788,0.0225 a 1.2941764,1.2941764 45.087151 0 1 1.29024,1.29418 v 16.44314 a 1.2941764,1.2941764 134.91285 0 1 -1.29024,1.29418 z"
         sodipodi:nodetypes="cccccccccccccc"
         transform="translate(-24.092176,-54.427422)" />
      <rect
         x="59.876392"
         y="66.715614"
         width="3.96875"
         height="26.431875"
         id="rect57"
         style="display:inline;stroke-width:0.264583"
         inkscape:label="I" />
    </g>
  </g>
  <g
     inkscape:groupmode="layer"
     id="layer2-5"
     inkscape:label="wifi"
     transform="matrix(0.39214711,0,0,0.39214711,-23.405295,-13.583975)"
     style="display:none">
    <g
       id="g1"
       transform="matrix(2.0265103,0,0,2.0265103,268.34872,-276.65917)">
      <path
         d="m 94.126982,154.99049 c 0.38608,3.142 1.95188,6.23998 2.90643,9.42019 -2.2344,-1.19555 -3.48911,-2.60881 -4.70604,-4.03046 -1.05907,1.81273 -3.02482,3.57479 -4.1078,3.68522 0.73137,-2.90402 2.25428,-5.41226 1.40294,-9.10763"
         style="display:inline;fill:#000000;fill-opacity:1;stroke:#000000;stroke-opacity:1"
         id="path1-1"
         sodipodi:nodetypes="ccccc"
         inkscape:label="path1-1" />
      <path
         d="M 172.0817,65.873738 C 151.46403,40.290786 123.64212,27.347119 95.694975,26.032371 68.580507,24.756796 41.305387,34.427507 23.12271,54.121785 c -1.602201,2.289963 -0.851812,3.748423 0.777343,5.001953 3.453854,2.661057 6.996058,-0.113863 9.802735,-2.351563 21.264665,-16.845491 43.036521,-22.876444 61.992187,-22.559309 31.305565,0.523754 58.687675,19.290261 68.593755,36.258528 2.91647,4.769402 4.03632,9.827157 3.00195,14.361328 -1.03869,4.553168 -4.16016,8.080408 -7.76367,9.996094 -7.20701,3.831371 -17.56887,2.040877 -22.17383,-6.41211 -5.13362,-7.32552 -17.09337,-18.887494 -41.658205,-19.480468 -16.855607,-0.406881 -33.807392,5.858041 -44.19707,18.496253 -4.052781,3.956942 3.167085,9.945497 6.845698,6.626954 10.064511,-12.416127 24.506212,-17.051995 37.351372,-16.927092 4.448035,0.04325 17.265345,0.907526 27.996295,9.139982 10.44864,8.015894 9.26253,16.528935 9.14046,17.249995 -1.41251,8.3455 -9.18883,12.85302 -16.30027,12.91962 -7.39771,0.78457 -29.482678,-12.74713 -18.573265,5.92327 13.650115,0.41353 8.677495,16.77562 4.417125,26.13337 -2.945475,12.21288 -19.814831,10.11965 -22.49646,0 -8.361077,-21.05171 -3.631363,-24.49186 3.894147,-26.13337 -4.057386,-16.23582 4.794219,-25.538032 15.771578,-23.149545 5.532155,1.203705 11.777095,4.610965 16.808595,4.998045 1.71583,0.28745 3.99233,-0.7303 3.79948,-2.50562 -0.76775,-2.53388 -6.98209,-11.396974 -24.457685,-11.581597 -10.385298,-0.109717 -19.586256,3.679579 -27.509765,12.419107 -3.420677,3.73072 -8.307678,5.43632 -12.660157,5.21484 -4.352478,-0.22147 -8.235885,-1.99845 -11.353515,-4.61914 -3.11763,-2.62068 -5.587036,-6.201599 -6.416016,-10.591791 -0.826524,-4.377189 0.415354,-8.979232 3.755859,-12.904427 13.40877,-16.262622 33.089789,-24.722544 53.323698,-24.234114 18.934801,1.147226 32.847991,3.69941 53.074231,25.728647 1.56392,1.731576 4.1671,3.234838 5.79483,1.976816 1.59025,-1.229057 1.4137,-2.752464 -0.51891,-5.895045 C 147.77906,68.381672 126.31035,48.060807 95.694975,47.096699 79.567673,46.588835 61.16664,51.60191 41.775053,66.963581 l 0.28125,-0.236328 C 33.519549,74.309742 22.633975,74.552187 15.972319,69.426472 9.3106631,64.300757 7.0649303,53.819221 12.829741,46.123738 l 0.191406,-0.253907 0.214844,-0.234375 c 28.204058,-30.853697 67.581508,-33.12276 82.458984,-32.656071 32.226085,1.010895 63.103335,15.695256 86.507815,44.73615 11.2351,12.576472 14.95374,0.206068 14.74382,-20.106988 7.71969,28.666904 -3.97846,47.479763 -24.86491,28.265191 z"
         style="display:inline;fill:#e8362d;fill-opacity:1;stroke:none;stroke-opacity:1"
         id="path1-5"
         sodipodi:nodetypes="cscscscsscsccssccccccsccscssscscscsccscccsccc" />
    </g>
  </g>
  <g
     inkscape:groupmode="layer"
     id="g26"
     inkscape:label="OroBoros Espress"
     style="display:none"
     transform="matrix(0.89190708,0,0,0.89190708,-144.6558,-453.46997)">
    <g
       id="g27"
       transform="translate(12.033016,218.04841)"
       style="display:inline">
      <path
         id="path24"
         style="baseline-shift:baseline;display:inline;overflow:visible;opacity:1;vector-effect:none;fill:#e8362d;fill-opacity:1;enable-background:accumulate;stop-color:#000000;stop-opacity:1"
         d="m 290.00139,108.20063 c 4.96021,-0.0331 4.67189,0.11259 9.48472,-1.60201 14.51716,-5.01736 20.67168,15.15174 12.34447,28.31004 42.44083,-11.64815 94.56487,36.25186 62.89797,91.65891 -1.93477,1.85752 -11.14741,3.13687 -20.77186,12.2716 -7.57,7.18479 -3.9878,13.4871 -9.51932,21.43021 -8.35105,11.99176 5.64175,16.58785 8.13336,17.11421 5.40883,1.14264 27.38344,3.47528 45.30731,-28.27166 C 457.61308,164.4211 363.35439,72.172417 290.00139,108.20063 Z m 80.54912,140.08757 c 0.71736,-0.0306 1.47544,0.0515 2.26084,0.26562 1.38018,0.37635 3.68822,2.70407 4.07986,4.11448 0.88963,3.20387 -0.44216,6.38817 -3.23805,7.74164 -2.48283,1.20191 -6.11993,0.42615 -7.6972,-1.64176 -3.45969,-4.53587 -0.42695,-10.26609 4.59455,-10.47998 z"
         sodipodi:nodetypes="ccccsssccssssss" />
      <path
         id="path25"
         style="baseline-shift:baseline;display:inline;overflow:visible;opacity:1;vector-effect:none;fill:#e8362d;fill-opacity:1;enable-background:accumulate;stop-color:#000000;stop-opacity:1"
         d="m 302.44872,110.07493 c -1.56208,-0.0635 -3.39415,0.23173 -5.54178,1.00718 -9.10404,3.28721 -14.2647,-1.80414 -23.16396,3.64835 -12.69892,7.78053 -17.78092,15.74162 -20.30884,20.89795 -57.17452,76.60645 15.94393,168.47974 95.90016,145.96682 -13.89623,-2.86355 -14.5429,-15.12155 -10.48593,-19.89653 3.63176,-7.72178 2.77717,-7.25245 4.16739,-11.82667 -6.75577,2.63947 -10.42254,2.82107 -18.15445,2.82107 -33.06787,0 -59.52712,-26.46131 -59.52712,-59.52918 0,-12.35657 3.69457,-23.79033 10.04797,-33.26567 0.0109,0.003 0.0217,0.006 0.0326,0.009 11.89811,-9.1973 18.7031,-7.23134 26.76116,-16.66875 5.62833,-6.59178 8.81512,-13.50806 9.15655,-19.87114 0.11511,-2.14521 -0.44843,-12.94974 -8.8837,-13.29273 z m -18.00252,18.67793 c 1.93301,-0.0491 3.94706,0.79112 5.44102,2.72645 1.58922,2.05874 1.39738,5.77232 -0.40618,7.85947 -2.03099,2.35033 -5.45133,2.81303 -8.31577,1.12448 -1.26096,-0.74337 -2.91238,-3.57534 -2.91869,-5.0059 -0.0179,-4.07033 2.97795,-6.62263 6.19962,-6.7045 z"
         sodipodi:nodetypes="cssccccssccssccssssss" />
    </g>
    <path
       id="path26"
       style="display:inline;fill:#e8362d;fill-opacity:1;stroke-width:0.748658"
       class="st0"
       d="m 325.21566,143.77923 c -1.72194,0 -3.36839,0.0753 -5.01543,0.29973 l -1.123,3.21836 c 24.03196,8.38497 43.12159,27.47638 51.58143,51.50832 l 3.2198,-1.12298 c 0.14969,-1.64706 0.22524,-3.29382 0.22524,-4.94086 0,-27.02659 -21.86146,-48.96257 -48.88802,-48.96257 z m -22.83412,5.61492 c -3.96789,2.09624 -7.63604,4.79141 -10.93012,7.86094 v 7.2614 c 34.13884,0 61.83893,27.7764 61.83893,61.8404 h 7.2614 c 3.14437,-3.14437 5.84073,-6.81311 7.93696,-10.781 -4.12592,-29.46175 -24.85149,-53.64997 -52.32716,-62.9078 -4.43163,-1.49323 -9.03846,-2.59806 -13.78001,-3.27394 z m -7.4588,21.57952 c -1.52539,0 -2.94754,0.13185 -4.14541,0.43134 -3.81815,0.97326 -7.11257,3.06981 -9.658,5.91472 -2.99465,3.36895 -4.71566,7.78515 -4.71566,12.57659 0,8.53471 5.53949,15.7224 13.25068,18.19299 1.42246,0.4492 3.66875,0.6735 4.79172,0.82324 h 0.0747 c 8.38497,1.42243 14.82404,8.83416 14.82404,17.59349 0,3.51869 -1.04872,6.81311 -2.8455,9.65799 l 6.13842,3.89242 c 2.91976,0.74865 5.99016,1.27275 9.13453,1.49733 1.72191,-3.59356 2.91975,-7.56085 3.36895,-11.75335 1.19784,-12.12828 -4.19335,-23.43303 -13.25213,-30.3207 -4.7914,-3.59356 -10.63038,-6.06443 -16.99398,-6.66337 -1.64704,-0.14969 -2.91945,-1.64732 -2.69486,-3.29439 0.22467,-1.79678 1.72219,-2.91948 3.29439,-2.69486 6.96251,0.67378 13.32496,3.14377 18.64043,6.88707 11.52937,8.01065 18.56732,21.86199 17.06999,36.76034 -0.22467,2.39572 -0.67435,4.6411 -1.34815,6.88707 l 8.83476,2.47116 c 2.6203,-0.74865 5.24,-1.72248 7.63572,-2.84551 0.59891,-3.36895 0.97383,-6.88764 0.97383,-10.4812 0,-27.99986 -20.66267,-51.2077 -47.61439,-55.17559 -1.60961,-0.22467 -3.23854,-0.35678 -4.76394,-0.35678 z m 0.42113,44.90199 c -4.11763,0 -7.48661,3.36897 -7.48661,7.4866 0,4.11763 3.36898,7.48658 7.48661,7.48658 4.11763,0 7.48658,-3.36895 7.48658,-7.48658 0,-4.11763 -3.36895,-7.4866 -7.48658,-7.4866 z"
       sodipodi:nodetypes="sccccsssccccccscsccscccscccccccccccccscsssssss"
       transform="translate(11.641671,218.54583)" />
    <circle
       style="display:none;fill:none;stroke:#000000;stroke-width:32.11;stroke-dasharray:none;stroke-opacity:0.562827"
       id="path2"
       cx="336.89536"
       cy="411.21234"
       r="75.657875" />
  </g>
  <g
     id="g5"
     style="display:none"
     inkscape:label="IDEA"
     transform="matrix(0.53067445,0,0,0.53067445,117.07896,-331.71384)">
    <path
       id="path3"
       style="display:inline;fill:#e8362d;stroke-width:0.965837"
       class="st0"
       d="m 35.983605,473.07537 c 41.6101,2.80633 66.448875,17.21356 66.448875,61.15926 0.42461,9.35442 -9.521268,7.33813 -8.662108,-0.18142 0,-36.12238 -16.92793,-48.66351 -51.69813,-53.78245 -33.8638599,-6.06158 -44.9089999,45.72589 -8.34833,50.60102 -8.17629,3.21155 -14.5822,3.36516 -28.2173999,16.00575 -3.31149,3.14298 -4.73920999,6.19412 -6.29986999,13.46067 -0.99195001,4.61861 -1.13937001,4.98314 -3.21944001,7.97006 -2.11738,3.04047 -2.55434,4.15185 -2.56574,6.52622 -0.008,1.72997 0.10568,2.2313 0.85163,3.74654 1.64818,3.34793 5.29109001,5.87837 9.84746,6.84092 6.2346299,1.31709 13.7396499,0.0289 21.5635399,-3.70158 11.20142,-5.3409 16.81347,-12.16672 23.72724,-24.41246 l 3.53311,-3.73879 c 28.176205,-20.75985 8.21192,-46.5745 -17.58291,-45.57965 -5.19131,-0.4718 -4.1289,-8.42698 0.77308,-7.72666 27.41673,0.046 38.87926,10.68428 37.92895,38.38081 -0.24201,29.36077 50.549738,31.92443 49.603888,-8.27859 -8.05989,-76.33482 -73.613546,-71.80489 -84.557726,-75.7964 -8.49114,-0.61292 -6.787452,-8.36341 0.147698,-6.97438 29.53669,-0.94081 88.238768,18.43254 91.066218,79.49669 -1.28298,6.60467 13.29076,51.22704 56.25093,-20.94506 -35.50827,34.60651 -36.34143,27.0617 -39.23972,13.52305 1.09303,-57.08757 -63.329088,-92.11611 -108.577288,-90.4747 -33.7408782,-1.32232 -40.8428949,35.27191 -2.773957,43.88115 z m -13.882753,83.25172 c 0.71736,-0.0306 1.47493,0.0515 2.26032,0.26562 1.38018,0.37635 3.68874,2.70406 4.08038,4.11447 0.88963,3.20387 -0.44268,6.38818 -3.23857,7.74165 -2.48283,1.20191 -6.11993,0.42615 -7.6972,-1.64176 -3.45969,-4.53588 -0.42644,-10.2661 4.59507,-10.47998 z"
       sodipodi:nodetypes="ccccccsssssscccccccccccccssssss"
       inkscape:export-filename="path3.png"
       inkscape:export-xdpi="96"
       inkscape:export-ydpi="96" />
    <path
       id="path4"
       clip-path="url(#clipath_lpe_path-effect6)"
       style="display:inline;fill:none;fill-opacity:1;stroke:#e8362d;stroke-width:32.11;stroke-dasharray:none;stroke-opacity:1"
       d="m 72.773336,415.27646 a 93.389343,93.389343 0 0 0 -93.389649,93.38965 93.389343,93.389343 0 0 0 93.389649,93.38913 93.389343,93.389343 0 0 0 93.389134,-93.38913 93.389343,93.389343 0 0 0 -93.389134,-93.38965 z" />
    <path
       style="display:inline;fill:#e8362d;fill-opacity:1"
       d="m 66.777778,609.21697 c -3.464657,-3.11178 -5.354147,-7.1251 -5.107547,-10.84859 0.111608,-1.68521 0.263464,-2.17597 1.135637,-3.67002 1.197057,-2.05056 2.131373,-2.7948 5.485313,-4.36924 3.294853,-1.54671 3.604331,-1.78854 6.772689,-5.2924 4.984847,-5.51269 7.747133,-7.44099 12.186457,-8.50714 5.170258,-1.24171 9.059352,-1.50292 15.897193,-1.06773 5.13571,0.32687 6.70257,1.73129 8.08911,0.74904 5.7888,3.85844 14.35098,21.356 8.8209,31.30378 -12.11037,7.14824 -20.383139,10.25362 -32.754304,9.27826 -8.640922,-0.68126 -15.784645,-3.31801 -20.525448,-7.57596 z m 26.74463,-4.1582 c 3.098047,0.22581 5.843685,-1.8659 6.675182,-5.08534 0.36603,-1.41728 -0.469086,-4.58717 -1.476182,-5.60319 -4.584748,-4.62536 -11.876297,-1.04813 -11.044023,5.41819 0.332001,2.5795 3.093874,5.06981 5.845023,5.27034 z"
       id="path5"
       sodipodi:nodetypes="sssssssccsssssss" />
  </g>
  <g
     id="g14"
     style="display:inline"
     inkscape:label="IDEA"
     transform="matrix(0.22727207,0,0,0.22727207,7.2632119,-90.731888)">
    <path
       id="path1"
       style="display:inline;fill:#e8362d;stroke-width:0.965837"
       class="st0"
       d="m 35.983605,473.07537 c 41.6101,2.80633 66.448875,17.21356 66.448875,61.15926 0.42461,9.35442 -9.521268,7.33813 -8.662108,-0.18142 0,-36.12238 -16.92793,-48.66351 -51.69813,-53.78245 -33.8638599,-6.06158 -44.9089999,45.72589 -8.34833,50.60102 -8.17629,3.21155 -14.5822,3.36516 -28.2173999,16.00575 -3.31149,3.14298 -4.73920999,6.19412 -6.29986999,13.46067 -0.99195001,4.61861 -1.13937001,4.98314 -3.21944001,7.97006 -2.11738,3.04047 -2.55434,4.15185 -2.56574,6.52622 -0.008,1.72997 0.10568,2.2313 0.85163,3.74654 1.64818,3.34793 5.29109001,5.87837 9.84746,6.84092 6.2346299,1.31709 13.7396499,0.0289 21.5635399,-3.70158 11.20142,-5.3409 16.81347,-12.16672 23.72724,-24.41246 l 3.53311,-3.73879 c 28.176205,-20.75985 8.21192,-46.5745 -17.58291,-45.57965 -5.19131,-0.4718 -4.1289,-8.42698 0.77308,-7.72666 27.41673,0.046 38.87926,10.68428 37.92895,38.38081 -0.24201,29.36077 50.549738,31.92443 49.603888,-8.27859 -8.05989,-76.33482 -73.613546,-71.80489 -84.557726,-75.7964 -8.49114,-0.61292 -6.787452,-8.36341 0.147698,-6.97438 29.53669,-0.94081 88.238768,18.43254 91.066218,79.49669 -1.28298,6.60467 13.29076,51.22704 56.25093,-20.94506 -35.50827,34.60651 -36.34143,27.0617 -39.23972,13.52305 1.09303,-57.08757 -63.329088,-92.11611 -108.577288,-90.4747 -33.7408782,-1.32232 -40.8428949,35.27191 -2.773957,43.88115 z m -13.882753,83.25172 c 0.71736,-0.0306 1.47493,0.0515 2.26032,0.26562 1.38018,0.37635 3.68874,2.70406 4.08038,4.11447 0.88963,3.20387 -0.44268,6.38818 -3.23857,7.74165 -2.48283,1.20191 -6.11993,0.42615 -7.6972,-1.64176 -3.45969,-4.53588 -0.42644,-10.2661 4.59507,-10.47998 z"
       sodipodi:nodetypes="ccccccsssssscccccccccccccssssss"
       inkscape:export-filename="path3.png"
       inkscape:export-xdpi="96"
       inkscape:export-ydpi="96" />
    <path
       id="path8"
       clip-path="url(#clipath_lpe_path-effect6)"
       style="display:inline;fill:none;fill-opacity:1;stroke:#e8362d;stroke-width:32.11;stroke-dasharray:none;stroke-opacity:1"
       d="m 72.773336,415.27646 a 93.389343,93.389343 0 0 0 -93.389649,93.38965 93.389343,93.389343 0 0 0 93.389649,93.38913 93.389343,93.389343 0 0 0 93.389134,-93.38913 93.389343,93.389343 0 0 0 -93.389134,-93.38965 z" />
    <path
       style="display:inline;fill:#e8362d;fill-opacity:1"
       d="m 66.777778,609.21697 c -3.464657,-3.11178 -5.354147,-7.1251 -5.107547,-10.84859 0.111608,-1.68521 0.263464,-2.17597 1.135637,-3.67002 1.197057,-2.05056 2.131373,-2.7948 5.485313,-4.36924 3.294853,-1.54671 3.604331,-1.78854 6.772689,-5.2924 4.984847,-5.51269 7.747133,-7.44099 12.186457,-8.50714 5.170258,-1.24171 9.059352,-1.50292 15.897193,-1.06773 5.13571,0.32687 6.70257,1.73129 8.08911,0.74904 5.7888,3.85844 14.35098,21.356 8.8209,31.30378 -12.11037,7.14824 -20.383139,10.25362 -32.754304,9.27826 -8.640922,-0.68126 -15.784645,-3.31801 -20.525448,-7.57596 z m 26.74463,-4.1582 c 3.098047,0.22581 5.843685,-1.8659 6.675182,-5.08534 0.36603,-1.41728 -0.469086,-4.58717 -1.476182,-5.60319 -4.584748,-4.62536 -11.876297,-1.04813 -11.044023,5.41819 0.332001,2.5795 3.093874,5.06981 5.845023,5.27034 z"
       id="path14"
       sodipodi:nodetypes="sssssssccsssssss" />
  </g>
  <g
     inkscape:groupmode="layer"
     id="g17"
     inkscape:label="OroBoros Espress"
     style="display:none"
     transform="matrix(0.26445936,0,0,0.26445936,-64.815476,-84.15998)">
    <g
       id="g16"
       transform="translate(12.033016,218.04841)"
       style="display:inline">
      <path
         id="path15"
         style="baseline-shift:baseline;display:inline;overflow:visible;opacity:1;vector-effect:none;fill:#e8362d;fill-opacity:1;enable-background:accumulate;stop-color:#000000;stop-opacity:1"
         d="m 290.00139,108.20063 c 4.96021,-0.0331 4.67189,0.11259 9.48472,-1.60201 14.51716,-5.01736 20.67168,15.15174 12.34447,28.31004 42.44083,-11.64815 94.56487,36.25186 62.89797,91.65891 -1.93477,1.85752 -11.14741,3.13687 -20.77186,12.2716 -7.57,7.18479 -3.9878,13.4871 -9.51932,21.43021 -8.35105,11.99176 5.64175,16.58785 8.13336,17.11421 5.40883,1.14264 27.38344,3.47528 45.30731,-28.27166 C 457.61308,164.4211 363.35439,72.172417 290.00139,108.20063 Z m 80.54912,140.08757 c 0.71736,-0.0306 1.47544,0.0515 2.26084,0.26562 1.38018,0.37635 3.68822,2.70407 4.07986,4.11448 0.88963,3.20387 -0.44216,6.38817 -3.23805,7.74164 -2.48283,1.20191 -6.11993,0.42615 -7.6972,-1.64176 -3.45969,-4.53587 -0.42695,-10.26609 4.59455,-10.47998 z"
         sodipodi:nodetypes="ccccsssccssssss" />
      <path
         id="path16"
         style="baseline-shift:baseline;display:inline;overflow:visible;opacity:1;vector-effect:none;fill:#e8362d;fill-opacity:1;enable-background:accumulate;stop-color:#000000;stop-opacity:1"
         d="m 302.44872,110.07493 c -1.56208,-0.0635 -3.39415,0.23173 -5.54178,1.00718 -9.10404,3.28721 -14.2647,-1.80414 -23.16396,3.64835 -12.69892,7.78053 -17.78092,15.74162 -20.30884,20.89795 -57.17452,76.60645 15.94393,168.47974 95.90016,145.96682 -13.89623,-2.86355 -14.5429,-15.12155 -10.48593,-19.89653 3.63176,-7.72178 2.77717,-7.25245 4.16739,-11.82667 -6.75577,2.63947 -10.42254,2.82107 -18.15445,2.82107 -33.06787,0 -59.52712,-26.46131 -59.52712,-59.52918 0,-12.35657 3.69457,-23.79033 10.04797,-33.26567 0.0109,0.003 0.0217,0.006 0.0326,0.009 11.89811,-9.1973 18.7031,-7.23134 26.76116,-16.66875 5.62833,-6.59178 8.81512,-13.50806 9.15655,-19.87114 0.11511,-2.14521 -0.44843,-12.94974 -8.8837,-13.29273 z m -18.00252,18.67793 c 1.93301,-0.0491 3.94706,0.79112 5.44102,2.72645 1.58922,2.05874 1.39738,5.77232 -0.40618,7.85947 -2.03099,2.35033 -5.45133,2.81303 -8.31577,1.12448 -1.26096,-0.74337 -2.91238,-3.57534 -2.91869,-5.0059 -0.0179,-4.07033 2.97795,-6.62263 6.19962,-6.7045 z"
         sodipodi:nodetypes="cssccccssccssccssssss" />
    </g>
    <path
       id="path17"
       style="display:inline;fill:#e8362d;fill-opacity:1;stroke-width:0.748658"
       class="st0"
       d="m 325.21566,143.77923 c -1.72194,0 -3.36839,0.0753 -5.01543,0.29973 l -1.123,3.21836 c 24.03196,8.38497 43.12159,27.47638 51.58143,51.50832 l 3.2198,-1.12298 c 0.14969,-1.64706 0.22524,-3.29382 0.22524,-4.94086 0,-27.02659 -21.86146,-48.96257 -48.88802,-48.96257 z m -22.83412,5.61492 c -3.96789,2.09624 -7.63604,4.79141 -10.93012,7.86094 v 7.2614 c 34.13884,0 61.83893,27.7764 61.83893,61.8404 h 7.2614 c 3.14437,-3.14437 5.84073,-6.81311 7.93696,-10.781 -4.12592,-29.46175 -24.85149,-53.64997 -52.32716,-62.9078 -4.43163,-1.49323 -9.03846,-2.59806 -13.78001,-3.27394 z m -7.4588,21.57952 c -1.52539,0 -2.94754,0.13185 -4.14541,0.43134 -3.81815,0.97326 -7.11257,3.06981 -9.658,5.91472 -2.99465,3.36895 -4.71566,7.78515 -4.71566,12.57659 0,8.53471 5.53949,15.7224 13.25068,18.19299 1.42246,0.4492 3.66875,0.6735 4.79172,0.82324 h 0.0747 c 8.38497,1.42243 14.82404,8.83416 14.82404,17.59349 0,3.51869 -1.04872,6.81311 -2.8455,9.65799 l 6.13842,3.89242 c 2.91976,0.74865 5.99016,1.27275 9.13453,1.49733 1.72191,-3.59356 2.91975,-7.56085 3.36895,-11.75335 1.19784,-12.12828 -4.19335,-23.43303 -13.25213,-30.3207 -4.7914,-3.59356 -10.63038,-6.06443 -16.99398,-6.66337 -1.64704,-0.14969 -2.91945,-1.64732 -2.69486,-3.29439 0.22467,-1.79678 1.72219,-2.91948 3.29439,-2.69486 6.96251,0.67378 13.32496,3.14377 18.64043,6.88707 11.52937,8.01065 18.56732,21.86199 17.06999,36.76034 -0.22467,2.39572 -0.67435,4.6411 -1.34815,6.88707 l 8.83476,2.47116 c 2.6203,-0.74865 5.24,-1.72248 7.63572,-2.84551 0.59891,-3.36895 0.97383,-6.88764 0.97383,-10.4812 0,-27.99986 -20.66267,-51.2077 -47.61439,-55.17559 -1.60961,-0.22467 -3.23854,-0.35678 -4.76394,-0.35678 z m 0.42113,44.90199 c -4.11763,0 -7.48661,3.36897 -7.48661,7.4866 0,4.11763 3.36898,7.48658 7.48661,7.48658 4.11763,0 7.48658,-3.36895 7.48658,-7.48658 0,-4.11763 -3.36895,-7.4866 -7.48658,-7.4866 z"
       sodipodi:nodetypes="sccccsssccccccscsccscccscccccccccccccscsssssss"
       transform="translate(11.641671,218.54583)" />
    <circle
       style="display:none;fill:none;stroke:#000000;stroke-width:32.11;stroke-dasharray:none;stroke-opacity:0.562827"
       id="circle17"
       cx="336.89536"
       cy="411.21234"
       r="75.657875" />
  </g>
  <g
     inkscape:groupmode="layer"
     id="g20"
     inkscape:label="wifi"
     transform="matrix(0.39214711,0,0,0.39214711,-23.405295,-13.583975)"
     style="display:none">
    <g
       id="g19"
       transform="matrix(0.63364837,-0.71651183,0.71651183,0.63364837,18.638698,123.92345)">
      <path
         d="m 94.126982,154.99049 c 0.38608,3.142 1.95188,6.23998 2.90643,9.42019 -2.2344,-1.19555 -3.48911,-2.60881 -4.70604,-4.03046 -1.05907,1.81273 -3.02482,3.57479 -4.1078,3.68522 0.73137,-2.90402 2.25428,-5.41226 1.40294,-9.10763"
         style="display:inline;fill:#000000;fill-opacity:1;stroke:#000000;stroke-opacity:1"
         id="path18"
         sodipodi:nodetypes="ccccc"
         inkscape:label="path1-1" />
      <path
         d="M 172.0817,65.873738 C 151.46403,40.290786 123.64212,27.347119 95.694975,26.032371 68.580507,24.756796 41.305387,34.427507 23.12271,54.121785 c -1.602201,2.289963 -0.851812,3.748423 0.777343,5.001953 3.453854,2.661057 6.996058,-0.113863 9.802735,-2.351563 21.264665,-16.845491 43.036521,-22.876444 61.992187,-22.559309 31.305565,0.523754 58.687675,19.290261 68.593755,36.258528 2.91647,4.769402 4.03632,9.827157 3.00195,14.361328 -1.03869,4.553168 -4.16016,8.080408 -7.76367,9.996094 -7.20701,3.831371 -17.56887,2.040877 -22.17383,-6.41211 -5.13362,-7.32552 -17.09337,-18.887494 -41.658205,-19.480468 -16.855607,-0.406881 -33.807392,5.858041 -44.19707,18.496253 -4.052781,3.956942 3.167085,9.945497 6.845698,6.626954 10.064511,-12.416127 24.506212,-17.051995 37.351372,-16.927092 4.448035,0.04325 17.265345,0.907526 27.996295,9.139982 10.44864,8.015894 9.26253,16.528935 9.14046,17.249995 -1.41251,8.3455 -9.18883,12.85302 -16.30027,12.91962 -7.39771,0.78457 -29.482678,-12.74713 -18.573265,5.92327 13.650115,0.41353 8.677495,16.77562 4.417125,26.13337 -2.945475,12.21288 -19.814831,10.11965 -22.49646,0 -8.361077,-21.05171 -3.631363,-24.49186 3.894147,-26.13337 -4.057386,-16.23582 4.794219,-25.538032 15.771578,-23.149545 5.532155,1.203705 11.777095,4.610965 16.808595,4.998045 1.71583,0.28745 3.99233,-0.7303 3.79948,-2.50562 -0.76775,-2.53388 -6.98209,-11.396974 -24.457685,-11.581597 -10.385298,-0.109717 -19.586256,3.679579 -27.509765,12.419107 -3.420677,3.73072 -8.307678,5.43632 -12.660157,5.21484 -4.352478,-0.22147 -8.235885,-1.99845 -11.353515,-4.61914 -3.11763,-2.62068 -5.587036,-6.201599 -6.416016,-10.591791 -0.826524,-4.377189 0.415354,-8.979232 3.755859,-12.904427 13.40877,-16.262622 33.089789,-24.722544 53.323698,-24.234114 18.934801,1.147226 32.847991,3.69941 53.074231,25.728647 1.56392,1.731576 4.1671,3.234838 5.79483,1.976816 1.59025,-1.229057 1.4137,-2.752464 -0.51891,-5.895045 C 147.77906,68.381672 126.31035,48.060807 95.694975,47.096699 79.567673,46.588835 61.16664,51.60191 41.775053,66.963581 l 0.28125,-0.236328 C 33.519549,74.309742 22.633975,74.552187 15.972319,69.426472 9.3106631,64.300757 7.0649303,53.819221 12.829741,46.123738 l 0.191406,-0.253907 0.214844,-0.234375 c 28.204058,-30.853697 67.581508,-33.12276 82.458984,-32.656071 32.226085,1.010895 63.103335,15.695256 86.507815,44.73615 11.2351,12.576472 14.95374,0.206068 14.74382,-20.106988 7.71969,28.666904 -3.97846,47.479763 -24.86491,28.265191 z"
         style="display:inline;fill:#e8362d;fill-opacity:1;stroke:none;stroke-opacity:1"
         id="path19"
         sodipodi:nodetypes="cscscscsscsccssccccccsccscssscscscsccscccsccc" />
    </g>
  </g>
</svg>
