<?xml version="1.0" encoding="UTF-8" standalone="no"?>
<!-- Created with Inkscape (http://www.inkscape.org/) -->

<svg
   width="264.77148mm"
   height="51.717831mm"
   viewBox="0 0 264.77149 51.717832"
   version="1.1"
   id="svg1"
   inkscape:version="1.4.2 (f4327f4, 2025-05-13)"
   sodipodi:docname="ESPRESSIDEA_004.svg"
   inkscape:export-filename="ESPRESSIDEA_003_pals.png"
   inkscape:export-xdpi="96"
   inkscape:export-ydpi="96"
   xmlns:inkscape="http://www.inkscape.org/namespaces/inkscape"
   xmlns:sodipodi="http://sodipodi.sourceforge.net/DTD/sodipodi-0.dtd"
   xmlns="http://www.w3.org/2000/svg"
   xmlns:svg="http://www.w3.org/2000/svg">
  <sodipodi:namedview
     id="namedview1"
     pagecolor="#d1d1d1"
     bordercolor="#000000"
     borderopacity="0"
     inkscape:showpageshadow="2"
     inkscape:pageopacity="0.0"
     inkscape:pagecheckerboard="0"
     inkscape:deskcolor="#d1d1d1"
     inkscape:document-units="mm"
     inkscape:zoom="1.4142136"
     inkscape:cx="636.39609"
     inkscape:cy="117.73328"
     inkscape:window-width="2560"
     inkscape:window-height="1494"
     inkscape:window-x="-11"
     inkscape:window-y="-11"
     inkscape:window-maximized="1"
     inkscape:current-layer="layer1"
     inkscape:export-bgcolor="#ffffffff"
     inkscape:clip-to-page="false" />
  <defs
     id="defs1">
    <inkscape:path-effect
       effect="fillet_chamfer"
       id="path-effect34"
       is_visible="true"
       lpeversion="1"
       nodesatellites_param="F,0,0,1,0,2.1050187,0,1 @ F,0,0,1,0,0,0,1 @ F,0,0,1,0,0,0,1 @ F,0,0,1,0,0,0,1 @ F,0,0,1,0,0,0,1 @ F,0,0,1,0,0,0,1 @ F,0,0,1,0,0,0,1 @ F,0,0,1,0,2.1050187,0,1 | F,0,0,1,0,0.82348224,0,1 @ F,0,0,1,0,0,0,1 @ F,0,0,1,0,0,0,1"
       radius="0"
       unit="px"
       method="auto"
       mode="F"
       chamfer_steps="1"
       flexible="false"
       use_knot_distance="true"
       apply_no_radius="true"
       apply_with_radius="true"
       only_selected="false"
       hide_knots="false" />
    <inkscape:path-effect
       effect="fillet_chamfer"
       id="path-effect37"
       is_visible="true"
       lpeversion="1"
       nodesatellites_param="F,0,0,1,0,0,0,1 @ F,0,0,1,0,0,0,1 @ F,0,0,1,0,0,0,1 @ F,0,0,1,0,0,0,1 @ F,0,0,1,0,4.5691678,0,1 @ F,0,0,1,0,4.5691678,0,1 | F,0,1,1,0,1.2902453,0,1 @ F,0,0,1,0,0,0,1 @ F,0,0,1,0,0,0,1 @ F,0,0,1,0,0,0,1 @ F,0,0,1,0,0,0,1 @ F,0,0,1,0,1.2902453,0,1"
       radius="0"
       unit="px"
       method="auto"
       mode="F"
       chamfer_steps="1"
       flexible="false"
       use_knot_distance="true"
       apply_no_radius="true"
       apply_with_radius="true"
       only_selected="false"
       hide_knots="false" />
    <inkscape:path-effect
       effect="fillet_chamfer"
       id="path-effect36"
       is_visible="true"
       lpeversion="1"
       nodesatellites_param="F,0,0,1,0,0,0,1 @ F,0,0,1,0,0,0,1 @ F,0,0,1,0,0,0,1 @ F,0,0,1,0,0,0,1 @ F,0,0,1,0,0,0,1 @ F,0,0,1,0,0,0,1 | F,0,0,1,0,0,0,1 @ F,0,0,1,0,0,0,1 @ F,0,0,1,0,0,0,1 @ F,0,0,1,0,0,0,1 @ F,0,0,1,0,0,0,1 @ F,0,0,1,0,0,0,1"
       radius="0"
       unit="px"
       method="auto"
       mode="F"
       chamfer_steps="1"
       flexible="false"
       use_knot_distance="true"
       apply_no_radius="true"
       apply_with_radius="true"
       only_selected="false"
       hide_knots="false" />
    <clipPath
       clipPathUnits="userSpaceOnUse"
       id="clipath_lpe_path-effect6">
      <path
         id="lpe_path-effect6"
         style="baseline-shift:baseline;display:inline;overflow:visible;opacity:1;vector-effect:none;fill:#e8362d;stroke-width:1;stroke-linecap:round;stroke-linejoin:round;enable-background:accumulate;stop-color:#000000;stop-opacity:1"
         class="powerclip"
         d="M -41.671059,394.22164 H 187.21763 V 623.11033 H -41.671059 Z m 80.573593,29.47962 c -18.831099,-0.70966 -32.2882208,9.74307 -33.9198925,23.03891 -1.4112808,11.49996 6.4061735,23.25712 21.9195915,29.27729 -3.290916,1.08929 -6.359644,2.56222 -8.94519,4.58007 -6.392904,4.9893 -10.4278747,12.21943 -11.8731765,19.84997 -1.4453021,7.6305 -0.3042153,15.83068 4.1604695,22.62859 2.017562,3.07192 4.816064,5.71516 8.142139,7.89874 -4.602039,2.27817 -9.9230738,5.66142 -16.619141,11.86905 a 5.5005499,5.5005499 0 0 0 -0.046509,0.0449 c -4.0280983,3.82312 -6.2520968,8.66381 -7.8909911,16.2946 -0.9809342,4.56732 -0.3256245,3.06787 -2.3554118,5.98258 -2.2737831,3.26506 -3.5381551,6.60143 -3.5527551,9.64231 -0.0091,1.97583 0.555975,4.45331 1.416451,6.20118 2.5815505,5.24388 7.7626295,8.55027 13.6461958,9.7932 7.8175272,1.65148 16.4534242,-0.0103 25.0666872,-4.11707 11.959783,-5.70249 18.76516,-13.81202 25.726596,-25.99013 l 3.0055,-3.17966 c 5.701046,-4.31506 9.793534,-9.01538 12.310877,-13.93766 1.15901,6.69888 4.577014,12.34469 9.33173,16.11892 5.902243,4.68508 13.476155,6.81434 21.015772,6.38513 7.539614,-0.42918 15.186574,-3.50128 20.861254,-9.58027 3.84658,-4.12065 6.54973,-9.66957 7.88893,-16.24605 2.30411,4.47569 5.95373,9.12405 11.92175,11.11922 6.49271,2.17056 14.53372,0.27805 22.78672,-6.27145 8.253,-6.54949 17.46349,-17.77005 28.40085,-36.14457 a 5.5005499,5.5005499 0 0 0 -8.56485,-6.75203 c -8.79783,8.57441 -15.40674,14.48387 -20.2246,18.20095 -4.2956,3.31415 -6.99172,4.52657 -8.00933,4.85344 -0.4402,-1.01677 -1.05612,-3.41162 -1.72083,-6.48436 0.19269,-30.16289 -16.71625,-54.56174 -39.12733,-70.81996 C 91.096661,431.5928 62.963581,422.91849 38.902534,423.70126 Z m 3.995624,51.13282 2e-6,-9e-4 c 0.03565,0.007 0.06848,0.0152 0.105934,0.0212 0.01272,0.003 0.02399,0 0.03669,0.003 z m 51.27077,95.06807 c -2.792584,0.19043 -5.397627,0.60598 -8.202083,1.27953 -5.399794,1.2968 -9.7477,4.37663 -14.982547,10.16577 -3.133294,3.46509 -1.816066,2.49306 -5.031219,4.00235 -3.601794,1.69079 -6.363539,3.94957 -7.896675,6.57582 -0.99641,1.70688 -1.746125,4.13705 -1.874819,6.08026 -0.386244,5.832 2.447957,11.28453 6.922056,15.30294 5.94451,5.33906 14.254885,8.2164 23.767542,8.96639 2.795217,0.22037 5.265116,-1.89344 7.400065,-5.3847 8.851302,-0.51969 16.088682,-3.65143 25.786542,-9.37564 5.53008,-9.9478 -3.03237,-27.4456 -8.82117,-31.30404 -1.2943,0.91691 -2.74589,-0.24559 -7.11068,-0.67025 0.12885,-3.3941 -0.0781,-5.53302 -0.62993,-5.56815 -3.554495,-0.22622 -6.534494,-0.26067 -9.327082,-0.0703 z" />
    </clipPath>
  </defs>
  <g
     inkscape:label="ESPRESS"
     inkscape:groupmode="layer"
     id="g38"
     transform="translate(81.01341,-63.093247)">
    <g
       id="g37"
       style="stroke:#ffffff;stroke-width:2.83104;stroke-dasharray:none;stroke-opacity:1">
      <g
         id="g21"
         transform="matrix(0.26445936,0,0,0.26445936,-141.26,38.012847)"
         style="display:inline;stroke:#ffffff;stroke-width:10.705;stroke-dasharray:none;stroke-opacity:1">
        <g
           id="path20"
           style="opacity:1">
          <path
             style="baseline-shift:baseline;display:inline;overflow:visible;vector-effect:none;fill:#e8362d;stroke:none;enable-background:accumulate;stop-color:#000000;stop-opacity:1"
             d="m 290.00139,108.20063 c 4.96021,-0.0331 4.67189,0.11259 9.48472,-1.60201 14.51716,-5.01736 20.67168,15.15174 12.34447,28.31004 42.44083,-11.64815 94.56487,36.25186 62.89797,91.65891 -1.93477,1.85752 -11.14741,3.13687 -20.77186,12.2716 -7.57,7.18479 -3.9878,13.4871 -9.51932,21.43021 -8.35105,11.99176 5.64175,16.58785 8.13336,17.11421 5.40883,1.14264 27.38344,3.47528 45.30731,-28.27166 C 457.61308,164.4211 363.35439,72.172417 290.00139,108.20063 Z m 80.54912,140.08757 c 0.71736,-0.0306 1.47544,0.0515 2.26084,0.26562 1.38018,0.37635 3.68822,2.70407 4.07986,4.11448 0.88963,3.20387 -0.44216,6.38817 -3.23805,7.74164 -2.48283,1.20191 -6.11993,0.42615 -7.6972,-1.64176 -3.45969,-4.53587 -0.42695,-10.26609 4.59455,-10.47998 z"
             id="path76" />
        </g>
        <g
           id="path21"
           style="opacity:1">
          <path
             style="baseline-shift:baseline;display:inline;overflow:visible;vector-effect:none;fill:#ffffff;stroke:none;enable-background:accumulate;stop-color:#000000;stop-opacity:1"
             d="m 270.94727,110.16602 c -13.16158,8.06399 -19.09231,16.79324 -22.00586,22.55664 -29.61747,39.9285 -25.61524,84.8201 -3.34375,116.16015 22.32595,31.4167 62.97125,49.75188 105.1875,37.86524 l 21.6719,-6.17181 c 9.58349,-3.69469 20.54833,-12.04276 29.97461,-28.65625 30.92784,-44.09834 22.03303,-91.38856 -4.53906,-122.03906 -18.30649,-21.11625 -45.06476,-34.796097 -72.71094,-35.041016 l -3e-5,-7e-5 c -12.56645,-0.111327 -25.31615,2.553208 -37.53906,8.556636 z m 42.30081,29.90436 c 18.87525,-5.18043 40.56649,3.00101 53.6914,18.92578 12.91544,15.6706 17.76065,38.17403 3.74024,63.68946 -0.22383,0.12037 -0.36013,0.21242 -0.67774,0.34179 -1.18489,0.48265 -2.93524,1.14602 -4.98047,2.07032 -4.09044,1.8486 -9.40975,4.79085 -14.75,9.85937 l -9.20315,9.92962 c -6.22181,2.43085 -8.55893,2.45312 -16.20703,2.45312 -30.21244,0 -54.17383,-23.96311 -54.17383,-54.17578 0,-10.94017 3.20811,-20.98909 8.66211,-29.44531 23.01939,-17.19126 0.49831,8.04634 33.89847,-23.64837 z"
             id="path79"
             sodipodi:nodetypes="ccscccscccccscssccsscc" />
        </g>
      </g>
      <g
         id="path22"
         class="st0"
         style="opacity:1"
         transform="matrix(0.26445936,0,0,0.26445936,-144.44224,-24.523223)">
        <path
           style="baseline-shift:baseline;display:inline;overflow:visible;vector-effect:none;fill:#e8362d;stroke:none;enable-background:accumulate;stop-color:#000000;stop-opacity:1"
           d="m 336.85733,380.19996 c -1.72194,0 -3.36839,0.0753 -5.01543,0.29973 l -1.123,3.21836 c 24.03196,8.38497 43.12159,27.47638 51.58143,51.50832 l 3.2198,-1.12298 c 0.14969,-1.64706 0.22524,-3.29382 0.22524,-4.94086 0,-27.02659 -21.86146,-48.96257 -48.88802,-48.96257 z m -22.83412,5.61492 c -3.96789,2.09624 -7.63604,4.79141 -10.93012,7.86094 v 7.2614 c 34.13884,0 61.83893,27.7764 61.83893,61.8404 h 7.2614 c 3.14437,-3.14437 5.84073,-6.81311 7.93696,-10.781 -4.12592,-29.46175 -24.85149,-53.64997 -52.32716,-62.9078 -4.43163,-1.49323 -9.03846,-2.59806 -13.78001,-3.27394 z m -7.4588,21.57952 c -1.52539,0 -2.94754,0.13185 -4.14541,0.43134 -3.81815,0.97326 -7.11257,3.06981 -9.658,5.91472 -2.99465,3.36895 -4.71566,7.78515 -4.71566,12.57659 0,8.53471 5.53949,15.7224 13.25068,18.19299 1.42246,0.4492 3.66875,0.6735 4.79172,0.82324 h 0.0747 c 8.38497,1.42243 14.82404,8.83416 14.82404,17.59349 0,3.51869 -1.04872,6.81311 -2.8455,9.65799 l 6.13842,3.89242 c 2.91976,0.74865 5.99016,1.27275 9.13453,1.49733 1.72191,-3.59356 2.91975,-7.56085 3.36895,-11.75335 1.19784,-12.12828 -4.19335,-23.43303 -13.25213,-30.3207 -4.7914,-3.59356 -10.63038,-6.06443 -16.99398,-6.66337 -1.64704,-0.14969 -2.91945,-1.64732 -2.69486,-3.29439 0.22467,-1.79678 1.72219,-2.91948 3.29439,-2.69486 6.96251,0.67378 13.32496,3.14377 18.64043,6.88707 11.52937,8.01065 18.56732,21.86199 17.06999,36.76034 -0.22467,2.39572 -0.67435,4.6411 -1.34815,6.88707 l 8.83476,2.47116 c 2.6203,-0.74865 5.24,-1.72248 7.63572,-2.84551 0.59891,-3.36895 0.97383,-6.88764 0.97383,-10.4812 0,-27.99986 -20.66267,-51.2077 -47.61439,-55.17559 -1.60961,-0.22467 -3.23854,-0.35678 -4.76394,-0.35678 z m 0.42113,44.90199 c -4.11763,0 -7.48661,3.36897 -7.48661,7.4866 0,4.11763 3.36898,7.48658 7.48661,7.48658 4.11763,0 7.48658,-3.36895 7.48658,-7.48658 0,-4.11763 -3.36895,-7.4866 -7.48658,-7.4866 z"
           id="path80" />
        <path
           style="baseline-shift:baseline;display:inline;overflow:visible;vector-effect:none;fill:#ffffff;stroke:none;enable-background:accumulate;stop-color:#000000;stop-opacity:1"
           d="m 336.85742,374.84766 c -1.87798,0 -3.77711,0.0804 -5.73828,0.34765 l -3.25,0.44336 -2.50781,7.18555 c -3.45485,-0.96678 -6.96571,-1.79311 -10.58203,-2.3086 l -1.72071,-0.24414 -1.53515,0.81055 c -4.43866,2.34495 -8.47934,5.32245 -12.08008,8.67774 l -1.70313,1.58789 v 12.42968 c -3.47455,1.45338 -6.52481,3.66306 -8.96875,6.39453 l -0.006,0.006 -0.006,0.006 c -3.86124,4.34385 -6.06641,10.05969 -6.06641,16.13282 0,10.8307 7.07003,20.08915 16.91601,23.26953 -3.21794,2.34385 -5.46289,5.95388 -5.46289,10.19726 0,7.03719 5.80269,12.83985 12.83985,12.83985 2.11103,0 4.02558,-0.64936 5.79101,-1.57032 l -2.01562,3.19141 11.36719,7.20703 0.82031,0.21094 c 3.2121,0.82361 6.59634,1.40129 10.08398,1.65039 l 3.63282,0.25977 1.57421,-3.28516 c 0.255,-0.53217 0.40797,-1.13094 0.64258,-1.67774 l 11.4668,3.20704 1.45508,-0.41602 c 2.89311,-0.82659 5.75877,-1.8917 8.43554,-3.14648 l 2.51368,-1.17774 0.48437,-2.73047 c 0.35689,-2.00753 0.6169,-4.09196 0.80078,-6.21484 h 10.3711 l 1.56836,-1.56836 c 3.53451,-3.53451 6.53953,-7.6272 8.88476,-12.06641 l 0.80859,-1.52929 -0.24023,-1.71289 c -0.50978,-3.64017 -1.31248,-7.1832 -2.2793,-10.65625 l 9.38766,-2.57618 c 3.90956,-42.95629 -29.52935,-63.17382 -55.68258,-63.17382 z m -21.78906,16.60742 c 3.77396,0.63669 7.46988,1.50705 11.02539,2.70508 25.01911,8.4301 43.95327,30.22046 48.36328,56.83593 -1.28994,2.19837 -2.7893,4.24581 -4.45898,6.14258 -2.72702,-32.45436 -28.67551,-58.48913 -61.17383,-61.26172 1.9818,-1.65828 4.06003,-3.14769 6.24414,-4.42187 z m -8.50391,21.29101 c 1.20986,0 2.60502,0.11063 4.00196,0.30469 24.35748,3.59495 43.02343,24.51665 43.02343,49.87695 0,2.24489 -0.33431,4.44534 -0.62109,6.65039 -0.94667,0.36964 -1.86726,0.74835 -2.84375,1.0586 l -2.44922,-0.6836 c 0.13714,-0.85649 0.41312,-1.6605 0.49609,-2.54101 1.68986,-16.88051 -6.28086,-32.59709 -19.34179,-41.67188 -5.9955,-4.21523 -13.16993,-6.99558 -20.97852,-7.78711 -4.48922,-0.61559 -8.74217,2.89529 -9.31054,7.29688 -0.62824,4.74535 2.91783,8.90085 7.51171,9.31836 5.28481,0.50098 10.18888,2.56354 14.24414,5.59961 7.6157,5.79394 12.15968,15.27103 11.16016,25.49805 -0.23697,2.20012 -0.78755,4.30232 -1.47266,6.34375 -1.2444,-0.19822 -2.51312,-0.31877 -3.71484,-0.60938 l -1.36328,-0.86328 c 0.8491,-2.40861 1.43359,-4.93211 1.43359,-7.60938 0,-11.38245 -8.31902,-21.01145 -19.28125,-22.87109 l -0.44531,-0.0762 h -0.11133 c -1.34745,-0.1847 -3.23011,-0.46406 -3.58008,-0.57227 -5.54346,-1.77996 -9.52343,-6.8763 -9.52343,-13.09179 0,-3.50816 1.23504,-6.62201 3.36133,-9.01563 1.88227,-2.10029 4.22871,-3.58408 6.96875,-4.28516 0.59066,-0.14655 1.62402,-0.26953 2.83593,-0.26953 z m 0.42188,44.90235 c 1.19808,0 2.13281,0.93667 2.13281,2.13476 0,1.1981 -0.93471,2.13477 -2.13281,2.13477 -1.1981,0 -2.13477,-0.9367 -2.13477,-2.13477 0,-1.19807 0.93669,-2.13476 2.13477,-2.13476 z"
           id="path81"
           sodipodi:nodetypes="cccccccccccccscsscccccccccccccccscccccccccccccccscccccccccccccsccccsccccsssss" />
      </g>
      <path
         style="baseline-shift:baseline;display:none;overflow:visible;opacity:1;vector-effect:none;fill:#ffffff;stroke:none;enable-background:accumulate;stop-color:#000000;stop-opacity:1"
         d="m 336.89453,330.20117 c -44.6774,0 -81.00976,36.33432 -81.00976,81.01172 0,44.6774 36.33236,81.00977 81.00976,81.00977 44.6774,0 81.01172,-36.33237 81.01172,-81.00977 0,-44.6774 -36.33432,-81.01172 -81.01172,-81.01172 z m 0,10.70508 c 38.89198,0 70.30664,31.41466 70.30664,70.30664 0,38.89198 -31.41466,70.30469 -70.30664,70.30469 -38.89198,0 -70.30469,-31.41271 -70.30469,-70.30469 0,-38.89198 31.41271,-70.30664 70.30469,-70.30664 z"
         id="circle22"
         transform="matrix(0.26445936,0,0,0.26445936,-144.44224,-24.523223)" />
      <g
         id="path23"
         inkscape:label="Backdrop"
         style="opacity:1;stroke-width:2.83104;stroke-dasharray:none"
         transform="translate(-24.870831,75.670831)">
        <path
           style="baseline-shift:baseline;display:inline;overflow:visible;fill:#e8362d;stroke:none;stroke-width:2.83104;stroke-dasharray:none;enable-background:accumulate;stop-color:#000000;stop-opacity:1"
           d="M 135.75605,-7.6200037 V 34.184167 h 71.53621 V -7.6200037 Z m 56.77845,7.655346 h 2.74557 c 1.24052,-7.711e-5 2.32526,0.8359228 2.64119,2.035535 l 6.44043,24.4579377 h -4.60592 l -1.76682,-7.302396 h -8.16281 l -1.76681,7.302396 h -4.60592 l 6.43991,-24.4579377 c 0.31593,-1.19960881 1.40067,-2.03560792 2.64118,-2.035535 z m -32.67139,0.0041 c 2.52353,-3.584e-5 4.56927,2.0456991 4.56923,4.56923 V 21.955417 c -2.5e-4,2.523329 -2.0459,4.568748 -4.56923,4.568714 H 147.8163 v -0.02636 -26.4319787 -0.02584 z m 11.39672,0.01344 h 10.71563 v 3.704167 h -10.08104 c -0.82021,0 -1.26969,0.714168 -1.26969,1.507918 v 5.5035397 h 9.92187 v 3.704167 h -9.92187 v 6.826457 c 0,0.79375 0.44948,1.507918 1.26969,1.507918 h 10.08104 v 3.704167 h -10.71563 c -1.13771,0 -2.3552,-0.449997 -3.20187,-1.270207 -0.84666,-0.82021 -1.40198,-2.010518 -1.40198,-3.518648 V 4.8154123 c 0,-1.508125 0.55532,-2.698957 1.40198,-3.519165 0.84667,-0.820209 2.09062,-1.243335 3.20187,-1.243335 z m -30.45602,0.01344 h 3.96875 V 26.497784 h -3.96875 z m 53.08927,3.196704 c -0.0885,0.00611 -0.16295,0.068486 -0.18449,0.154513 l -2.93005,11.7873937 h 6.25802 L 194.10598,3.4175393 c -0.0241,-0.096317 -0.11385,-0.161451 -0.2129,-0.154513 z m -42.08116,0.480591 v 0.02687 19.0236447 0.02635 l 7.38766,-0.02274 c 0.71319,-0.0021 1.29026,-0.580785 1.29037,-1.293978 V 5.0603583 c -1.1e-4,-0.7131922 -0.57718,-1.2918794 -1.29037,-1.293977 z"
           id="path74" />
        <path
           style="baseline-shift:baseline;display:inline;overflow:visible;fill:#ffffff;stroke:none;stroke-width:2.83104;stroke-dasharray:none;enable-background:accumulate;stop-color:#000000;stop-opacity:1"
           d="M 134.41992,-8.9570313 V 35.519531 h 74.20899 V -8.9570313 Z"
           id="path75"
           sodipodi:nodetypes="ccccc" />
      </g>
      <g
         id="g30"
         transform="translate(56.056435,9.0213581)"
         inkscape:label="Letras"
         style="display:none;stroke:#ffffff;stroke-width:2.83104;stroke-dasharray:none;stroke-opacity:1">
        <g
           id="path27"
           inkscape:label="A Turbo"
           style="opacity:1"
           transform="translate(-53.463672,-9.003587)">
          <path
             style="font-weight:500;font-size:35.2778px;font-family:'Neo Sans Std';-inkscape-font-specification:'Neo Sans Std, Medium';baseline-shift:baseline;display:inline;overflow:visible;vector-effect:none;stroke:none;enable-background:accumulate;stop-color:#000000;stop-opacity:1"
             d="m 162.42973,77.724031 -6.44028,24.457849 h 4.60592 l 1.76681,-7.3024 h 8.16281 l 1.76682,7.3024 h 4.60592 l -6.44029,-24.457849 a 2.7310733,2.7310733 37.623817 0 0 -2.64105,-2.035628 h -2.74561 a 2.7310723,2.7310723 142.37617 0 0 -2.64105,2.035628 z m 4.21253,1.346834 2.93034,11.787155 h -6.25802 l 2.93034,-11.787155 a 0.20472114,0.20472114 0 0 1 0.39734,0 z"
             id="path82" />
          <path
             style="font-weight:500;font-size:35.2778px;font-family:'Neo Sans Std';-inkscape-font-specification:'Neo Sans Std, Medium';baseline-shift:baseline;display:inline;overflow:visible;vector-effect:none;fill:#ffffff;stroke:none;enable-background:accumulate;stop-color:#000000;stop-opacity:1"
             d="m 165.07031,74.273437 c -1.87649,-4e-6 -3.53193,1.275213 -4.00976,3.089844 l -6.90821,26.234379 h 7.55664 l 1.76758,-7.302738 h 5.9336 l 1.76757,7.302738 h 7.55664 l -6.9082,-26.234379 c -0.47783,-1.81463 -2.13328,-3.089847 -4.00976,-3.089844 z m 0,2.830079 h 2.7461 c 0.60449,-2e-6 1.11755,0.395902 1.27148,0.980468 l 5.97266,22.681646 h -1.6543 l -1.76758,-7.300786 h -10.39062 l -1.76563,7.300786 h -1.65625 l 5.97266,-22.681646 c 0.15393,-0.584566 0.66699,-0.98047 1.27148,-0.980468 z M 166.44336,77.5 c -0.65153,0 -1.39409,0.512053 -1.57227,1.228516 l -3.36718,13.544921 h 9.8789 L 168.01562,78.728516 C 167.83745,78.012053 167.09489,77.5 166.44336,77.5 Z m 0,6.638672 1.31836,5.304687 H 165.125 Z"
             id="path83" />
        </g>
        <g
           id="path28"
           inkscape:label="A"
           style="opacity:1">
          <path
             style="baseline-shift:baseline;display:none;overflow:visible;vector-effect:none;stroke:none;enable-background:accumulate;stop-color:#000000;stop-opacity:1"
             d="m 108.07194,66.742181 c -2.14428,0 -4.60385,1.580355 -4.60385,4.788855 v 21.589892 h 3.96875 V 81.161976 h 11.08615 v 11.958952 h 3.96875 V 71.531036 c 0,-3.21149 -2.46159,-4.788855 -4.60385,-4.788855 z m 0.6351,3.704165 h 8.54626 c 0.82021,0 1.26969,0.71417 1.26969,1.50792 v 5.50354 h -11.08615 v -5.50354 c 0,-0.79375 0.44999,-1.50792 1.2702,-1.50792 z"
             id="path84" />
          <path
             style="baseline-shift:baseline;display:none;overflow:visible;vector-effect:none;fill:#ffffff;stroke:none;enable-background:accumulate;stop-color:#000000;stop-opacity:1"
             d="m 108.07227,65.326172 c -1.4199,0 -2.89037,0.506752 -4.05469,1.55664 -1.16432,1.049889 -1.96485,2.682485 -1.96485,4.648438 v 23.005859 h 6.79883 V 82.578125 h 8.25586 v 11.958984 h 6.80078 V 71.53125 c 0,-1.967408 -0.80203,-3.600896 -1.96679,-4.650391 -1.16477,-1.049494 -2.63419,-1.554687 -4.05274,-1.554687 z m 0,2.832031 h 9.8164 c 0.72371,0 1.55466,0.284111 2.15625,0.826172 0.6016,0.542061 1.03125,1.302793 1.03125,2.546875 v 20.173828 h -1.13672 V 79.746094 h -13.91797 v 11.958984 h -1.13867 V 71.53125 c 0,-1.242547 0.42972,-2.004461 1.03125,-2.546875 0.60154,-0.542414 1.43382,-0.826172 2.15821,-0.826172 z m 0.63476,0.873047 c -0.82094,0 -1.61427,0.426845 -2.0625,1.005859 -0.44823,0.579014 -0.62305,1.2536 -0.62305,1.917969 v 6.917969 h 13.91797 v -6.917969 c 0,-0.664066 -0.17693,-1.33883 -0.625,-1.917969 -0.44806,-0.579138 -1.2396,-1.005859 -2.06054,-1.005859 z m 0.16016,2.830078 h 8.22461 c 0.0102,0.03304 0.0156,0.02824 0.0156,0.09375 v 4.087891 h -8.25586 v -4.087891 c 0,-0.06535 0.005,-0.06077 0.0156,-0.09375 z"
             id="path85" />
        </g>
        <g
           id="path29"
           inkscape:label="E2"
           style="opacity:1">
          <path
             style="baseline-shift:baseline;display:inline;overflow:visible;vector-effect:none;stroke:none;enable-background:accumulate;stop-color:#000000;stop-opacity:1"
             d="m 87.130836,67.945933 c -0.84666,0.820208 -1.40229,2.010833 -1.40229,3.518958 v 16.906874 c 0,1.50813 0.55563,2.698742 1.40229,3.518952 0.84667,0.82021 2.06375,1.27 3.20146,1.27 H 101.04793 V 89.456555 H 90.967296 c -0.82021,0 -1.27,-0.71437 -1.27,-1.50812 v -6.826253 h 9.921887 v -3.704166 h -9.921887 v -5.503333 c 0,-0.79375 0.44979,-1.508125 1.27,-1.508125 H 101.04793 V 66.702391 H 90.332296 c -1.11125,0 -2.35479,0.423333 -3.20146,1.243542"
             id="path86" />
          <path
             style="baseline-shift:baseline;display:inline;overflow:visible;vector-effect:none;fill:#ffffff;stroke:none;enable-background:accumulate;stop-color:#000000;stop-opacity:1"
             d="m 90.332031,65.287109 c -1.470747,0 -3.016203,0.50978 -4.185547,1.642578 -1.116064,1.081196 -1.833984,2.679357 -1.833984,4.535157 v 16.90625 c 0,1.855804 0.717927,3.455918 1.833984,4.537109 1.147832,1.11196 2.674756,1.667969 4.185547,1.667969 H 102.46289 V 88.041016 H 91.128906 c -0.01006,-0.03315 -0.01563,-0.02771 -0.01563,-0.0918 v -5.41211 h 9.921884 V 76.00195 h -9.921884 v -4.087891 c 0,-0.06409 0.0056,-0.05864 0.01563,-0.0918 h 11.333984 v -6.535157 z m 0,2.830078 h 9.300781 v 0.873047 h -8.666015 c -0.821062,0 -1.61439,0.426763 -2.0625,1.00586 -0.44811,0.579097 -0.623047,1.253718 -0.623047,1.917968 v 6.919922 h 9.921875 v 0.873047 H 88.28125 v 8.242188 c 0,0.66425 0.174935,1.338872 0.623047,1.917968 0.448112,0.579097 1.241441,1.00586 2.0625,1.00586 h 8.666015 v 0.873047 h -9.300781 c -0.764629,0 -1.671289,-0.342634 -2.216797,-0.871094 -0.577262,-0.559229 -0.970703,-1.34345 -0.970703,-2.503906 v -16.90625 c 0,-1.16045 0.393447,-1.942732 0.970703,-2.501953 0.523997,-0.50762 1.465044,-0.845703 2.216797,-0.845704 z"
             id="path87" />
        </g>
        <g
           id="path30"
           inkscape:label="D"
           style="opacity:1"
           transform="translate(-24.092176,-54.427422)">
          <path
             style="baseline-shift:baseline;display:inline;overflow:visible;vector-effect:none;stroke:none;enable-background:accumulate;stop-color:#000000;stop-opacity:1"
             d="m 90.98101,121.11664 v 0.0263 26.43198 0.0264 h 12.04687 a 4.5691678,4.5691678 135 0 0 4.56917,-4.56917 V 125.6858 a 4.5691651,4.5691651 44.999983 0 0 -4.56917,-4.56917 z m 11.38341,22.75809 -7.387788,0.0225 v -0.0264 -19.02364 -0.0264 l 7.387788,0.0225 a 1.2941764,1.2941764 45.087151 0 1 1.29024,1.29418 v 16.44314 a 1.2941764,1.2941764 134.91285 0 1 -1.29024,1.29418 z"
             id="path88" />
          <path
             style="baseline-shift:baseline;display:inline;overflow:visible;vector-effect:none;fill:#ffffff;stroke:none;enable-background:accumulate;stop-color:#000000;stop-opacity:1"
             d="m 89.566406,119.70117 v 1.44141 26.43164 1.44336 h 13.460934 c 3.28849,0 5.98438,-2.69784 5.98438,-5.98633 v -17.3457 c 0,-3.28849 -2.69589,-5.98438 -5.98438,-5.98438 z m 2.830078,2.83008 h 10.630856 c 1.75848,0 3.1543,1.39582 3.1543,3.1543 v 17.3457 c 0,1.75848 -1.39582,3.1543 -3.1543,3.1543 H 92.396484 Z m 1.164063,0.86914 v 1.44727 19.02343 1.44532 l 7.388673,-0.0215 1.41992,-0.004 c 1.4767,-0.005 2.70118,-1.23424 2.70117,-2.71094 v -16.44336 c 10e-6,-1.47671 -1.22447,-2.70449 -2.70117,-2.70899 z m 2.832031,2.83984 5.845702,0.0195 v 16.19921 l -5.845702,0.0195 z"
             id="path89" />
        </g>
        <g
           id="rect30"
           inkscape:label="I"
           style="opacity:1">
          <path
             style="baseline-shift:baseline;display:inline;overflow:visible;vector-effect:none;stroke:none;enable-background:accumulate;stop-color:#000000;stop-opacity:1"
             d="m 59.876392,66.715614 h 3.96875 V 93.14749 h -3.96875 z"
             id="path90" />
          <path
             style="baseline-shift:baseline;display:inline;overflow:visible;vector-effect:none;fill:#ffffff;stroke:none;enable-background:accumulate;stop-color:#000000;stop-opacity:1"
             d="M 58.460937,65.300781 V 94.5625 h 6.798829 V 65.300781 Z m 2.830079,2.830078 h 1.138671 v 23.601563 h -1.138671 z"
             id="path91" />
        </g>
      </g>
      <g
         id="path31"
         inkscape:label="S2"
         style="opacity:1">
        <path
           style="baseline-shift:baseline;display:inline;overflow:visible;vector-effect:none;stroke:none;enable-background:accumulate;stop-color:#000000;stop-opacity:1"
           d="m 103.31979,86.439375 h -6.164792 c -0.79375,0 -1.428749,-0.635 -1.428749,-1.42875 v -4.074583 c 0,-0.79375 0.449791,-1.508125 1.269999,-1.508125 h 9.895422 V 75.72375 H 96.33479 c -1.11125,0 -2.354791,0.449792 -3.201458,1.27 -0.846667,0.820208 -1.402292,2.010833 -1.402292,3.518958 v 5.476875 c 0,2.566458 2.090209,4.656667 4.656667,4.656667 h 6.164793 c 0.79375,0 1.42875,0.635 1.42875,1.42875 v 4.894791 c 0,0.79375 -0.44979,1.508125 -1.27,1.508125 H 91.757499 v 3.704164 h 11.615211 c 1.11125,0 2.35479,-0.44979 3.20146,-1.27 0.84666,-0.82021 1.40229,-2.01083 1.40229,-3.518955 v -6.297084 c 0,-2.566458 -2.09021,-4.656666 -4.65667,-4.656666"
           id="path92" />
        <path
           style="baseline-shift:baseline;display:inline;overflow:visible;vector-effect:none;fill:#ffffff;stroke:none;enable-background:accumulate;stop-color:#000000;stop-opacity:1"
           d="m 96.333984,74.308594 c -1.493216,0 -3.027131,0.545754 -4.185547,1.667968 -1.116075,1.081198 -1.832031,2.681313 -1.832031,4.53711 v 5.476562 c 0,3.335023 2.737243,6.072266 6.072266,6.072266 h 6.164058 c 0.0388,0 0.0137,-0.02709 0.0137,0.01172 v 4.896484 c 0,0.06475 -0.006,0.05869 -0.0156,0.0918 H 90.341797 v 6.535156 h 13.031253 c 1.49321,0 3.02713,-0.54576 4.18554,-1.66797 1.11606,-1.0812 1.83399,-2.681308 1.83399,-4.537108 v -6.296875 c 0,-3.335023 -2.73724,-6.072266 -6.07227,-6.072266 h -6.166013 c -0.03881,0 -0.01172,0.02513 -0.01172,-0.01367 v -4.074219 c 0,-0.06409 0.0056,-0.05864 0.01563,-0.0918 h 11.148433 v -6.535156 z m 0,2.830078 h 9.142576 v 0.873047 h -8.480466 c -0.821062,0 -1.61439,0.426763 -2.0625,1.005859 -0.44811,0.579097 -0.623047,1.253718 -0.623047,1.917969 v 4.074219 c 0,1.548693 1.295055,2.845703 2.84375,2.845703 h 6.166013 c 1.7979,0 3.24024,1.442341 3.24024,3.240234 v 6.296875 c 0,1.16045 -0.39345,1.942728 -0.97071,2.501953 -0.53492,0.518209 -1.48751,0.871089 -2.21679,0.871099 H 93.173828 v -0.873052 h 9.537112 c 0.82106,0 1.61439,-0.424809 2.0625,-1.003906 0.44811,-0.579097 0.62304,-1.253719 0.62304,-1.917969 v -4.896484 c 0,-1.548695 -1.29505,-2.84375 -2.84375,-2.84375 h -6.164058 c -1.797893,0 -3.242188,-1.442342 -3.242188,-3.240235 v -5.476562 c 0,-1.160453 0.395398,-1.944688 0.972657,-2.503906 0.534918,-0.518202 1.48556,-0.871094 2.214843,-0.871094 z"
           id="path93" />
      </g>
      <g
         id="path32"
         inkscape:label="S1"
         style="opacity:1">
        <path
           style="baseline-shift:baseline;display:inline;overflow:visible;vector-effect:none;stroke:none;enable-background:accumulate;stop-color:#000000;stop-opacity:1"
           d="m 83.819999,86.439375 h -6.164792 c -0.79375,0 -1.42875,-0.635 -1.42875,-1.42875 v -4.074583 c 0,-0.79375 0.449792,-1.508125 1.27,-1.508125 h 9.895417 V 75.72375 H 76.834999 c -1.11125,0 -2.354792,0.449792 -3.201459,1.27 -0.846666,0.820208 -1.402291,2.010833 -1.402291,3.518958 v 5.476875 c 0,2.566458 2.090208,4.656667 4.656666,4.656667 h 6.164792 c 0.79375,0 1.42875,0.635 1.42875,1.42875 v 4.894791 c 0,0.79375 -0.449792,1.508125 -1.27,1.508125 h -10.95375 v 3.704164 h 11.615208 c 1.11125,0 2.354792,-0.44979 3.201459,-1.27 0.846666,-0.82021 1.402291,-2.01083 1.402291,-3.518955 v -6.297084 c 0,-2.566458 -2.090208,-4.656666 -4.656666,-4.656666"
           id="path94" />
        <path
           style="baseline-shift:baseline;display:inline;overflow:visible;vector-effect:none;fill:#ffffff;stroke:none;enable-background:accumulate;stop-color:#000000;stop-opacity:1"
           d="m 76.835937,74.308594 c -1.493216,0 -3.029084,0.545754 -4.1875,1.667968 -1.116074,1.081198 -1.832031,2.681313 -1.832031,4.53711 v 5.476562 c 0,3.335023 2.737243,6.072266 6.072266,6.072266 h 6.164062 c 0.03881,0 0.01367,-0.02709 0.01367,0.01172 v 4.896484 c 0,0.06475 -0.0055,0.05869 -0.01563,0.0918 H 70.841797 v 6.535156 h 13.03125 c 1.493214,0 3.02713,-0.54575 4.185547,-1.66797 1.116071,-1.0812 1.833984,-2.681311 1.833984,-4.537108 v -6.296875 c 0,-3.335022 -2.737243,-6.072266 -6.072266,-6.072266 h -6.166015 c -0.03881,0 -0.01172,0.02513 -0.01172,-0.01367 v -4.074219 c 0,-0.06409 0.0056,-0.05864 0.01563,-0.0918 h 11.148438 v -6.535156 z m 0,2.830078 h 9.140625 v 0.873047 h -8.480468 c -0.821062,0 -1.61439,0.426763 -2.0625,1.005859 -0.448111,0.579096 -0.623047,1.253718 -0.623047,1.917969 v 4.074219 c 0,1.548694 1.295055,2.845703 2.84375,2.845703 h 6.166015 c 1.797894,0 3.240235,1.442341 3.240235,3.240234 v 6.296875 c 0,1.160453 -0.393442,1.94273 -0.970703,2.501953 -0.534918,0.518199 -1.487512,0.871089 -2.216797,0.871099 H 73.673828 v -0.873052 h 9.537109 c 0.821062,0 1.61439,-0.42481 2.0625,-1.003906 0.448111,-0.579096 0.623047,-1.253718 0.623047,-1.917969 v -4.896484 c 0,-1.548695 -1.295055,-2.84375 -2.84375,-2.84375 h -6.164062 c -1.797893,0 -3.242188,-1.442341 -3.242188,-3.240235 v -5.476562 c 0,-1.160453 0.395399,-1.944688 0.972657,-2.503906 0.534918,-0.518202 1.487513,-0.871094 2.216796,-0.871094 z"
           id="path95" />
      </g>
      <g
         id="path33"
         inkscape:label="E1"
         style="opacity:1">
        <path
           style="baseline-shift:baseline;display:inline;overflow:visible;vector-effect:none;stroke:none;enable-background:accumulate;stop-color:#000000;stop-opacity:1"
           d="m 54.848124,76.967292 c -0.846667,0.820208 -1.402292,2.010833 -1.402292,3.518958 v 16.906875 c 0,1.508125 0.555625,2.698745 1.402292,3.518955 0.846667,0.82021 2.06375,1.27 3.201458,1.27 H 68.765207 V 98.477916 H 58.684582 c -0.820208,0 -1.27,-0.714375 -1.27,-1.508125 v -6.82625 h 9.921875 v -3.704166 h -9.921875 v -5.503333 c 0,-0.79375 0.449792,-1.508125 1.27,-1.508125 H 68.765207 V 75.72375 H 58.049582 c -1.11125,0 -2.354791,0.423333 -3.201458,1.243542"
           id="path96" />
        <path
           style="baseline-shift:baseline;display:inline;overflow:visible;vector-effect:none;fill:#ffffff;stroke:none;enable-background:accumulate;stop-color:#000000;stop-opacity:1"
           d="m 58.048828,74.308594 c -1.470747,0 -3.016204,0.509777 -4.185547,1.642578 -1.116076,1.081197 -1.832031,2.679359 -1.832031,4.535156 v 16.90625 c 0,1.855797 0.715959,3.455912 1.832031,4.537112 1.147832,1.11196 2.674757,1.66797 4.185547,1.66797 H 70.181641 V 97.0625 H 58.845703 c -0.01012,-0.03311 -0.01563,-0.02705 -0.01563,-0.0918 v -5.412109 h 9.921875 v -6.535157 h -9.921875 v -4.08789 c 0,-0.06409 0.0056,-0.05864 0.01563,-0.0918 h 11.335938 v -6.535156 z m 0,2.830078 h 9.300781 v 0.873047 h -8.664062 c -0.821062,0 -1.61439,0.426763 -2.0625,1.005859 C 56.174937,79.596674 56,80.271296 56,80.935547 v 6.919922 h 9.921875 v 0.873047 H 56 v 8.242187 c 0,0.664251 0.174937,1.338873 0.623047,1.917969 0.44811,0.579096 1.241438,1.003906 2.0625,1.003906 h 8.664062 v 0.873052 h -9.300781 c -0.764626,0 -1.669341,-0.34264 -2.214844,-0.871099 -0.577261,-0.559223 -0.972656,-1.3415 -0.972656,-2.501953 v -16.90625 c 0,-1.160453 0.395398,-1.942735 0.972656,-2.501953 0.523992,-0.507617 1.463091,-0.845703 2.214844,-0.845703 z"
           id="path97" />
      </g>
      <g
         id="path34"
         inkscape:label="R"
         style="opacity:1">
        <path
           style="baseline-shift:baseline;display:inline;overflow:visible;vector-effect:none;stroke:none;enable-background:accumulate;stop-color:#000000;stop-opacity:1"
           d="m 47.201666,91.096041 c 0.449791,-0.211666 0.873125,-0.47625 1.217083,-0.820208 0.846667,-0.820208 1.402292,-2.010833 1.402292,-3.518958 v -6.297083 c 0,-1.508125 -0.555625,-2.69875 -1.402292,-3.518959 -0.846667,-0.820208 -2.06375,-1.27 -3.201458,-1.27 l -11.456458,0.05292 v 26.458327 h 3.96875 V 91.545833 h 4.101041 c 1.031875,0.05292 2.963333,0.47625 3.545417,3.122083 l 1.561041,7.514164 4.339167,-0.0265 -1.640417,-7.06437 C 49.133124,92.842291 48.339374,91.678125 47.201666,91.096041 M 37.729583,79.427917 v -0.02646 h 6.826249 c 0.820209,0 1.27,0.714375 1.27,1.508125 v 5.423958 c 0,0.79375 -0.449791,1.508125 -1.27,1.508125 h -6.826249 z"
           id="path98" />
        <path
           style="baseline-shift:baseline;display:inline;overflow:visible;vector-effect:none;fill:#ffffff;stroke:none;enable-background:accumulate;stop-color:#000000;stop-opacity:1"
           d="m 45.214844,74.255859 -12.869141,0.05859 v 29.283211 h 6.798828 V 92.960937 h 2.619141 c 0.367597,0.01949 0.849501,0.109655 1.238281,0.361329 0.39064,0.252877 0.768333,0.63287 0.992188,1.65039 l 1.792968,8.632814 7.267578,-0.0449 -2.037109,-8.777347 c -0.333452,-1.491735 -0.914424,-2.592213 -1.621094,-3.490234 0.0043,-0.0042 0.0094,-0.0055 0.01367,-0.0098 1.111516,-1.08108 1.826172,-2.674016 1.826172,-4.525391 V 80.45897 c 0,-1.855796 -0.715956,-3.453958 -1.832031,-4.535156 -1.147831,-1.11196 -2.676709,-1.667969 -4.1875,-1.667969 z m 0.002,2.830078 c 0.764624,0 1.671293,0.342638 2.216797,0.871094 0.577259,0.55922 0.972656,1.3415 0.972656,2.501953 v 6.298828 c 0,1.160454 -0.395398,1.942735 -0.972656,2.501954 l -0.0078,0.0078 -0.0078,0.0078 c -0.18997,0.189969 -0.470162,0.375205 -0.81836,0.539062 l 0.601563,1.279297 -0.644531,1.261719 c 0.694067,0.355105 1.241071,1.004087 1.697265,3.044922 l 0.002,0.0059 1.240235,5.345704 -1.408203,0.008 -1.328125,-6.38868 -0.002,-0.0078 c -0.358229,-1.628313 -1.238218,-2.784493 -2.216796,-3.417969 -0.978579,-0.633475 -1.975038,-0.778465 -2.638672,-0.8125 l -0.03516,-0.002 H 36.314453 V 100.76563 H 35.175781 V 77.132812 Z M 36.3145,77.986328 v 1.441406 9.830078 h 8.242188 c 0.821061,10e-7 1.612436,-0.426762 2.060546,-1.005859 0.448111,-0.579097 0.625,-1.253718 0.625,-1.917969 v -5.423828 c 0,-0.664251 -0.176889,-1.338872 -0.625,-1.917969 -0.44811,-0.579096 -1.239485,-1.005859 -2.060546,-1.005859 z m 2.830078,2.830078 h 5.25 c 0.01017,0.03305 0.01563,0.02834 0.01563,0.09375 v 5.423828 c 0,0.06409 -0.0056,0.05864 -0.01563,0.0918 h -5.25 z"
           id="path99" />
      </g>
      <g
         id="path35"
         inkscape:label="P"
         style="opacity:1">
        <path
           style="baseline-shift:baseline;display:inline;overflow:visible;vector-effect:none;stroke:none;enable-background:accumulate;stop-color:#000000;stop-opacity:1"
           d="m 25.770416,75.697292 -12.038541,0.02646 v 26.458328 h 3.968749 V 91.889791 h 8.043334 c 1.11125,0 2.354791,-0.449791 3.201458,-1.27 0.846667,-0.820208 1.402292,-2.010833 1.402292,-3.518958 v -6.641041 c 0,-1.508125 -0.555625,-2.69875 -1.402292,-3.518959 -0.820208,-0.820208 -2.06375,-1.243541 -3.175,-1.243541 m 0.635,10.980208 c 0,0.79375 -0.449792,1.508125 -1.27,1.508125 h -7.408333 v -8.757708 -0.02646 h 7.408333 c 0.820208,0 1.27,0.714375 1.27,1.508125 z"
           id="path100" />
        <path
           style="baseline-shift:baseline;display:inline;overflow:visible;vector-effect:none;fill:#ffffff;stroke:none;enable-background:accumulate;stop-color:#000000;stop-opacity:1"
           d="m 25.767578,74.28125 -13.451172,0.0293 v 29.28711 h 6.798828 V 93.304687 h 6.628907 c 1.493215,0 3.027131,-0.545752 4.185546,-1.667968 1.116076,-1.081198 1.833985,-2.67936 1.833985,-4.535157 v -6.642578 c 0,-1.852005 -0.715959,-3.446245 -1.828125,-4.527343 -1.152759,-1.146483 -2.699694,-1.650391 -4.166016,-1.650391 v 0.943359 z m 0.002,2.832031 c 0.751753,0 1.689215,0.341559 2.175781,0.828125 l 0.0078,0.0078 0.0078,0.0078 c 0.577259,0.55922 0.970704,1.3415 0.970704,2.501953 v 6.642578 c 0,1.160454 -0.393445,1.942735 -0.970704,2.501954 -0.534918,0.518202 -1.487512,0.871093 -2.216796,0.871093 H 16.285156 V 100.76563 H 15.146484 V 77.136719 Z M 16.3125,77.986328 v 1.441406 10.173828 h 8.822266 c 0.821061,0 1.614389,-0.426763 2.0625,-1.005859 0.44811,-0.579096 0.623047,-1.253717 0.623046,-1.917969 v -5.767578 c 10e-7,-0.664251 -0.174936,-1.338872 -0.623046,-1.917969 -0.448111,-0.579096 -1.241439,-1.005859 -2.0625,-1.005859 z m 2.830078,2.830078 h 5.832031 c 0.01017,0.03305 0.01563,0.02834 0.01563,0.09375 v 5.767578 c 0,0.06409 -0.0056,0.05864 -0.01563,0.0918 h -5.832031 z"
           id="path101" />
      </g>
      <g
         id="path36"
         inkscape:label="S0"
         style="opacity:1">
        <path
           style="baseline-shift:baseline;display:inline;overflow:visible;vector-effect:none;stroke:none;enable-background:accumulate;stop-color:#000000;stop-opacity:1"
           d="m 5.503333,86.439375 h -6.16479161 c -0.79374999,0 -1.42874999,-0.635 -1.42874999,-1.42875 v -4.074583 c 0,-0.79375 0.4497917,-1.508125 1.26999999,-1.508125 H 9.0752079 V 75.72375 H -1.4816669 c -1.11125,0 -2.3547917,0.449792 -3.2014583,1.27 -0.8466667,0.820208 -1.4022917,2.010833 -1.4022917,3.518958 v 5.476875 c 0,2.566458 2.0902083,4.656667 4.6566666,4.656667 h 6.1647916 c 0.79375,0 1.42875,0.635 1.42875,1.42875 v 4.894791 c 0,0.79375 -0.4497917,1.508125 -1.27,1.508125 H -6.0589585 v 3.704164 H 5.5562496 c 1.11125,0 2.3547917,-0.44979 3.2014583,-1.27 C 9.6043746,100.09187 10.16,98.90125 10.16,97.393125 v -6.297084 c 0,-2.566458 -2.0902087,-4.656666 -4.656667,-4.656666"
           id="path102" />
        <path
           style="baseline-shift:baseline;display:inline;overflow:visible;vector-effect:none;fill:#ffffff;stroke:none;enable-background:accumulate;stop-color:#000000;stop-opacity:1"
           d="m -1.4824219,74.308594 c -1.4932162,0 -3.0271314,0.545754 -4.1855468,1.667968 C -6.7840442,77.05776 -7.5,78.657875 -7.5,80.513672 v 5.476562 c 0,3.335023 2.7352893,6.072266 6.0703125,6.072266 h 6.1660156 c 0.038806,0 0.013672,-0.02709 0.013672,0.01172 v 4.896484 c 0,0.06475 -0.00551,0.05869 -0.015625,0.0918 H -7.4746094 v 6.535156 h 13.03125 c 1.4932146,0 3.0271305,-0.54575 4.1855469,-1.66797 1.1160715,-1.0812 1.8339845,-2.681311 1.8339845,-4.537108 v -6.296875 c 0,-3.335023 -2.7372429,-6.072266 -6.0722658,-6.072266 h -6.16601557 c -0.0388055,0 -0.0117188,0.02513 -0.0117188,-0.01367 v -4.074219 c 0,-0.06409 0.005565,-0.05864 0.015625,-0.0918 H 10.490234 v -6.535156 z m 0,2.830078 h 9.1425781 v 0.873047 h -8.4804687 c -0.8210618,0 -1.6143897,0.426763 -2.0625,1.005859 -0.4481103,0.579097 -0.6230469,1.253718 -0.6230469,1.917969 v 4.074219 c 0,1.548694 1.2950555,2.845703 2.84375003,2.845703 H 5.5039062 c 1.7978938,0 3.2402344,1.442341 3.2402344,3.240234 v 6.296875 c 0,1.160453 -0.3934414,1.94273 -0.9707031,2.501953 -0.5349168,0.518199 -1.4875114,0.871089 -2.2167969,0.871099 H -4.6425781 v -0.873052 h 9.5371093 c 0.8210619,0 1.6143897,-0.42481 2.0625,-1.003906 0.4481104,-0.579097 0.6230469,-1.253718 0.6230469,-1.917969 v -4.896484 c 0,-1.548695 -1.2950555,-2.84375 -2.84375,-2.84375 h -6.1660156 c -1.7978934,0 -3.2402344,-1.442341 -3.2402344,-3.240235 v -5.476562 c 0,-1.160453 0.3953983,-1.944688 0.9726563,-2.503906 0.5349177,-0.518202 1.48556,-0.871094 2.2148437,-0.871094 z"
           id="path103" />
      </g>
      <g
         id="path37"
         inkscape:label="E0"
         style="opacity:1">
        <path
           style="baseline-shift:baseline;display:inline;overflow:visible;vector-effect:none;stroke:none;enable-background:accumulate;stop-color:#000000;stop-opacity:1"
           d="m -23.468542,76.967292 c -0.846666,0.820208 -1.402291,2.010833 -1.402291,3.518958 v 16.906875 c 0,1.508125 0.555625,2.698745 1.402291,3.518955 0.846667,0.82021 2.06375,1.27 3.201459,1.27 H -9.5514585 V 98.477916 H -19.632083 c -0.820209,0 -1.27,-0.714375 -1.27,-1.508125 v -6.82625 h 9.921875 v -3.704166 h -9.921875 v -5.503333 c 0,-0.79375 0.449791,-1.508125 1.27,-1.508125 H -9.5514585 V 75.72375 H -20.267083 c -1.11125,0 -2.354792,0.423333 -3.201459,1.243542"
           id="path104" />
        <path
           style="baseline-shift:baseline;display:inline;overflow:visible;vector-effect:none;fill:#ffffff;stroke:none;enable-background:accumulate;stop-color:#000000;stop-opacity:1"
           d="m -20.267578,74.308594 c -1.470747,0 -3.016204,0.509777 -4.185547,1.642578 -1.116074,1.081197 -1.833984,2.679359 -1.833984,4.535156 v 16.90625 c 0,1.855797 0.717913,3.455912 1.833984,4.537112 1.147831,1.11196 2.674756,1.66797 4.185547,1.66797 H -8.1367188 V 97.0625 H -19.470703 c -0.01012,-0.03311 -0.01563,-0.02705 -0.01563,-0.0918 v -5.412109 h 9.9218749 v -6.535157 h -9.9218749 v -4.08789 c 0,-0.06409 0.0056,-0.05864 0.01563,-0.0918 h 11.3339842 v -6.535156 z m 0,2.830078 h 9.300781 v 0.873047 h -8.666015 c -0.821062,0 -1.612437,0.426762 -2.060547,1.005859 -0.448111,0.579097 -0.625,1.253718 -0.625,1.917969 v 6.919922 h 9.921875 v 0.873047 h -9.921875 v 8.242187 c 0,0.664251 0.176889,1.338872 0.625,1.917969 0.44811,0.579097 1.239485,1.003906 2.060547,1.003906 h 8.666015 v 0.873052 h -9.300781 c -0.764628,0 -1.671294,-0.34264 -2.216797,-0.871099 -0.577261,-0.559223 -0.970703,-1.3415 -0.970703,-2.501953 v -16.90625 c 0,-1.160453 0.393445,-1.942735 0.970703,-2.501953 0.523991,-0.507617 1.465044,-0.845703 2.216797,-0.845703 z"
           id="path105" />
      </g>
    </g>
  </g>
  <g
     inkscape:label="ESPRESS"
     inkscape:groupmode="layer"
     id="layer1"
     transform="translate(81.01341,-63.093247)"
     style="display:inline"
     sodipodi:insensitive="true">
    <g
       id="g20">
      <g
         id="g16"
         transform="matrix(0.26445936,0,0,0.26445936,-141.26,38.012847)"
         style="display:inline">
        <path
           id="path15"
           style="baseline-shift:baseline;display:inline;overflow:visible;opacity:1;vector-effect:none;fill:#e8362d;fill-opacity:1;enable-background:accumulate;stop-color:#000000;stop-opacity:1"
           d="m 290.00139,108.20063 c 4.96021,-0.0331 4.67189,0.11259 9.48472,-1.60201 14.51716,-5.01736 20.67168,15.15174 12.34447,28.31004 42.44083,-11.64815 94.56487,36.25186 62.89797,91.65891 -1.93477,1.85752 -11.14741,3.13687 -20.77186,12.2716 -7.57,7.18479 -3.9878,13.4871 -9.51932,21.43021 -8.35105,11.99176 5.64175,16.58785 8.13336,17.11421 5.40883,1.14264 27.38344,3.47528 45.30731,-28.27166 C 457.61308,164.4211 363.35439,72.172417 290.00139,108.20063 Z m 80.54912,140.08757 c 0.71736,-0.0306 1.47544,0.0515 2.26084,0.26562 1.38018,0.37635 3.68822,2.70407 4.07986,4.11448 0.88963,3.20387 -0.44216,6.38817 -3.23805,7.74164 -2.48283,1.20191 -6.11993,0.42615 -7.6972,-1.64176 -3.45969,-4.53587 -0.42695,-10.26609 4.59455,-10.47998 z"
           sodipodi:nodetypes="ccccsssccssssss" />
        <path
           id="path16"
           style="baseline-shift:baseline;display:inline;overflow:visible;opacity:1;vector-effect:none;fill:#e8362d;fill-opacity:1;enable-background:accumulate;stop-color:#000000;stop-opacity:1"
           d="m 302.44872,110.07493 c -1.56208,-0.0635 -3.39415,0.23173 -5.54178,1.00718 -9.10404,3.28721 -14.2647,-1.80414 -23.16396,3.64835 -12.69892,7.78053 -17.78092,15.74162 -20.30884,20.89795 -57.17452,76.60645 15.94393,168.47974 95.90016,145.96682 -13.89623,-2.86355 -14.5429,-15.12155 -10.48593,-19.89653 3.63176,-7.72178 2.77717,-7.25245 4.16739,-11.82667 -6.75577,2.63947 -10.42254,2.82107 -18.15445,2.82107 -33.06787,0 -59.52712,-26.46131 -59.52712,-59.52918 0,-12.35657 3.69457,-23.79033 10.04797,-33.26567 0.0109,0.003 0.0217,0.006 0.0326,0.009 11.89811,-9.1973 18.7031,-7.23134 26.76116,-16.66875 5.62833,-6.59178 8.81512,-13.50806 9.15655,-19.87114 0.11511,-2.14521 -0.44843,-12.94974 -8.8837,-13.29273 z m -18.00252,18.67793 c 1.93301,-0.0491 3.94706,0.79112 5.44102,2.72645 1.58922,2.05874 1.39738,5.77232 -0.40618,7.85947 -2.03099,2.35033 -5.45133,2.81303 -8.31577,1.12448 -1.26096,-0.74337 -2.91238,-3.57534 -2.91869,-5.0059 -0.0179,-4.07033 2.97795,-6.62263 6.19962,-6.7045 z"
           sodipodi:nodetypes="cssccccssccssccssssss" />
      </g>
      <path
         id="path17"
         style="display:inline;fill:#e8362d;fill-opacity:1;stroke-width:0.748658"
         class="st0"
         d="m 336.85733,380.19996 c -1.72194,0 -3.36839,0.0753 -5.01543,0.29973 l -1.123,3.21836 c 24.03196,8.38497 43.12159,27.47638 51.58143,51.50832 l 3.2198,-1.12298 c 0.14969,-1.64706 0.22524,-3.29382 0.22524,-4.94086 0,-27.02659 -21.86146,-48.96257 -48.88802,-48.96257 z m -22.83412,5.61492 c -3.96789,2.09624 -7.63604,4.79141 -10.93012,7.86094 v 7.2614 c 34.13884,0 61.83893,27.7764 61.83893,61.8404 h 7.2614 c 3.14437,-3.14437 5.84073,-6.81311 7.93696,-10.781 -4.12592,-29.46175 -24.85149,-53.64997 -52.32716,-62.9078 -4.43163,-1.49323 -9.03846,-2.59806 -13.78001,-3.27394 z m -7.4588,21.57952 c -1.52539,0 -2.94754,0.13185 -4.14541,0.43134 -3.81815,0.97326 -7.11257,3.06981 -9.658,5.91472 -2.99465,3.36895 -4.71566,7.78515 -4.71566,12.57659 0,8.53471 5.53949,15.7224 13.25068,18.19299 1.42246,0.4492 3.66875,0.6735 4.79172,0.82324 h 0.0747 c 8.38497,1.42243 14.82404,8.83416 14.82404,17.59349 0,3.51869 -1.04872,6.81311 -2.8455,9.65799 l 6.13842,3.89242 c 2.91976,0.74865 5.99016,1.27275 9.13453,1.49733 1.72191,-3.59356 2.91975,-7.56085 3.36895,-11.75335 1.19784,-12.12828 -4.19335,-23.43303 -13.25213,-30.3207 -4.7914,-3.59356 -10.63038,-6.06443 -16.99398,-6.66337 -1.64704,-0.14969 -2.91945,-1.64732 -2.69486,-3.29439 0.22467,-1.79678 1.72219,-2.91948 3.29439,-2.69486 6.96251,0.67378 13.32496,3.14377 18.64043,6.88707 11.52937,8.01065 18.56732,21.86199 17.06999,36.76034 -0.22467,2.39572 -0.67435,4.6411 -1.34815,6.88707 l 8.83476,2.47116 c 2.6203,-0.74865 5.24,-1.72248 7.63572,-2.84551 0.59891,-3.36895 0.97383,-6.88764 0.97383,-10.4812 0,-27.99986 -20.66267,-51.2077 -47.61439,-55.17559 -1.60961,-0.22467 -3.23854,-0.35678 -4.76394,-0.35678 z m 0.42113,44.90199 c -4.11763,0 -7.48661,3.36897 -7.48661,7.4866 0,4.11763 3.36898,7.48658 7.48661,7.48658 4.11763,0 7.48658,-3.36895 7.48658,-7.48658 0,-4.11763 -3.36895,-7.4866 -7.48658,-7.4866 z"
         sodipodi:nodetypes="sccccsssccccccscsccscccscccccccccccccscsssssss"
         transform="matrix(0.26445936,0,0,0.26445936,-144.44224,-24.523223)" />
      <circle
         style="display:none;fill:none;stroke:#000000;stroke-width:32.11;stroke-dasharray:none;stroke-opacity:0.562827"
         id="circle17"
         cx="336.89536"
         cy="411.21234"
         r="75.657875"
         transform="matrix(0.26445936,0,0,0.26445936,-144.44224,-24.523223)" />
      <path
         id="rect34"
         style="display:inline;fill:#e8362d;fill-opacity:1;stroke-width:0.204214"
         inkscape:label="Backdrop"
         d="M 135.75605,-7.6200037 V 34.184167 h 71.53621 V -7.6200037 Z m 56.77845,7.655346 h 2.74557 c 1.24052,-7.711e-5 2.32526,0.8359228 2.64119,2.035535 l 6.44043,24.4579377 h -4.60592 l -1.76682,-7.302396 h -8.16281 l -1.76681,7.302396 h -4.60592 l 6.43991,-24.4579377 c 0.31593,-1.19960881 1.40067,-2.03560792 2.64118,-2.035535 z m -32.67139,0.0041 c 2.52353,-3.584e-5 4.56927,2.0456991 4.56923,4.56923 V 21.955417 c -2.5e-4,2.523329 -2.0459,4.568748 -4.56923,4.568714 H 147.8163 v -0.02636 -26.4319787 -0.02584 z m 11.39672,0.01344 h 10.71563 v 3.704167 h -10.08104 c -0.82021,0 -1.26969,0.714168 -1.26969,1.507918 v 5.5035397 h 9.92187 v 3.704167 h -9.92187 v 6.826457 c 0,0.79375 0.44948,1.507918 1.26969,1.507918 h 10.08104 v 3.704167 h -10.71563 c -1.13771,0 -2.3552,-0.449997 -3.20187,-1.270207 -0.84666,-0.82021 -1.40198,-2.010518 -1.40198,-3.518648 V 4.8154123 c 0,-1.508125 0.55532,-2.698957 1.40198,-3.519165 0.84667,-0.820209 2.09062,-1.243335 3.20187,-1.243335 z m -30.45602,0.01344 h 3.96875 V 26.497784 h -3.96875 z m 53.08927,3.196704 c -0.0885,0.00611 -0.16295,0.068486 -0.18449,0.154513 l -2.93005,11.7873937 h 6.25802 L 194.10598,3.4175393 c -0.0241,-0.096317 -0.11385,-0.161451 -0.2129,-0.154513 z m -42.08116,0.480591 v 0.02687 19.0236447 0.02635 l 7.38766,-0.02274 c 0.71319,-0.0021 1.29026,-0.580785 1.29037,-1.293978 V 5.0603583 c -1.1e-4,-0.7131922 -0.57718,-1.2918794 -1.29037,-1.293977 z"
         sodipodi:nodetypes="ccccccccccccccccccccccccccccssccccssccssssssccccccccccccccccccccc"
         transform="translate(-24.870831,75.670831)" />
      <g
         id="g57"
         transform="translate(56.056435,9.0213581)"
         inkscape:label="Letras"
         style="display:none">
        <path
           id="path54"
           style="font-weight:500;font-size:35.2778px;font-family:'Neo Sans Std';-inkscape-font-specification:'Neo Sans Std, Medium';display:inline;stroke-width:0.264583"
           inkscape:label="A Turbo"
           d="m 162.42973,77.724031 -6.44028,24.457849 h 4.60592 l 1.76681,-7.3024 h 8.16281 l 1.76682,7.3024 h 4.60592 l -6.44029,-24.457849 a 2.7310733,2.7310733 37.623817 0 0 -2.64105,-2.035628 h -2.74561 a 2.7310723,2.7310723 142.37617 0 0 -2.64105,2.035628 z m 4.21253,1.346834 2.93034,11.787155 h -6.25802 l 2.93034,-11.787155 a 0.20472114,0.20472114 0 0 1 0.39734,0 z"
           sodipodi:nodetypes="ccccccccccccc"
           transform="translate(-53.463672,-9.003587)" />
        <path
           id="path55"
           style="display:none;stroke-width:0.264583"
           inkscape:label="A"
           d="m 108.07194,66.742181 c -2.14428,0 -4.60385,1.580355 -4.60385,4.788855 v 21.589892 h 3.96875 V 81.161976 h 11.08615 v 11.958952 h 3.96875 V 71.531036 c 0,-3.21149 -2.46159,-4.788855 -4.60385,-4.788855 z m 0.6351,3.704165 h 8.54626 c 0.82021,0 1.26969,0.71417 1.26969,1.50792 v 5.50354 h -11.08615 v -5.50354 c 0,-0.79375 0.44999,-1.50792 1.2702,-1.50792 z"
           sodipodi:nodetypes="ssccccccssssssccss" />
        <path
           d="m 87.130836,67.945933 c -0.84666,0.820208 -1.40229,2.010833 -1.40229,3.518958 v 16.906874 c 0,1.50813 0.55563,2.698742 1.40229,3.518952 0.84667,0.82021 2.06375,1.27 3.20146,1.27 H 101.04793 V 89.456555 H 90.967296 c -0.82021,0 -1.27,-0.71437 -1.27,-1.50812 v -6.826253 h 9.921887 v -3.704166 h -9.921887 v -5.503333 c 0,-0.79375 0.44979,-1.508125 1.27,-1.508125 H 101.04793 V 66.702391 H 90.332296 c -1.11125,0 -2.35479,0.423333 -3.20146,1.243542"
           id="path56"
           style="display:inline;stroke-width:0.264583"
           inkscape:label="E2" />
        <path
           id="path57"
           style="display:inline;fill:#000000;fill-opacity:1;stroke-width:0.264583"
           inkscape:label="D"
           d="m 90.98101,121.11664 v 0.0263 26.43198 0.0264 h 12.04687 a 4.5691678,4.5691678 135 0 0 4.56917,-4.56917 V 125.6858 a 4.5691651,4.5691651 44.999983 0 0 -4.56917,-4.56917 z m 11.38341,22.75809 -7.387788,0.0225 v -0.0264 -19.02364 -0.0264 l 7.387788,0.0225 a 1.2941764,1.2941764 45.087151 0 1 1.29024,1.29418 v 16.44314 a 1.2941764,1.2941764 134.91285 0 1 -1.29024,1.29418 z"
           sodipodi:nodetypes="cccccccccccccc"
           transform="translate(-24.092176,-54.427422)" />
        <rect
           x="59.876392"
           y="66.715614"
           width="3.96875"
           height="26.431875"
           id="rect57"
           style="display:inline;stroke-width:0.264583"
           inkscape:label="I" />
      </g>
      <path
         d="m 103.31979,86.439375 h -6.164792 c -0.79375,0 -1.428749,-0.635 -1.428749,-1.42875 v -4.074583 c 0,-0.79375 0.449791,-1.508125 1.269999,-1.508125 h 9.895422 V 75.72375 H 96.33479 c -1.11125,0 -2.354791,0.449792 -3.201458,1.27 -0.846667,0.820208 -1.402292,2.010833 -1.402292,3.518958 v 5.476875 c 0,2.566458 2.090209,4.656667 4.656667,4.656667 h 6.164793 c 0.79375,0 1.42875,0.635 1.42875,1.42875 v 4.894791 c 0,0.79375 -0.44979,1.508125 -1.27,1.508125 H 91.757499 v 3.704164 h 11.615211 c 1.11125,0 2.35479,-0.44979 3.20146,-1.27 0.84666,-0.82021 1.40229,-2.01083 1.40229,-3.518955 v -6.297084 c 0,-2.566458 -2.09021,-4.656666 -4.65667,-4.656666"
         id="path12"
         style="stroke-width:0.264583"
         inkscape:label="S2" />
      <path
         d="m 83.819999,86.439375 h -6.164792 c -0.79375,0 -1.42875,-0.635 -1.42875,-1.42875 v -4.074583 c 0,-0.79375 0.449792,-1.508125 1.27,-1.508125 h 9.895417 V 75.72375 H 76.834999 c -1.11125,0 -2.354792,0.449792 -3.201459,1.27 -0.846666,0.820208 -1.402291,2.010833 -1.402291,3.518958 v 5.476875 c 0,2.566458 2.090208,4.656667 4.656666,4.656667 h 6.164792 c 0.79375,0 1.42875,0.635 1.42875,1.42875 v 4.894791 c 0,0.79375 -0.449792,1.508125 -1.27,1.508125 h -10.95375 v 3.704164 h 11.615208 c 1.11125,0 2.354792,-0.44979 3.201459,-1.27 0.846666,-0.82021 1.402291,-2.01083 1.402291,-3.518955 v -6.297084 c 0,-2.566458 -2.090208,-4.656666 -4.656666,-4.656666"
         id="path11"
         style="stroke-width:0.264583"
         inkscape:label="S1" />
      <path
         d="m 54.848124,76.967292 c -0.846667,0.820208 -1.402292,2.010833 -1.402292,3.518958 v 16.906875 c 0,1.508125 0.555625,2.698745 1.402292,3.518955 0.846667,0.82021 2.06375,1.27 3.201458,1.27 H 68.765207 V 98.477916 H 58.684582 c -0.820208,0 -1.27,-0.714375 -1.27,-1.508125 v -6.82625 h 9.921875 v -3.704166 h -9.921875 v -5.503333 c 0,-0.79375 0.449792,-1.508125 1.27,-1.508125 H 68.765207 V 75.72375 H 58.049582 c -1.11125,0 -2.354791,0.423333 -3.201458,1.243542"
         id="path10"
         style="stroke-width:0.264583"
         inkscape:label="E1" />
      <path
         d="m 47.201666,91.096041 c 0.449791,-0.211666 0.873125,-0.47625 1.217083,-0.820208 0.846667,-0.820208 1.402292,-2.010833 1.402292,-3.518958 v -6.297083 c 0,-1.508125 -0.555625,-2.69875 -1.402292,-3.518959 -0.846667,-0.820208 -2.06375,-1.27 -3.201458,-1.27 l -11.456458,0.05292 v 26.458327 h 3.96875 V 91.545833 h 4.101041 c 1.031875,0.05292 2.963333,0.47625 3.545417,3.122083 l 1.561041,7.514164 4.339167,-0.0265 -1.640417,-7.06437 C 49.133124,92.842291 48.339374,91.678125 47.201666,91.096041 M 37.729583,79.427917 v -0.02646 h 6.826249 c 0.820209,0 1.27,0.714375 1.27,1.508125 v 5.423958 c 0,0.79375 -0.449791,1.508125 -1.27,1.508125 h -6.826249 z"
         id="path6"
         style="stroke-width:0.264583"
         inkscape:label="R" />
      <path
         d="m 25.770416,75.697292 -12.038541,0.02646 v 26.458328 h 3.968749 V 91.889791 h 8.043334 c 1.11125,0 2.354791,-0.449791 3.201458,-1.27 0.846667,-0.820208 1.402292,-2.010833 1.402292,-3.518958 v -6.641041 c 0,-1.508125 -0.555625,-2.69875 -1.402292,-3.518959 -0.820208,-0.820208 -2.06375,-1.243541 -3.175,-1.243541 m 0.635,10.980208 c 0,0.79375 -0.449792,1.508125 -1.27,1.508125 h -7.408333 v -8.757708 -0.02646 h 7.408333 c 0.820208,0 1.27,0.714375 1.27,1.508125 z"
         id="path13"
         style="stroke-width:0.264583"
         inkscape:label="P" />
      <path
         d="m 5.503333,86.439375 h -6.16479161 c -0.79374999,0 -1.42874999,-0.635 -1.42874999,-1.42875 v -4.074583 c 0,-0.79375 0.4497917,-1.508125 1.26999999,-1.508125 H 9.0752079 V 75.72375 H -1.4816669 c -1.11125,0 -2.3547917,0.449792 -3.2014583,1.27 -0.8466667,0.820208 -1.4022917,2.010833 -1.4022917,3.518958 v 5.476875 c 0,2.566458 2.0902083,4.656667 4.6566666,4.656667 h 6.1647916 c 0.79375,0 1.42875,0.635 1.42875,1.42875 v 4.894791 c 0,0.79375 -0.4497917,1.508125 -1.27,1.508125 H -6.0589585 v 3.704164 H 5.5562496 c 1.11125,0 2.3547917,-0.44979 3.2014583,-1.27 C 9.6043746,100.09187 10.16,98.90125 10.16,97.393125 v -6.297084 c 0,-2.566458 -2.0902087,-4.656666 -4.656667,-4.656666"
         id="path9"
         style="stroke-width:0.264583"
         inkscape:label="S0" />
      <path
         d="m -23.468542,76.967292 c -0.846666,0.820208 -1.402291,2.010833 -1.402291,3.518958 v 16.906875 c 0,1.508125 0.555625,2.698745 1.402291,3.518955 0.846667,0.82021 2.06375,1.27 3.201459,1.27 H -9.5514585 V 98.477916 H -19.632083 c -0.820209,0 -1.27,-0.714375 -1.27,-1.508125 v -6.82625 h 9.921875 v -3.704166 h -9.921875 v -5.503333 c 0,-0.79375 0.449791,-1.508125 1.27,-1.508125 H -9.5514585 V 75.72375 H -20.267083 c -1.11125,0 -2.354792,0.423333 -3.201459,1.243542"
         id="path7"
         style="stroke-width:0.264583"
         inkscape:label="E0" />
    </g>
  </g>
</svg>
