<?xml version="1.0" encoding="UTF-8" standalone="no"?>
<!-- Created with Inkscape (http://www.inkscape.org/) -->

<svg
   width="223.24588mm"
   height="218.88878mm"
   viewBox="0 0 223.24588 218.88878"
   version="1.1"
   id="svg1"
   inkscape:version="1.4.2 (f4327f4, 2025-05-13)"
   sodipodi:docname="logo_dos_serpientes_wifi.svg"
   inkscape:export-filename="logo_dos_serpientes_wifi.png"
   inkscape:export-xdpi="96"
   inkscape:export-ydpi="96"
   xmlns:inkscape="http://www.inkscape.org/namespaces/inkscape"
   xmlns:sodipodi="http://sodipodi.sourceforge.net/DTD/sodipodi-0.dtd"
   xmlns="http://www.w3.org/2000/svg"
   xmlns:svg="http://www.w3.org/2000/svg">
  <sodipodi:namedview
     id="namedview1"
     pagecolor="#ffffff"
     bordercolor="#000000"
     borderopacity="0.25"
     inkscape:showpageshadow="2"
     inkscape:pageopacity="0.0"
     inkscape:pagecheckerboard="0"
     inkscape:deskcolor="#d1d1d1"
     inkscape:document-units="mm"
     inkscape:zoom="0.32599702"
     inkscape:cx="85.890355"
     inkscape:cy="234.66472"
     inkscape:window-width="2560"
     inkscape:window-height="1494"
     inkscape:window-x="-11"
     inkscape:window-y="-11"
     inkscape:window-maximized="1"
     inkscape:current-layer="layer1"
     inkscape:export-bgcolor="#ffffffff" />
  <defs
     id="defs1">
    <clipPath
       clipPathUnits="userSpaceOnUse"
       id="clipath_lpe_path-effect6">
      <path
         id="lpe_path-effect6"
         style="baseline-shift:baseline;display:inline;overflow:visible;opacity:1;vector-effect:none;fill:#e8362d;stroke-width:1;stroke-linecap:round;stroke-linejoin:round;enable-background:accumulate;stop-color:#000000;stop-opacity:1"
         class="powerclip"
         d="M -41.671059,394.22164 H 187.21763 V 623.11033 H -41.671059 Z m 80.573593,29.47962 c -18.831099,-0.70966 -32.2882208,9.74307 -33.9198925,23.03891 -1.4112808,11.49996 6.4061735,23.25712 21.9195915,29.27729 -3.290916,1.08929 -6.359644,2.56222 -8.94519,4.58007 -6.392904,4.9893 -10.4278747,12.21943 -11.8731765,19.84997 -1.4453021,7.6305 -0.3042153,15.83068 4.1604695,22.62859 2.017562,3.07192 4.816064,5.71516 8.142139,7.89874 -4.602039,2.27817 -9.9230738,5.66142 -16.619141,11.86905 a 5.5005499,5.5005499 0 0 0 -0.046509,0.0449 c -4.0280983,3.82312 -6.2520968,8.66381 -7.8909911,16.2946 -0.9809342,4.56732 -0.3256245,3.06787 -2.3554118,5.98258 -2.2737831,3.26506 -3.5381551,6.60143 -3.5527551,9.64231 -0.0091,1.97583 0.555975,4.45331 1.416451,6.20118 2.5815505,5.24388 7.7626295,8.55027 13.6461958,9.7932 7.8175272,1.65148 16.4534242,-0.0103 25.0666872,-4.11707 11.959783,-5.70249 18.76516,-13.81202 25.726596,-25.99013 l 3.0055,-3.17966 c 5.701046,-4.31506 9.793534,-9.01538 12.310877,-13.93766 1.15901,6.69888 4.577014,12.34469 9.33173,16.11892 5.902243,4.68508 13.476155,6.81434 21.015772,6.38513 7.539614,-0.42918 15.186574,-3.50128 20.861254,-9.58027 3.84658,-4.12065 6.54973,-9.66957 7.88893,-16.24605 2.30411,4.47569 5.95373,9.12405 11.92175,11.11922 6.49271,2.17056 14.53372,0.27805 22.78672,-6.27145 8.253,-6.54949 17.46349,-17.77005 28.40085,-36.14457 a 5.5005499,5.5005499 0 0 0 -8.56485,-6.75203 c -8.79783,8.57441 -15.40674,14.48387 -20.2246,18.20095 -4.2956,3.31415 -6.99172,4.52657 -8.00933,4.85344 -0.4402,-1.01677 -1.05612,-3.41162 -1.72083,-6.48436 0.19269,-30.16289 -16.71625,-54.56174 -39.12733,-70.81996 C 91.096661,431.5928 62.963581,422.91849 38.902534,423.70126 Z m 3.995624,51.13282 2e-6,-9e-4 c 0.03565,0.007 0.06848,0.0152 0.105934,0.0212 0.01272,0.003 0.02399,0 0.03669,0.003 z m 51.27077,95.06807 c -2.792584,0.19043 -5.397627,0.60598 -8.202083,1.27953 -5.399794,1.2968 -9.7477,4.37663 -14.982547,10.16577 -3.133294,3.46509 -1.816066,2.49306 -5.031219,4.00235 -3.601794,1.69079 -6.363539,3.94957 -7.896675,6.57582 -0.99641,1.70688 -1.746125,4.13705 -1.874819,6.08026 -0.386244,5.832 2.447957,11.28453 6.922056,15.30294 5.94451,5.33906 14.254885,8.2164 23.767542,8.96639 2.795217,0.22037 5.265116,-1.89344 7.400065,-5.3847 8.851302,-0.51969 16.088682,-3.65143 25.786542,-9.37564 5.53008,-9.9478 -3.03237,-27.4456 -8.82117,-31.30404 -1.2943,0.91691 -2.74589,-0.24559 -7.11068,-0.67025 0.12885,-3.3941 -0.0781,-5.53302 -0.62993,-5.56815 -3.554495,-0.22622 -6.534494,-0.26067 -9.327082,-0.0703 z" />
    </clipPath>
  </defs>
  <g
     inkscape:label="Capa 1"
     inkscape:groupmode="layer"
     id="layer1"
     transform="translate(167.21666,-77.7875)">
    <g
       id="g5"
       style="display:inline"
       inkscape:label="IDEA"
       transform="translate(-130.54535,-321.43396)">
      <path
         id="path3"
         style="display:inline;fill:#e8362d;stroke-width:0.965837"
         class="st0"
         d="m 35.983605,473.07537 c 41.6101,2.80633 66.448875,17.21356 66.448875,61.15926 0.42461,9.35442 -9.521268,7.33813 -8.662108,-0.18142 0,-36.12238 -16.92793,-48.66351 -51.69813,-53.78245 -33.8638599,-6.06158 -44.9089999,45.72589 -8.34833,50.60102 -8.17629,3.21155 -14.5822,3.36516 -28.2173999,16.00575 -3.31149,3.14298 -4.73920999,6.19412 -6.29986999,13.46067 -0.99195001,4.61861 -1.13937001,4.98314 -3.21944001,7.97006 -2.11738,3.04047 -2.55434,4.15185 -2.56574,6.52622 -0.008,1.72997 0.10568,2.2313 0.85163,3.74654 1.64818,3.34793 5.29109001,5.87837 9.84746,6.84092 6.2346299,1.31709 13.7396499,0.0289 21.5635399,-3.70158 11.20142,-5.3409 16.81347,-12.16672 23.72724,-24.41246 l 3.53311,-3.73879 c 28.176205,-20.75985 8.21192,-46.5745 -17.58291,-45.57965 -5.19131,-0.4718 -4.1289,-8.42698 0.77308,-7.72666 27.41673,0.046 38.87926,10.68428 37.92895,38.38081 -0.24201,29.36077 50.549738,31.92443 49.603888,-8.27859 -8.05989,-76.33482 -73.613546,-71.80489 -84.557726,-75.7964 -8.49114,-0.61292 -6.787452,-8.36341 0.147698,-6.97438 29.53669,-0.94081 88.238768,18.43254 91.066218,79.49669 -1.28298,6.60467 13.29076,51.22704 56.25093,-20.94506 -35.50827,34.60651 -36.34143,27.0617 -39.23972,13.52305 1.09303,-57.08757 -63.329088,-92.11611 -108.577288,-90.4747 -33.7408782,-1.32232 -40.8428949,35.27191 -2.773957,43.88115 z m -13.882753,83.25172 c 0.71736,-0.0306 1.47493,0.0515 2.26032,0.26562 1.38018,0.37635 3.68874,2.70406 4.08038,4.11447 0.88963,3.20387 -0.44268,6.38818 -3.23857,7.74165 -2.48283,1.20191 -6.11993,0.42615 -7.6972,-1.64176 -3.45969,-4.53588 -0.42644,-10.2661 4.59507,-10.47998 z"
         sodipodi:nodetypes="ccccccsssssscccccccccccccssssss"
         inkscape:export-filename="path3.png"
         inkscape:export-xdpi="96"
         inkscape:export-ydpi="96" />
      <path
         id="path4"
         clip-path="url(#clipath_lpe_path-effect6)"
         style="display:inline;fill:none;fill-opacity:1;stroke:#e8362d;stroke-width:32.11;stroke-dasharray:none;stroke-opacity:1"
         d="m 72.773336,415.27646 a 93.389343,93.389343 0 0 0 -93.389649,93.38965 93.389343,93.389343 0 0 0 93.389649,93.38913 93.389343,93.389343 0 0 0 93.389134,-93.38913 93.389343,93.389343 0 0 0 -93.389134,-93.38965 z" />
      <path
         style="display:inline;fill:#e8362d;fill-opacity:1"
         d="m 66.777778,609.21697 c -3.464657,-3.11178 -5.354147,-7.1251 -5.107547,-10.84859 0.111608,-1.68521 0.263464,-2.17597 1.135637,-3.67002 1.197057,-2.05056 2.131373,-2.7948 5.485313,-4.36924 3.294853,-1.54671 3.604331,-1.78854 6.772689,-5.2924 4.984847,-5.51269 7.747133,-7.44099 12.186457,-8.50714 5.170258,-1.24171 9.059352,-1.50292 15.897193,-1.06773 5.13571,0.32687 6.70257,1.73129 8.08911,0.74904 5.7888,3.85844 14.35098,21.356 8.8209,31.30378 -12.11037,7.14824 -20.383139,10.25362 -32.754304,9.27826 -8.640922,-0.68126 -15.784645,-3.31801 -20.525448,-7.57596 z m 26.74463,-4.1582 c 3.098047,0.22581 5.843685,-1.8659 6.675182,-5.08534 0.36603,-1.41728 -0.469086,-4.58717 -1.476182,-5.60319 -4.584748,-4.62536 -11.876297,-1.04813 -11.044023,5.41819 0.332001,2.5795 3.093874,5.06981 5.845023,5.27034 z"
         id="path5"
         sodipodi:nodetypes="sssssssccsssssss" />
    </g>
  </g>
</svg>
