<?xml version="1.0" encoding="UTF-8" standalone="no"?>
<!-- Created with Inkscape (http://www.inkscape.org/) -->

<svg
   width="189.80934mm"
   height="153.58527mm"
   viewBox="0 0 189.80933 153.58526"
   version="1.1"
   id="svg1"
   inkscape:version="1.4.2 (f4327f4, 2025-05-13)"
   sodipodi:docname="logo_wifi.svg"
   inkscape:export-filename="logo_wifi.png"
   inkscape:export-xdpi="96"
   inkscape:export-ydpi="96"
   xmlns:inkscape="http://www.inkscape.org/namespaces/inkscape"
   xmlns:sodipodi="http://sodipodi.sourceforge.net/DTD/sodipodi-0.dtd"
   xmlns="http://www.w3.org/2000/svg"
   xmlns:svg="http://www.w3.org/2000/svg">
  <sodipodi:namedview
     id="namedview1"
     pagecolor="#ffffff"
     bordercolor="#000000"
     borderopacity="0.25"
     inkscape:showpageshadow="2"
     inkscape:pageopacity="0.0"
     inkscape:pagecheckerboard="0"
     inkscape:deskcolor="#d1d1d1"
     inkscape:document-units="mm"
     inkscape:zoom="1.0806047"
     inkscape:cx="193.41023"
     inkscape:cy="179.06641"
     inkscape:window-width="2560"
     inkscape:window-height="1494"
     inkscape:window-x="-11"
     inkscape:window-y="-11"
     inkscape:window-maximized="1"
     inkscape:current-layer="layer2"
     inkscape:export-bgcolor="#ffffffff" />
  <defs
     id="defs1" />
  <g
     inkscape:label="Capa 1"
     inkscape:groupmode="layer"
     id="layer1"
     transform="translate(-138.37708,-101.07083)">
    <g
       inkscape:groupmode="layer"
       id="layer2"
       inkscape:label="wifi"
       transform="translate(127.83859,89.237072)">
      <path
         d="m 94.126982,154.99049 c 0.38608,3.142 1.95188,6.23998 2.90643,9.42019 -2.2344,-1.19555 -3.48911,-2.60881 -4.70604,-4.03046 -1.05907,1.81273 -3.02482,3.57479 -4.1078,3.68522 0.73137,-2.90402 2.25428,-5.41226 1.40294,-9.10763"
         style="display:inline;fill:#000000;fill-opacity:1;stroke:#000000;stroke-opacity:1"
         id="path1-1"
         sodipodi:nodetypes="ccccc"
         inkscape:label="path1-1" />
      <path
         d="M 173.09375,64.777344 C 152.47608,39.194392 124.65417,26.250725 96.707031,24.935977 69.592563,23.660402 42.317443,33.331113 24.134766,53.025391 c -1.602201,2.289963 -0.851812,3.748423 0.777343,5.001953 3.453854,2.661057 6.996058,-0.113863 9.802735,-2.351563 C 55.979509,38.83029 77.751365,32.799337 96.707031,33.116472 128.01259,33.640226 155.3947,52.406733 165.30078,69.375 c 2.91647,4.769402 4.03632,9.827157 3.00195,14.361328 -1.03869,4.553168 -4.16016,8.080408 -7.76367,9.996094 -7.20701,3.831371 -17.56887,2.040877 -22.17383,-6.41211 -5.13362,-7.32552 -17.09337,-18.887494 -41.658199,-19.480468 -16.855607,-0.406881 -33.807392,5.858041 -44.19707,18.496253 -4.052781,3.956942 3.167085,9.945497 6.845698,6.626954 10.064511,-12.416127 24.506212,-17.051995 37.351372,-16.927092 4.448029,0.04325 17.265339,0.907526 27.996289,9.139982 10.44864,8.015894 9.26253,16.528939 9.14046,17.249999 -1.41251,8.3455 -9.18883,12.85302 -16.30027,12.91962 -7.39771,0.78457 -29.482672,-12.74713 -18.573257,5.92327 13.650107,0.41353 8.677487,16.77562 4.417117,26.13337 -2.94547,12.21288 -19.814825,10.11965 -22.496454,0 -8.361077,-21.05171 -3.631363,-24.49186 3.894147,-26.13337 -4.057386,-16.23582 4.794219,-25.538036 15.771577,-23.149549 5.53215,1.203702 11.77709,4.610969 16.80859,4.998049 1.71583,0.28745 3.99233,-0.7303 3.79948,-2.50562 -0.76775,-2.533884 -6.98209,-11.396978 -24.457679,-11.581601 -10.385298,-0.109717 -19.586256,3.679579 -27.509765,12.419111 -3.420677,3.73072 -8.307678,5.43632 -12.660157,5.21484 -4.352478,-0.22147 -8.235885,-1.99845 -11.353515,-4.61914 -3.11763,-2.620683 -5.587036,-6.201603 -6.416016,-10.591795 -0.826524,-4.377189 0.415354,-8.979232 3.755859,-12.904427 13.40877,-16.262622 33.089789,-24.722544 53.323698,-24.234114 18.934795,1.147226 32.847985,3.69941 53.074225,25.728647 1.56392,1.731576 4.1671,3.234838 5.79483,1.976816 1.59025,-1.229057 1.4137,-2.752464 -0.51891,-5.895045 C 148.79111,67.285278 127.3224,46.964413 96.707031,46.000305 80.579729,45.492441 62.178696,50.505516 42.787109,65.867187 l 0.28125,-0.236328 C 34.531605,73.213348 23.646031,73.455793 16.984375,68.330078 10.322719,63.204363 8.0769867,52.722827 13.841797,45.027344 l 0.191406,-0.253907 0.214844,-0.234375 c 28.204058,-30.853697 67.581508,-33.12276 82.458984,-32.656071 32.226079,1.010895 63.103329,15.695256 86.507809,44.73615 11.2351,12.576472 14.95374,0.206068 14.74382,-20.106988 7.71969,28.666904 -3.97846,47.479763 -24.86491,28.265191 z"
         style="display:inline;fill:#e8362d;fill-opacity:1;stroke:none;stroke-opacity:1"
         id="path1-5"
         sodipodi:nodetypes="cscscscsscsccssccccccsccscssscscscsccscccsccc" />
    </g>
  </g>
</svg>
