<?xml version="1.0" encoding="UTF-8" standalone="no"?>
<!-- Created with Inkscape (http://www.inkscape.org/) -->

<svg
   width="183.75317mm"
   height="184.86795mm"
   viewBox="0 0 183.75317 184.86795"
   version="1.1"
   id="svg1"
   inkscape:version="1.4.2 (f4327f4, 2025-05-13)"
   sodipodi:docname="logo_uroboros.svg"
   inkscape:export-filename="logo_uroboros.png"
   inkscape:export-xdpi="96"
   inkscape:export-ydpi="96"
   xmlns:inkscape="http://www.inkscape.org/namespaces/inkscape"
   xmlns:sodipodi="http://sodipodi.sourceforge.net/DTD/sodipodi-0.dtd"
   xmlns="http://www.w3.org/2000/svg"
   xmlns:svg="http://www.w3.org/2000/svg">
  <sodipodi:namedview
     id="namedview1"
     pagecolor="#ffffff"
     bordercolor="#000000"
     borderopacity="0.25"
     inkscape:showpageshadow="2"
     inkscape:pageopacity="0.0"
     inkscape:pagecheckerboard="0"
     inkscape:deskcolor="#d1d1d1"
     inkscape:document-units="mm"
     inkscape:zoom="1.0806047"
     inkscape:cx="347.02793"
     inkscape:cy="349.34145"
     inkscape:window-width="2560"
     inkscape:window-height="1494"
     inkscape:window-x="-11"
     inkscape:window-y="-11"
     inkscape:window-maximized="1"
     inkscape:current-layer="g26"
     inkscape:export-bgcolor="#ffffffff" />
  <defs
     id="defs1" />
  <g
     inkscape:label="Capa 1"
     inkscape:groupmode="layer"
     id="layer1"
     transform="translate(-13.229166,-56.091655)">
    <g
       inkscape:groupmode="layer"
       id="g26"
       inkscape:label="OroBoros Espress"
       style="display:inline"
       transform="translate(-231.85755,-262.14242)">
      <g
         id="g27"
         transform="translate(12.033016,218.04841)"
         style="display:inline">
        <path
           id="path24"
           style="baseline-shift:baseline;display:inline;overflow:visible;opacity:1;vector-effect:none;fill:#e8362d;fill-opacity:1;enable-background:accumulate;stop-color:#000000;stop-opacity:1"
           d="m 290.00139,108.20063 c 4.96021,-0.0331 4.67189,0.11259 9.48472,-1.60201 14.51716,-5.01736 20.67168,15.15174 12.34447,28.31004 42.44083,-11.64815 94.56487,36.25186 62.89797,91.65891 -1.93477,1.85752 -11.14741,3.13687 -20.77186,12.2716 -7.57,7.18479 -3.9878,13.4871 -9.51932,21.43021 -8.35105,11.99176 5.64175,16.58785 8.13336,17.11421 5.40883,1.14264 27.38344,3.47528 45.30731,-28.27166 C 457.61308,164.4211 363.35439,72.172417 290.00139,108.20063 Z m 80.54912,140.08757 c 0.71736,-0.0306 1.47544,0.0515 2.26084,0.26562 1.38018,0.37635 3.68822,2.70407 4.07986,4.11448 0.88963,3.20387 -0.44216,6.38817 -3.23805,7.74164 -2.48283,1.20191 -6.11993,0.42615 -7.6972,-1.64176 -3.45969,-4.53587 -0.42695,-10.26609 4.59455,-10.47998 z"
           sodipodi:nodetypes="ccccsssccssssss" />
        <path
           id="path25"
           style="baseline-shift:baseline;display:inline;overflow:visible;opacity:1;vector-effect:none;fill:#e8362d;fill-opacity:1;enable-background:accumulate;stop-color:#000000;stop-opacity:1"
           d="m 302.44872,110.07493 c -1.56208,-0.0635 -3.39415,0.23173 -5.54178,1.00718 -9.10404,3.28721 -14.2647,-1.80414 -23.16396,3.64835 -12.69892,7.78053 -17.78092,15.74162 -20.30884,20.89795 -57.17452,76.60645 15.94393,168.47974 95.90016,145.96682 -13.89623,-2.86355 -14.5429,-15.12155 -10.48593,-19.89653 3.63176,-7.72178 2.77717,-7.25245 4.16739,-11.82667 -6.75577,2.63947 -10.42254,2.82107 -18.15445,2.82107 -33.06787,0 -59.52712,-26.46131 -59.52712,-59.52918 0,-12.35657 3.69457,-23.79033 10.04797,-33.26567 0.0109,0.003 0.0217,0.006 0.0326,0.009 11.89811,-9.1973 18.7031,-7.23134 26.76116,-16.66875 5.62833,-6.59178 8.81512,-13.50806 9.15655,-19.87114 0.11511,-2.14521 -0.44843,-12.94974 -8.8837,-13.29273 z m -18.00252,18.67793 c 1.93301,-0.0491 3.94706,0.79112 5.44102,2.72645 1.58922,2.05874 1.39738,5.77232 -0.40618,7.85947 -2.03099,2.35033 -5.45133,2.81303 -8.31577,1.12448 -1.26096,-0.74337 -2.91238,-3.57534 -2.91869,-5.0059 -0.0179,-4.07033 2.97795,-6.62263 6.19962,-6.7045 z"
           sodipodi:nodetypes="cssccccssccssccssssss" />
      </g>
      <path
         id="path26"
         style="display:inline;fill:#e8362d;fill-opacity:1;stroke-width:0.748658"
         class="st0"
         d="m 325.21566,143.77923 c -1.72194,0 -3.36839,0.0753 -5.01543,0.29973 l -1.123,3.21836 c 24.03196,8.38497 43.12159,27.47638 51.58143,51.50832 l 3.2198,-1.12298 c 0.14969,-1.64706 0.22524,-3.29382 0.22524,-4.94086 0,-27.02659 -21.86146,-48.96257 -48.88802,-48.96257 z m -22.83412,5.61492 c -3.96789,2.09624 -7.63604,4.79141 -10.93012,7.86094 v 7.2614 c 34.13884,0 61.83893,27.7764 61.83893,61.8404 h 7.2614 c 3.14437,-3.14437 5.84073,-6.81311 7.93696,-10.781 -4.12592,-29.46175 -24.85149,-53.64997 -52.32716,-62.9078 -4.43163,-1.49323 -9.03846,-2.59806 -13.78001,-3.27394 z m -7.4588,21.57952 c -1.52539,0 -2.94754,0.13185 -4.14541,0.43134 -3.81815,0.97326 -7.11257,3.06981 -9.658,5.91472 -2.99465,3.36895 -4.71566,7.78515 -4.71566,12.57659 0,8.53471 5.53949,15.7224 13.25068,18.19299 1.42246,0.4492 3.66875,0.6735 4.79172,0.82324 h 0.0747 c 8.38497,1.42243 14.82404,8.83416 14.82404,17.59349 0,3.51869 -1.04872,6.81311 -2.8455,9.65799 l 6.13842,3.89242 c 2.91976,0.74865 5.99016,1.27275 9.13453,1.49733 1.72191,-3.59356 2.91975,-7.56085 3.36895,-11.75335 1.19784,-12.12828 -4.19335,-23.43303 -13.25213,-30.3207 -4.7914,-3.59356 -10.63038,-6.06443 -16.99398,-6.66337 -1.64704,-0.14969 -2.91945,-1.64732 -2.69486,-3.29439 0.22467,-1.79678 1.72219,-2.91948 3.29439,-2.69486 6.96251,0.67378 13.32496,3.14377 18.64043,6.88707 11.52937,8.01065 18.56732,21.86199 17.06999,36.76034 -0.22467,2.39572 -0.67435,4.6411 -1.34815,6.88707 l 8.83476,2.47116 c 2.6203,-0.74865 5.24,-1.72248 7.63572,-2.84551 0.59891,-3.36895 0.97383,-6.88764 0.97383,-10.4812 0,-27.99986 -20.66267,-51.2077 -47.61439,-55.17559 -1.60961,-0.22467 -3.23854,-0.35678 -4.76394,-0.35678 z m 0.42113,44.90199 c -4.11763,0 -7.48661,3.36897 -7.48661,7.4866 0,4.11763 3.36898,7.48658 7.48661,7.48658 4.11763,0 7.48658,-3.36895 7.48658,-7.48658 0,-4.11763 -3.36895,-7.4866 -7.48658,-7.4866 z"
         sodipodi:nodetypes="sccccsssccccccscsccscccscccccccccccccscsssssss"
         transform="translate(11.641671,218.54583)" />
      <circle
         style="display:none;fill:none;stroke:#000000;stroke-width:32.11;stroke-dasharray:none;stroke-opacity:0.562827"
         id="path2"
         cx="336.89536"
         cy="411.21234"
         r="75.657875" />
    </g>
  </g>
</svg>
